<?xml version="1.0" encoding="utf-8" standalone="no"?>
<!DOCTYPE svg PUBLIC "-//W3C//DTD SVG 1.1//EN"
  "http://www.w3.org/Graphics/SVG/1.1/DTD/svg11.dtd">
<svg height="345.6pt" version="1.1" viewBox="0 0 460.8 345.6" width="460.8pt" xmlns="http://www.w3.org/2000/svg" xmlns:xlink="http://www.w3.org/1999/xlink">
 <metadata>
  <rdf:RDF xmlns:cc="http://creativecommons.org/ns#" xmlns:dc="http://purl.org/dc/elements/1.1/" xmlns:rdf="http://www.w3.org/1999/02/22-rdf-syntax-ns#">
   <cc:Work>
    <dc:type rdf:resource="http://purl.org/dc/dcmitype/StillImage"/>
    <dc:date>2023-05-30T10:37:05.649178</dc:date>
    <dc:format>image/svg+xml</dc:format>
    <dc:creator>
     <cc:Agent>
      <dc:title>Matplotlib v3.4.3, https://matplotlib.org/</dc:title>
     </cc:Agent>
    </dc:creator>
   </cc:Work>
  </rdf:RDF>
 </metadata>
 <defs>
  <style type="text/css">*{stroke-linecap:butt;stroke-linejoin:round;}</style>
 </defs>
 <g id="figure_1">
  <g id="patch_1">
   <path d="M 0 345.6 
L 460.8 345.6 
L 460.8 0 
L 0 0 
z
" style="fill:#ffffff;"/>
  </g>
  <g id="axes_1">
   <g id="patch_2">
    <path d="M 57.6 307.584 
L 414.72 307.584 
L 414.72 41.472 
L 57.6 41.472 
z
" style="fill:#ffffff;"/>
   </g>
   <g id="matplotlib.axis_1">
    <g id="xtick_1">
     <g id="line2d_1">
      <defs>
       <path d="M 0 0 
L 0 3.5 
" id="mdfc516b66f" style="stroke:#000000;stroke-width:0.8;"/>
      </defs>
      <g>
       <use style="stroke:#000000;stroke-width:0.8;" x="67.207124" xlink:href="#mdfc516b66f" y="307.584"/>
      </g>
     </g>
     <g id="text_1">
      <!-- $\mathdefault{0}$ -->
      <g transform="translate(64.716464 321.338578)scale(0.1 -0.1)">
       <defs>
        <path d="M 1626 4352 
C 1274 4352 1005 4243 768 4019 
C 397 3661 154 2924 154 2176 
C 154 1478 365 729 666 371 
C 902 89 1229 -64 1600 -64 
C 1926 -64 2202 44 2432 268 
C 2803 620 3046 1363 3046 2137 
C 3046 3449 2464 4352 1626 4352 
z
M 1606 4185 
C 2144 4185 2432 3462 2432 2124 
C 2432 787 2150 102 1600 102 
C 1050 102 768 787 768 2118 
C 768 3475 1056 4185 1606 4185 
z
" id="NimbusRomNo9L-Regu-30" transform="scale(0.015625)"/>
       </defs>
       <use transform="scale(0.996264)" xlink:href="#NimbusRomNo9L-Regu-30"/>
      </g>
     </g>
    </g>
    <g id="xtick_2">
     <g id="line2d_2">
      <g>
       <use style="stroke:#000000;stroke-width:0.8;" x="133.463154" xlink:href="#mdfc516b66f" y="307.584"/>
      </g>
     </g>
     <g id="text_2">
      <!-- $\mathdefault{20}$ -->
      <g transform="translate(128.481834 321.338578)scale(0.1 -0.1)">
       <defs>
        <path d="M 3040 879 
L 2957 912 
C 2720 544 2637 486 2349 486 
L 819 486 
L 1894 1621 
C 2464 2221 2714 2711 2714 3214 
C 2714 3858 2195 4352 1530 4352 
C 1178 4352 845 4211 608 3955 
C 403 3736 307 3530 198 3072 
L 333 3039 
C 589 3671 819 3878 1261 3878 
C 1798 3878 2163 3510 2163 2969 
C 2163 2466 1869 1866 1331 1292 
L 192 76 
L 192 0 
L 2688 0 
L 3040 879 
z
" id="NimbusRomNo9L-Regu-32" transform="scale(0.015625)"/>
       </defs>
       <use transform="scale(0.996264)" xlink:href="#NimbusRomNo9L-Regu-32"/>
       <use transform="translate(49.8132 0)scale(0.996264)" xlink:href="#NimbusRomNo9L-Regu-30"/>
      </g>
     </g>
    </g>
    <g id="xtick_3">
     <g id="line2d_3">
      <g>
       <use style="stroke:#000000;stroke-width:0.8;" x="199.719184" xlink:href="#mdfc516b66f" y="307.584"/>
      </g>
     </g>
     <g id="text_3">
      <!-- $\mathdefault{40}$ -->
      <g transform="translate(194.737864 321.338578)scale(0.1 -0.1)">
       <defs>
        <path d="M 3021 1497 
L 2368 1497 
L 2368 4352 
L 2086 4352 
L 77 1497 
L 77 1088 
L 1875 1088 
L 1875 0 
L 2368 0 
L 2368 1088 
L 3021 1088 
L 3021 1497 
z
M 1869 1497 
L 333 1497 
L 1869 3697 
L 1869 1497 
z
" id="NimbusRomNo9L-Regu-34" transform="scale(0.015625)"/>
       </defs>
       <use transform="scale(0.996264)" xlink:href="#NimbusRomNo9L-Regu-34"/>
       <use transform="translate(49.8132 0)scale(0.996264)" xlink:href="#NimbusRomNo9L-Regu-30"/>
      </g>
     </g>
    </g>
    <g id="xtick_4">
     <g id="line2d_4">
      <g>
       <use style="stroke:#000000;stroke-width:0.8;" x="265.975213" xlink:href="#mdfc516b66f" y="307.584"/>
      </g>
     </g>
     <g id="text_4">
      <!-- $\mathdefault{60}$ -->
      <g transform="translate(260.993893 321.338578)scale(0.1 -0.1)">
       <defs>
        <path d="M 2854 4390 
C 2125 4326 1754 4204 1286 3878 
C 595 3385 218 2655 218 1801 
C 218 1248 390 688 666 369 
C 909 89 1254 -64 1651 -64 
C 2445 -64 2995 541 2995 1420 
C 2995 2234 2528 2752 1792 2752 
C 1510 2752 1376 2707 973 2463 
C 1146 3430 1862 4121 2867 4288 
L 2854 4390 
z
M 1549 2457 
C 2099 2457 2419 1999 2419 1203 
C 2419 503 2170 115 1722 115 
C 1158 115 813 713 813 1700 
C 813 2024 864 2203 992 2298 
C 1126 2400 1325 2457 1549 2457 
z
" id="NimbusRomNo9L-Regu-36" transform="scale(0.015625)"/>
       </defs>
       <use transform="scale(0.996264)" xlink:href="#NimbusRomNo9L-Regu-36"/>
       <use transform="translate(49.8132 0)scale(0.996264)" xlink:href="#NimbusRomNo9L-Regu-30"/>
      </g>
     </g>
    </g>
    <g id="xtick_5">
     <g id="line2d_5">
      <g>
       <use style="stroke:#000000;stroke-width:0.8;" x="332.231243" xlink:href="#mdfc516b66f" y="307.584"/>
      </g>
     </g>
     <g id="text_5">
      <!-- $\mathdefault{80}$ -->
      <g transform="translate(327.249923 321.338578)scale(0.1 -0.1)">
       <defs>
        <path d="M 1856 2400 
C 2490 2739 2714 3008 2714 3443 
C 2714 3968 2253 4352 1613 4352 
C 915 4352 397 3923 397 3341 
C 397 2924 518 2739 1190 2150 
C 499 1625 358 1427 358 992 
C 358 371 864 -64 1587 -64 
C 2355 -64 2848 358 2848 1017 
C 2848 1510 2630 1824 1856 2400 
z
M 1741 1740 
C 2208 1408 2362 1177 2362 819 
C 2362 403 2074 115 1658 115 
C 1171 115 845 486 845 1043 
C 845 1452 986 1721 1357 2022 
L 1741 1740 
z
M 1670 2515 
C 1101 2886 870 3180 870 3539 
C 870 3910 1158 4172 1562 4172 
C 1997 4172 2272 3891 2272 3449 
C 2272 3084 2093 2796 1728 2553 
C 1696 2534 1696 2534 1670 2515 
z
" id="NimbusRomNo9L-Regu-38" transform="scale(0.015625)"/>
       </defs>
       <use transform="scale(0.996264)" xlink:href="#NimbusRomNo9L-Regu-38"/>
       <use transform="translate(49.8132 0)scale(0.996264)" xlink:href="#NimbusRomNo9L-Regu-30"/>
      </g>
     </g>
    </g>
    <g id="xtick_6">
     <g id="line2d_6">
      <g>
       <use style="stroke:#000000;stroke-width:0.8;" x="398.487273" xlink:href="#mdfc516b66f" y="307.584"/>
      </g>
     </g>
     <g id="text_6">
      <!-- $\mathdefault{100}$ -->
      <g transform="translate(391.015293 321.338578)scale(0.1 -0.1)">
       <defs>
        <path d="M 1862 4352 
L 710 3776 
L 710 3686 
C 787 3718 858 3743 883 3756 
C 998 3801 1107 3826 1171 3826 
C 1306 3826 1363 3731 1363 3525 
L 1363 599 
C 1363 386 1312 238 1210 179 
C 1114 121 1024 102 755 96 
L 755 0 
L 2522 0 
L 2522 96 
C 2016 102 1914 167 1914 477 
L 1914 4339 
L 1862 4352 
z
" id="NimbusRomNo9L-Regu-31" transform="scale(0.015625)"/>
       </defs>
       <use transform="scale(0.996264)" xlink:href="#NimbusRomNo9L-Regu-31"/>
       <use transform="translate(49.8132 0)scale(0.996264)" xlink:href="#NimbusRomNo9L-Regu-30"/>
       <use transform="translate(99.626401 0)scale(0.996264)" xlink:href="#NimbusRomNo9L-Regu-30"/>
      </g>
     </g>
    </g>
    <g id="text_7">
     <!-- Number of Neighbors -->
     <g transform="translate(192.44425 334.249984)scale(0.1 -0.1)">
      <defs>
       <path d="M 3917 -64 
L 3917 3287 
C 3917 3669 3981 3905 4102 3988 
C 4192 4051 4282 4077 4525 4102 
L 4525 4224 
L 3021 4224 
L 3021 4102 
C 3264 4083 3354 4058 3450 4000 
C 3578 3911 3635 3682 3635 3287 
L 3635 1140 
L 1171 4224 
L 77 4224 
L 77 4102 
C 352 4102 442 4051 698 3752 
L 698 943 
C 698 281 608 160 77 121 
L 77 0 
L 1581 0 
L 1581 121 
C 1088 147 979 294 979 940 
L 979 3449 
L 3808 -64 
L 3917 -64 
z
" id="NimbusRomNo9L-Regu-4e" transform="scale(0.015625)"/>
       <path d="M 3066 319 
L 3034 319 
C 2739 319 2669 390 2669 684 
L 2669 2880 
L 1658 2880 
L 1658 2771 
C 2054 2752 2131 2688 2131 2368 
L 2131 864 
C 2131 684 2099 595 2010 524 
C 1837 384 1638 307 1446 307 
C 1197 307 992 524 992 793 
L 992 2880 
L 58 2880 
L 58 2790 
C 365 2771 454 2675 454 2380 
L 454 768 
C 454 262 762 -64 1229 -64 
C 1466 -64 1715 38 1888 211 
L 2163 486 
L 2163 -45 
L 2189 -64 
C 2509 64 2739 134 3066 224 
L 3066 319 
z
" id="NimbusRomNo9L-Regu-75" transform="scale(0.015625)"/>
       <path d="M 122 2547 
C 205 2566 256 2572 326 2572 
C 493 2572 550 2470 550 2163 
L 550 544 
C 550 198 461 102 102 96 
L 102 0 
L 1523 0 
L 1523 96 
C 1184 108 1088 179 1088 428 
L 1088 2233 
C 1088 2246 1139 2310 1184 2355 
C 1344 2502 1619 2611 1843 2611 
C 2125 2611 2266 2387 2266 1939 
L 2266 550 
C 2266 192 2195 121 1830 96 
L 1830 0 
L 3264 0 
L 3264 96 
C 2899 102 2803 211 2803 608 
L 2803 2220 
C 2995 2496 3206 2611 3501 2611 
C 3866 2611 3981 2438 3981 1907 
L 3981 556 
C 3981 192 3930 140 3558 96 
L 3558 0 
L 4960 0 
L 4960 96 
L 4794 108 
C 4602 121 4518 236 4518 486 
L 4518 1804 
C 4518 2560 4269 2944 3776 2944 
C 3405 2944 3078 2777 2733 2406 
C 2618 2771 2400 2944 2054 2944 
C 1773 2944 1594 2854 1062 2451 
L 1062 2931 
L 1018 2944 
C 691 2822 474 2751 122 2655 
L 122 2547 
z
" id="NimbusRomNo9L-Regu-6d" transform="scale(0.015625)"/>
       <path d="M 979 4358 
L 947 4371 
C 678 4275 506 4224 205 4140 
L 19 4089 
L 19 3987 
C 58 3993 83 3993 128 3993 
C 384 3993 442 3936 442 3667 
L 442 345 
C 442 147 986 -64 1498 -64 
C 2342 -64 2995 639 2995 1555 
C 2995 2342 2509 2944 1869 2944 
C 1478 2944 1107 2713 979 2399 
L 979 4358 
z
M 979 2060 
C 979 2310 1280 2540 1613 2540 
C 2112 2540 2432 2041 2432 1260 
C 2432 550 2125 140 1600 140 
C 1267 140 979 287 979 447 
L 979 2060 
z
" id="NimbusRomNo9L-Regu-62" transform="scale(0.015625)"/>
       <path d="M 2611 1052 
C 2304 564 2029 377 1619 377 
C 1254 377 979 564 794 930 
C 678 1174 634 1386 621 1779 
L 2592 1779 
C 2541 2193 2477 2377 2317 2580 
C 2125 2809 1830 2944 1498 2944 
C 1178 2944 877 2828 634 2612 
C 333 2351 160 1900 160 1374 
C 160 486 621 -64 1357 -64 
C 1965 -64 2445 313 2714 1007 
L 2611 1052 
z
M 634 1984 
C 704 2478 922 2713 1312 2713 
C 1702 2713 1856 2535 1939 1984 
L 634 1984 
z
" id="NimbusRomNo9L-Regu-65" transform="scale(0.015625)"/>
       <path d="M 45 2496 
C 134 2515 192 2521 269 2521 
C 429 2521 486 2419 486 2137 
L 486 537 
C 486 217 442 172 32 96 
L 32 0 
L 1568 0 
L 1568 96 
C 1133 115 1024 211 1024 576 
L 1024 2016 
C 1024 2220 1299 2540 1472 2540 
C 1510 2540 1568 2508 1638 2444 
C 1741 2355 1811 2316 1894 2316 
C 2048 2316 2144 2425 2144 2604 
C 2144 2815 2010 2944 1792 2944 
C 1523 2944 1338 2796 1024 2342 
L 1024 2931 
L 992 2944 
C 653 2803 422 2720 45 2598 
L 45 2496 
z
" id="NimbusRomNo9L-Regu-72" transform="scale(0.015625)"/>
       <path d="M 1600 2944 
C 768 2944 186 2329 186 1446 
C 186 582 781 -64 1587 -64 
C 2394 -64 3008 614 3008 1497 
C 3008 2336 2419 2944 1600 2944 
z
M 1517 2764 
C 2054 2764 2432 2150 2432 1273 
C 2432 550 2144 115 1664 115 
C 1414 115 1178 268 1043 524 
C 864 857 762 1305 762 1760 
C 762 2368 1062 2764 1517 2764 
z
" id="NimbusRomNo9L-Regu-6f" transform="scale(0.015625)"/>
       <path d="M 1978 2880 
L 1190 2880 
L 1190 3611 
C 1190 3977 1312 4172 1555 4172 
C 1690 4172 1779 4109 1894 3926 
C 1997 3762 2074 3699 2182 3699 
C 2330 3699 2451 3813 2451 3958 
C 2451 4185 2170 4352 1786 4352 
C 1389 4352 1050 4179 883 3889 
C 717 3611 666 3384 659 2880 
L 134 2880 
L 134 2675 
L 659 2675 
L 659 665 
C 659 198 589 121 128 96 
L 128 0 
L 1792 0 
L 1792 96 
C 1267 115 1197 185 1197 665 
L 1197 2675 
L 1978 2675 
L 1978 2880 
z
" id="NimbusRomNo9L-Regu-66" transform="scale(0.015625)"/>
       <path d="M 1120 2944 
L 128 2592 
L 128 2496 
L 179 2502 
C 256 2515 339 2521 397 2521 
C 550 2521 608 2419 608 2137 
L 608 652 
C 608 192 544 121 102 96 
L 102 0 
L 1619 0 
L 1619 96 
C 1197 128 1146 192 1146 652 
L 1146 2924 
L 1120 2944 
z
M 819 4352 
C 646 4352 499 4204 499 4025 
C 499 3846 640 3699 819 3699 
C 1005 3699 1152 3839 1152 4025 
C 1152 4204 1005 4352 819 4352 
z
" id="NimbusRomNo9L-Regu-69" transform="scale(0.015625)"/>
       <path d="M 3008 2438 
L 3008 2688 
L 2515 2688 
C 2387 2688 2291 2734 2163 2796 
L 2022 2847 
C 1850 2911 1677 2944 1510 2944 
C 915 2944 442 2438 442 1877 
C 442 1489 614 1255 1037 1049 
C 915 934 800 826 762 794 
C 550 610 467 483 467 356 
C 467 223 544 147 806 19 
C 352 -316 179 -529 179 -767 
C 179 -1108 678 -1389 1286 -1389 
C 1766 -1389 2266 -1223 2598 -954 
C 2842 -754 2950 -548 2950 -303 
C 2950 96 2650 363 2176 382 
L 1350 420 
C 1011 432 851 490 851 591 
C 851 718 1062 941 1235 992 
C 1293 985 1338 979 1357 979 
C 1478 966 1562 960 1600 960 
C 1837 960 2093 1056 2291 1224 
C 2502 1397 2598 1612 2598 1920 
C 2598 2099 2566 2241 2477 2438 
L 3008 2438 
z
M 941 0 
C 1152 -46 1664 -84 1978 -84 
C 2560 -84 2771 -168 2771 -400 
C 2771 -773 2285 -1024 1562 -1024 
C 998 -1024 627 -838 627 -554 
C 627 -406 672 -322 941 0 
z
M 973 2130 
C 973 2495 1152 2764 1446 2764 
C 1645 2764 1811 2611 1914 2419 
C 2029 2204 2106 1920 2106 1680 
C 2106 1335 1920 1120 1626 1120 
C 1242 1120 973 1520 973 2111 
L 973 2130 
z
" id="NimbusRomNo9L-Regu-67" transform="scale(0.015625)"/>
       <path d="M 1005 2195 
C 1274 2489 1466 2598 1715 2598 
C 2035 2598 2195 2368 2195 1920 
L 2195 652 
C 2195 217 2131 134 1760 96 
L 1760 0 
L 3117 0 
L 3117 96 
C 2771 160 2733 211 2733 652 
L 2733 1926 
C 2733 2598 2464 2944 1946 2944 
C 1568 2944 1299 2790 1005 2406 
L 1005 4352 
L 973 4371 
C 755 4294 595 4243 237 4140 
L 64 4089 
L 64 3987 
C 90 3993 109 3993 141 3993 
C 416 3993 467 3942 467 3667 
L 467 652 
C 467 204 429 147 58 96 
L 58 0 
L 1440 0 
L 1440 96 
C 1069 134 1005 211 1005 652 
L 1005 2195 
z
" id="NimbusRomNo9L-Regu-68" transform="scale(0.015625)"/>
       <path d="M 2016 2009 
L 1990 2880 
L 1920 2880 
L 1907 2867 
C 1850 2822 1843 2815 1818 2815 
C 1779 2815 1715 2828 1645 2860 
C 1504 2918 1363 2944 1197 2944 
C 691 2944 326 2617 326 2155 
C 326 1796 531 1539 1075 1231 
L 1446 1019 
C 1670 891 1779 737 1779 538 
C 1779 256 1574 76 1248 76 
C 1030 76 832 160 710 301 
C 576 461 518 609 435 974 
L 333 974 
L 333 -26 
L 416 -26 
C 461 38 486 51 563 51 
C 621 51 710 38 858 0 
C 1037 -39 1210 -64 1325 -64 
C 1818 -64 2227 307 2227 756 
C 2227 1077 2074 1289 1690 1520 
L 998 1930 
C 819 2033 723 2193 723 2366 
C 723 2623 922 2803 1216 2803 
C 1581 2803 1773 2585 1920 2014 
L 2016 2009 
z
" id="NimbusRomNo9L-Regu-73" transform="scale(0.015625)"/>
      </defs>
      <use transform="scale(0.996264)" xlink:href="#NimbusRomNo9L-Regu-4e"/>
      <use transform="translate(71.929985 0)scale(0.996264)" xlink:href="#NimbusRomNo9L-Regu-75"/>
      <use transform="translate(121.743185 0)scale(0.996264)" xlink:href="#NimbusRomNo9L-Regu-6d"/>
      <use transform="translate(199.251555 0)scale(0.996264)" xlink:href="#NimbusRomNo9L-Regu-62"/>
      <use transform="translate(249.064756 0)scale(0.996264)" xlink:href="#NimbusRomNo9L-Regu-65"/>
      <use transform="translate(293.298325 0)scale(0.996264)" xlink:href="#NimbusRomNo9L-Regu-72"/>
      <use transform="translate(351.380155 0)scale(0.996264)" xlink:href="#NimbusRomNo9L-Regu-6f"/>
      <use transform="translate(401.193355 0)scale(0.996264)" xlink:href="#NimbusRomNo9L-Regu-66"/>
      <use transform="translate(459.275185 0)scale(0.996264)" xlink:href="#NimbusRomNo9L-Regu-4e"/>
      <use transform="translate(531.20517 0)scale(0.996264)" xlink:href="#NimbusRomNo9L-Regu-65"/>
      <use transform="translate(575.438739 0)scale(0.996264)" xlink:href="#NimbusRomNo9L-Regu-69"/>
      <use transform="translate(603.133908 0)scale(0.996264)" xlink:href="#NimbusRomNo9L-Regu-67"/>
      <use transform="translate(652.947109 0)scale(0.996264)" xlink:href="#NimbusRomNo9L-Regu-68"/>
      <use transform="translate(702.760309 0)scale(0.996264)" xlink:href="#NimbusRomNo9L-Regu-62"/>
      <use transform="translate(752.57351 0)scale(0.996264)" xlink:href="#NimbusRomNo9L-Regu-6f"/>
      <use transform="translate(802.38671 0)scale(0.996264)" xlink:href="#NimbusRomNo9L-Regu-72"/>
      <use transform="translate(835.56194 0)scale(0.996264)" xlink:href="#NimbusRomNo9L-Regu-73"/>
     </g>
    </g>
   </g>
   <g id="matplotlib.axis_2">
    <g id="ytick_1">
     <g id="line2d_7">
      <defs>
       <path d="M 0 0 
L -3.5 0 
" id="mcd7b1a552d" style="stroke:#000000;stroke-width:0.8;"/>
      </defs>
      <g>
       <use style="stroke:#000000;stroke-width:0.8;" x="57.6" xlink:href="#mcd7b1a552d" y="307.584"/>
      </g>
     </g>
     <g id="text_8">
      <!-- $\mathdefault{0.0}$ -->
      <g transform="translate(37.877811 310.961289)scale(0.1 -0.1)">
       <defs>
        <path d="M 1229 339 
C 1229 524 1075 678 890 678 
C 704 678 550 524 550 339 
C 550 153 704 0 890 0 
C 1075 0 1229 153 1229 339 
z
" id="CMMI10-3a" transform="scale(0.015625)"/>
       </defs>
       <use transform="scale(0.996264)" xlink:href="#NimbusRomNo9L-Regu-30"/>
       <use transform="translate(49.8132 0)scale(0.996264)" xlink:href="#CMMI10-3a"/>
       <use transform="translate(77.408707 0)scale(0.996264)" xlink:href="#NimbusRomNo9L-Regu-30"/>
      </g>
     </g>
    </g>
    <g id="ytick_2">
     <g id="line2d_8">
      <g>
       <use style="stroke:#000000;stroke-width:0.8;" x="57.6" xlink:href="#mcd7b1a552d" y="254.3616"/>
      </g>
     </g>
     <g id="text_9">
      <!-- $\mathdefault{0.2}$ -->
      <g transform="translate(37.877811 257.738889)scale(0.1 -0.1)">
       <use transform="scale(0.996264)" xlink:href="#NimbusRomNo9L-Regu-30"/>
       <use transform="translate(49.8132 0)scale(0.996264)" xlink:href="#CMMI10-3a"/>
       <use transform="translate(77.408707 0)scale(0.996264)" xlink:href="#NimbusRomNo9L-Regu-32"/>
      </g>
     </g>
    </g>
    <g id="ytick_3">
     <g id="line2d_9">
      <g>
       <use style="stroke:#000000;stroke-width:0.8;" x="57.6" xlink:href="#mcd7b1a552d" y="201.1392"/>
      </g>
     </g>
     <g id="text_10">
      <!-- $\mathdefault{0.4}$ -->
      <g transform="translate(37.877811 204.516489)scale(0.1 -0.1)">
       <use transform="scale(0.996264)" xlink:href="#NimbusRomNo9L-Regu-30"/>
       <use transform="translate(49.8132 0)scale(0.996264)" xlink:href="#CMMI10-3a"/>
       <use transform="translate(77.408707 0)scale(0.996264)" xlink:href="#NimbusRomNo9L-Regu-34"/>
      </g>
     </g>
    </g>
    <g id="ytick_4">
     <g id="line2d_10">
      <g>
       <use style="stroke:#000000;stroke-width:0.8;" x="57.6" xlink:href="#mcd7b1a552d" y="147.9168"/>
      </g>
     </g>
     <g id="text_11">
      <!-- $\mathdefault{0.6}$ -->
      <g transform="translate(37.877811 151.294089)scale(0.1 -0.1)">
       <use transform="scale(0.996264)" xlink:href="#NimbusRomNo9L-Regu-30"/>
       <use transform="translate(49.8132 0)scale(0.996264)" xlink:href="#CMMI10-3a"/>
       <use transform="translate(77.408707 0)scale(0.996264)" xlink:href="#NimbusRomNo9L-Regu-36"/>
      </g>
     </g>
    </g>
    <g id="ytick_5">
     <g id="line2d_11">
      <g>
       <use style="stroke:#000000;stroke-width:0.8;" x="57.6" xlink:href="#mcd7b1a552d" y="94.6944"/>
      </g>
     </g>
     <g id="text_12">
      <!-- $\mathdefault{0.8}$ -->
      <g transform="translate(37.877811 98.071689)scale(0.1 -0.1)">
       <use transform="scale(0.996264)" xlink:href="#NimbusRomNo9L-Regu-30"/>
       <use transform="translate(49.8132 0)scale(0.996264)" xlink:href="#CMMI10-3a"/>
       <use transform="translate(77.408707 0)scale(0.996264)" xlink:href="#NimbusRomNo9L-Regu-38"/>
      </g>
     </g>
    </g>
    <g id="ytick_6">
     <g id="line2d_12">
      <g>
       <use style="stroke:#000000;stroke-width:0.8;" x="57.6" xlink:href="#mcd7b1a552d" y="41.472"/>
      </g>
     </g>
     <g id="text_13">
      <!-- $\mathdefault{1.0}$ -->
      <g transform="translate(37.877811 44.849289)scale(0.1 -0.1)">
       <use transform="scale(0.996264)" xlink:href="#NimbusRomNo9L-Regu-31"/>
       <use transform="translate(49.8132 0)scale(0.996264)" xlink:href="#CMMI10-3a"/>
       <use transform="translate(77.408707 0)scale(0.996264)" xlink:href="#NimbusRomNo9L-Regu-30"/>
      </g>
     </g>
    </g>
   </g>
   <g id="line2d_13">
    <path clip-path="url(#p3b406b62bb)" d="M 73.832727 297.232243 
L 77.145529 296.737275 
L 80.45833 305.008036 
L 83.771132 304.928202 
L 87.083933 306.844209 
L 90.396735 306.844209 
L 93.709536 307.195476 
L 97.022338 306.892109 
L 100.335139 307.387077 
L 103.647941 306.96662 
L 106.960742 306.913398 
L 110.273544 306.998554 
L 113.586345 307.136932 
L 116.899147 306.769697 
L 120.211948 306.785664 
L 123.52475 306.759053 
L 126.837551 306.375852 
L 130.150353 305.630738 
L 133.463154 305.44446 
L 136.775955 306.588741 
L 140.088757 305.263503 
L 143.401558 303.368786 
L 146.71436 304.587579 
L 150.027161 304.422589 
L 153.339963 304.2576 
L 156.652764 303.054774 
L 159.965566 304.241633 
L 163.278367 304.497101 
L 166.591169 300.457521 
L 169.90397 303.799887 
L 173.216772 300.920556 
L 176.529573 302.144671 
L 179.842375 302.181926 
L 183.155176 299.579351 
L 186.467978 298.844882 
L 189.780779 302.895107 
L 193.093581 300.909911 
L 196.406382 299.856108 
L 199.719184 300.510743 
L 203.031985 301.979681 
L 206.344787 301.362301 
L 209.657588 302.288371 
L 212.97039 305.343337 
L 216.283191 303.161219 
L 219.595993 302.863173 
L 222.908794 298.099768 
L 226.221596 299.164216 
L 229.534397 304.188411 
L 232.847199 302.091448 
L 236.16 303.938266 
L 239.472801 301.372946 
L 242.785603 301.804047 
L 246.098404 302.437394 
L 249.411206 301.223923 
L 252.724007 304.757891 
L 256.036809 303.475231 
L 259.34961 301.575191 
L 262.662412 299.754985 
L 265.975213 302.623672 
L 269.288015 298.993905 
L 272.600816 300.100931 
L 275.913618 300.377687 
L 279.226419 299.318561 
L 282.539221 298.79166 
L 285.852022 304.337434 
L 289.164824 302.16596 
L 292.477625 302.607706 
L 295.790427 298.956649 
L 299.103228 300.760888 
L 302.41603 302.815273 
L 305.728831 298.871493 
L 309.041633 304.539679 
L 312.354434 304.2576 
L 315.667236 302.490616 
L 318.980037 299.164216 
L 322.292839 303.783921 
L 325.60564 304.816435 
L 328.918442 303.837143 
L 332.231243 304.034066 
L 335.544045 301.399557 
L 338.856846 303.230408 
L 342.169647 303.661509 
L 345.482449 302.804628 
L 348.79525 296.700019 
L 352.108052 302.485294 
L 355.420853 304.502423 
L 358.733655 299.052449 
L 362.046456 301.756147 
L 365.359258 302.086126 
L 368.672059 300.100931 
L 371.984861 303.778598 
L 375.297662 307.301921 
L 378.610464 303.453942 
L 381.923265 306.221507 
L 385.236067 298.509581 
L 388.548868 303.427331 
L 391.86167 304.023421 
L 395.174471 302.283049 
L 398.487273 305.199636 
" style="fill:none;stroke:#808080;stroke-linecap:square;stroke-width:1.5;"/>
   </g>
   <g id="line2d_14">
    <path clip-path="url(#p3b406b62bb)" d="M 73.832727 184.251732 
L 77.145529 185.864371 
L 80.45833 165.639859 
L 83.771132 167.997612 
L 87.083933 160.275041 
L 90.396735 162.345393 
L 93.709536 152.105403 
L 97.022338 152.642949 
L 100.335139 145.346158 
L 103.647941 142.935183 
L 106.960742 142.64246 
L 110.273544 139.369283 
L 113.586345 134.217354 
L 116.899147 126.377695 
L 120.211948 131.401889 
L 123.52475 130.199063 
L 126.837551 124.903434 
L 130.150353 118.921236 
L 133.463154 119.26186 
L 136.775955 114.157832 
L 140.088757 114.258954 
L 143.401558 111.565901 
L 146.71436 109.11767 
L 150.027161 110.496131 
L 153.339963 100.559508 
L 156.652764 101.645245 
L 159.965566 94.699722 
L 163.278367 100.995932 
L 166.591169 95.796104 
L 169.90397 86.668462 
L 173.216772 91.368 
L 176.529573 89.122015 
L 179.842375 80.595786 
L 183.155176 89.143304 
L 186.467978 89.723428 
L 189.780779 81.08011 
L 193.093581 77.402442 
L 196.406382 79.462149 
L 199.719184 79.483438 
L 203.031985 77.578076 
L 206.344787 78.605268 
L 209.657588 71.446856 
L 212.97039 74.081364 
L 216.283191 71.388311 
L 219.595993 74.251676 
L 222.908794 76.801029 
L 226.221596 71.446856 
L 229.534397 69.344571 
L 232.847199 65.507236 
L 236.16 68.061911 
L 239.472801 70.563364 
L 242.785603 64.277798 
L 246.098404 69.743739 
L 249.411206 66.843118 
L 252.724007 59.381338 
L 256.036809 63.921208 
L 259.34961 67.497754 
L 262.662412 64.692933 
L 265.975213 63.28254 
L 269.288015 70.845443 
L 272.600816 66.108649 
L 275.913618 66.236383 
L 279.226419 68.998625 
L 282.539221 68.418501 
L 285.852022 59.503749 
L 289.164824 62.803538 
L 292.477625 62.915305 
L 295.790427 66.672806 
L 299.103228 63.506074 
L 302.41603 61.435722 
L 305.728831 65.720125 
L 309.041633 60.839631 
L 312.354434 59.285537 
L 315.667236 62.138258 
L 318.980037 65.571103 
L 322.292839 60.158385 
L 325.60564 59.136515 
L 328.918442 60.818342 
L 332.231243 60.429819 
L 335.544045 63.208028 
L 338.856846 64.059587 
L 342.169647 59.934851 
L 345.482449 60.179674 
L 348.79525 67.82241 
L 352.108052 61.190899 
L 355.420853 62.218092 
L 358.733655 65.68287 
L 362.046456 63.101583 
L 365.359258 62.468237 
L 368.672059 63.68703 
L 371.984861 59.365371 
L 375.297662 54.995812 
L 378.610464 59.780506 
L 381.923265 56.438139 
L 385.236067 65.63497 
L 388.548868 62.372436 
L 391.86167 59.152481 
L 395.174471 61.377178 
L 398.487273 58.237056 
" style="fill:none;stroke:#000000;stroke-linecap:square;stroke-width:1.5;"/>
   </g>
   <g id="line2d_15">
    <path clip-path="url(#p3b406b62bb)" d="M 73.832727 175.156024 
L 77.145529 174.038354 
L 80.45833 185.992105 
L 83.771132 183.714186 
L 87.083933 189.52075 
L 90.396735 187.450399 
L 93.709536 197.339121 
L 97.022338 197.104942 
L 100.335139 203.906765 
L 103.647941 206.738196 
L 106.960742 207.084142 
L 110.273544 210.272164 
L 113.586345 215.285714 
L 116.899147 223.492608 
L 120.211948 218.452447 
L 123.52475 219.681884 
L 126.837551 225.360714 
L 130.150353 232.088026 
L 133.463154 231.933681 
L 136.775955 235.893427 
L 140.088757 237.117542 
L 143.401558 241.705313 
L 146.71436 242.934751 
L 150.027161 241.72128 
L 153.339963 251.822892 
L 156.652764 251.939981 
L 159.965566 257.698644 
L 163.278367 251.146967 
L 166.591169 260.386376 
L 169.90397 266.171651 
L 173.216772 264.351444 
L 176.529573 265.373315 
L 179.842375 273.862287 
L 183.155176 267.917345 
L 186.467978 268.07169 
L 189.780779 272.664783 
L 193.093581 278.327647 
L 196.406382 277.321743 
L 199.719184 276.645819 
L 203.031985 277.082243 
L 206.344787 276.67243 
L 209.657588 282.904773 
L 212.97039 277.215299 
L 216.283191 282.09047 
L 219.595993 279.525151 
L 222.908794 281.739203 
L 226.221596 286.028928 
L 229.534397 283.107018 
L 232.847199 289.041316 
L 236.16 284.639823 
L 239.472801 284.70369 
L 242.785603 290.558154 
L 246.098404 284.458867 
L 249.411206 288.572959 
L 252.724007 292.500772 
L 256.036809 289.243561 
L 259.34961 287.567055 
L 262.662412 292.192082 
L 265.975213 290.733788 
L 269.288015 286.800653 
L 272.600816 290.43042 
L 275.913618 290.02593 
L 279.226419 288.322813 
L 282.539221 289.429839 
L 285.852022 292.798817 
L 289.164824 291.670502 
L 292.477625 291.116989 
L 295.790427 291.010545 
L 299.103228 292.373038 
L 302.41603 292.389005 
L 305.728831 292.048381 
L 309.041633 291.26069 
L 312.354434 293.096863 
L 315.667236 292.011126 
L 318.980037 291.904681 
L 322.292839 292.697695 
L 325.60564 292.68705 
L 328.918442 291.984515 
L 332.231243 292.176115 
L 335.544045 292.032415 
L 338.856846 289.350006 
L 342.169647 293.04364 
L 345.482449 293.655698 
L 348.79525 292.117571 
L 352.108052 292.963807 
L 355.420853 289.919485 
L 358.733655 291.904681 
L 362.046456 291.782269 
L 365.359258 292.085637 
L 368.672059 292.85204 
L 371.984861 293.496031 
L 375.297662 294.342267 
L 378.610464 293.405553 
L 381.923265 293.980355 
L 385.236067 292.49545 
L 388.548868 290.840233 
L 391.86167 293.464097 
L 395.174471 292.979773 
L 398.487273 293.203308 
" style="fill:none;stroke:#808080;stroke-dasharray:5.55,2.4;stroke-dashoffset:0;stroke-width:1.5;"/>
   </g>
   <g id="line2d_16">
    <path clip-path="url(#p3b406b62bb)" d="M 73.832727 226.396529 
L 77.145529 226.344721 
L 80.45833 227.785081 
L 83.771132 227.61717 
L 87.083933 228.342198 
L 90.396735 228.208564 
L 93.709536 229.066868 
L 97.022338 228.861832 
L 100.335139 229.651204 
L 103.647941 229.985961 
L 106.960742 229.983811 
L 110.273544 230.307961 
L 113.586345 230.514903 
L 116.899147 231.316277 
L 120.211948 230.991325 
L 123.52475 231.031448 
L 126.837551 231.454412 
L 130.150353 232.051101 
L 133.463154 232.031209 
L 136.775955 232.364652 
L 140.088757 232.432545 
L 143.401558 232.708078 
L 146.71436 232.85191 
L 150.027161 232.903963 
L 153.339963 233.556219 
L 156.652764 233.58247 
L 159.965566 234.245164 
L 163.278367 233.619948 
L 166.591169 234.099323 
L 169.90397 235.080002 
L 173.216772 234.672434 
L 176.529573 234.651961 
L 179.842375 235.489265 
L 183.155176 234.88439 
L 186.467978 234.7074 
L 189.780779 235.450446 
L 193.093581 235.832918 
L 196.406382 235.483076 
L 199.719184 235.685803 
L 203.031985 235.734148 
L 206.344787 235.776725 
L 209.657588 236.411895 
L 212.97039 236.220538 
L 216.283191 236.265654 
L 219.595993 236.142105 
L 222.908794 235.911724 
L 226.221596 236.634375 
L 229.534397 236.3923 
L 232.847199 236.835696 
L 236.16 236.721637 
L 239.472801 236.471296 
L 242.785603 236.987562 
L 246.098404 236.449288 
L 249.411206 236.876935 
L 252.724007 237.186379 
L 256.036809 237.020701 
L 259.34961 236.830385 
L 262.662412 237.135706 
L 265.975213 237.236925 
L 269.288015 236.577509 
L 272.600816 236.938096 
L 275.913618 237.014466 
L 279.226419 236.638551 
L 282.539221 236.970058 
L 285.852022 237.687742 
L 289.164824 237.10401 
L 292.477625 237.041406 
L 295.790427 236.885291 
L 299.103228 237.107006 
L 302.41603 237.180456 
L 305.728831 236.827795 
L 309.041633 237.34637 
L 312.354434 237.391497 
L 315.667236 237.072379 
L 318.980037 237.110354 
L 322.292839 237.385137 
L 325.60564 237.389898 
L 328.918442 237.221256 
L 332.231243 237.494781 
L 335.544045 237.211336 
L 338.856846 236.894697 
L 342.169647 237.38122 
L 345.482449 237.315799 
L 348.79525 237.003127 
L 352.108052 237.239811 
L 355.420853 237.23927 
L 358.733655 236.864562 
L 362.046456 237.248172 
L 365.359258 237.246063 
L 368.672059 237.281766 
L 371.984861 237.411094 
L 375.297662 237.741988 
L 378.610464 237.259003 
L 381.923265 237.621526 
L 385.236067 236.909047 
L 388.548868 236.927373 
L 391.86167 237.492792 
L 395.174471 237.222537 
L 398.487273 237.418762 
" style="fill:none;stroke:#808080;stroke-dasharray:1.5,2.475;stroke-dashoffset:0;stroke-width:1.5;"/>
   </g>
   <g id="patch_3">
    <path d="M 57.6 307.584 
L 57.6 41.472 
" style="fill:none;stroke:#000000;stroke-linecap:square;stroke-linejoin:miter;stroke-width:0.8;"/>
   </g>
   <g id="patch_4">
    <path d="M 414.72 307.584 
L 414.72 41.472 
" style="fill:none;stroke:#000000;stroke-linecap:square;stroke-linejoin:miter;stroke-width:0.8;"/>
   </g>
   <g id="patch_5">
    <path d="M 57.6 307.584 
L 414.72 307.584 
" style="fill:none;stroke:#000000;stroke-linecap:square;stroke-linejoin:miter;stroke-width:0.8;"/>
   </g>
   <g id="patch_6">
    <path d="M 57.6 41.472 
L 414.72 41.472 
" style="fill:none;stroke:#000000;stroke-linecap:square;stroke-linejoin:miter;stroke-width:0.8;"/>
   </g>
   <g id="legend_1">
    <g id="patch_7">
     <path d="M 209.953365 204.341658 
L 407.72 204.341658 
Q 409.72 204.341658 409.72 202.341658 
L 409.72 146.714342 
Q 409.72 144.714342 407.72 144.714342 
L 209.953365 144.714342 
Q 207.953365 144.714342 207.953365 146.714342 
L 207.953365 202.341658 
Q 207.953365 204.341658 209.953365 204.341658 
z
" style="fill:#ffffff;opacity:0.8;stroke:#cccccc;stroke-linejoin:miter;"/>
    </g>
    <g id="line2d_17">
     <path d="M 211.953365 152.214342 
L 231.953365 152.214342 
" style="fill:none;stroke:#808080;stroke-linecap:square;stroke-width:1.5;"/>
    </g>
    <g id="line2d_18"/>
    <g id="text_14">
     <!-- Equilibrium proportion of evaders -->
     <g transform="translate(239.953365 155.714342)scale(0.1 -0.1)">
      <defs>
       <path d="M 3821 1087 
L 3642 1087 
C 3322 391 3046 236 2131 236 
L 1958 236 
C 1645 236 1376 269 1331 314 
C 1299 333 1286 404 1286 513 
L 1286 2105 
L 2272 2105 
C 2797 2105 2893 2021 2976 1487 
L 3123 1487 
L 3123 2966 
L 2976 2966 
C 2931 2708 2906 2613 2835 2525 
C 2752 2418 2573 2368 2272 2368 
L 1286 2368 
L 1286 3766 
C 1286 3942 1325 3980 1498 3980 
L 2362 3980 
C 3085 3980 3226 3886 3334 3319 
L 3494 3319 
L 3475 4224 
L 77 4224 
L 77 4102 
C 550 4064 634 3975 634 3528 
L 634 695 
C 634 249 544 153 77 121 
L 77 0 
L 3533 0 
L 3821 1087 
z
" id="NimbusRomNo9L-Regu-45" transform="scale(0.015625)"/>
       <path d="M 2304 2713 
C 2010 2886 1818 2944 1568 2944 
C 768 2944 154 2228 154 1309 
C 154 505 576 -64 1178 -64 
C 1549 -64 1901 102 2182 409 
L 2182 -794 
C 2182 -1152 2067 -1248 1613 -1280 
L 1613 -1408 
L 3123 -1408 
L 3123 -1319 
C 2771 -1241 2720 -1189 2720 -916 
L 2720 2918 
L 2650 2918 
L 2304 2713 
z
M 2182 811 
C 2182 658 2157 575 2093 524 
C 1952 403 1741 326 1542 326 
C 1344 326 1171 390 1043 517 
C 838 703 704 1117 704 1539 
C 704 2292 1043 2764 1587 2764 
C 1984 2764 2182 2554 2182 2126 
L 2182 811 
z
" id="NimbusRomNo9L-Regu-71" transform="scale(0.015625)"/>
       <path d="M 122 3987 
L 160 3987 
C 230 3993 307 4000 358 4000 
C 563 4000 627 3910 627 3609 
L 627 556 
C 627 211 538 128 134 96 
L 134 0 
L 1645 0 
L 1645 96 
C 1242 121 1165 185 1165 537 
L 1165 4358 
L 1139 4371 
C 806 4262 563 4198 122 4089 
L 122 3987 
z
" id="NimbusRomNo9L-Regu-6c" transform="scale(0.015625)"/>
       <path d="M 58 2515 
C 115 2521 160 2521 218 2521 
C 435 2521 480 2457 480 2157 
L 480 -839 
C 480 -1172 410 -1242 32 -1280 
L 32 -1389 
L 1581 -1389 
L 1581 -1280 
C 1101 -1274 1018 -1203 1018 -798 
L 1018 211 
C 1242 0 1395 -64 1664 -64 
C 2419 -64 3008 652 3008 1580 
C 3008 2374 2560 2944 1939 2944 
C 1581 2944 1299 2783 1018 2438 
L 1018 2931 
L 979 2944 
C 634 2809 410 2726 58 2617 
L 58 2515 
z
M 1018 2137 
C 1018 2329 1376 2559 1670 2559 
C 2144 2559 2458 2073 2458 1331 
C 2458 620 2144 140 1683 140 
C 1382 140 1018 371 1018 563 
L 1018 2137 
z
" id="NimbusRomNo9L-Regu-70" transform="scale(0.015625)"/>
       <path d="M 1632 2880 
L 986 2880 
L 986 3622 
C 986 3686 979 3705 941 3705 
C 896 3648 858 3590 813 3526 
C 570 3174 294 2867 192 2841 
C 122 2796 83 2751 83 2719 
C 83 2700 90 2687 109 2675 
L 448 2675 
L 448 748 
C 448 211 640 -64 1018 -64 
C 1331 -64 1574 89 1786 422 
L 1702 492 
C 1568 332 1459 268 1318 268 
C 1082 268 986 441 986 844 
L 986 2675 
L 1632 2675 
L 1632 2880 
z
" id="NimbusRomNo9L-Regu-74" transform="scale(0.015625)"/>
       <path d="M 102 2547 
C 141 2566 205 2572 275 2572 
C 454 2572 512 2476 512 2163 
L 512 576 
C 512 211 442 121 115 96 
L 115 0 
L 1472 0 
L 1472 96 
C 1146 121 1050 198 1050 428 
L 1050 2227 
C 1357 2515 1498 2591 1709 2591 
C 2022 2591 2176 2393 2176 1971 
L 2176 633 
C 2176 230 2093 121 1773 96 
L 1773 0 
L 3104 0 
L 3104 96 
C 2790 128 2714 204 2714 518 
L 2714 1984 
C 2714 2585 2432 2944 1958 2944 
C 1664 2944 1466 2835 1030 2425 
L 1030 2931 
L 986 2944 
C 672 2828 454 2758 102 2655 
L 102 2547 
z
" id="NimbusRomNo9L-Regu-6e" transform="scale(0.015625)"/>
       <path d="M 3053 2880 
L 2163 2880 
L 2163 2783 
C 2368 2764 2464 2701 2464 2580 
C 2464 2517 2451 2454 2426 2390 
L 1792 748 
L 1139 2371 
C 1101 2460 1082 2549 1082 2606 
C 1082 2720 1152 2764 1376 2783 
L 1376 2880 
L 122 2880 
L 122 2783 
C 365 2771 410 2707 704 2054 
L 1472 235 
C 1485 197 1504 152 1523 102 
C 1562 -13 1600 -64 1638 -64 
C 1677 -64 1722 19 1818 254 
L 2637 2289 
C 2822 2720 2861 2764 3053 2783 
L 3053 2880 
z
" id="NimbusRomNo9L-Regu-76" transform="scale(0.015625)"/>
       <path d="M 2829 422 
C 2720 332 2643 300 2547 300 
C 2400 300 2355 390 2355 672 
L 2355 1920 
C 2355 2252 2323 2438 2227 2592 
C 2086 2822 1811 2944 1434 2944 
C 832 2944 358 2630 358 2227 
C 358 2080 486 1952 634 1952 
C 787 1952 922 2080 922 2220 
C 922 2246 915 2278 909 2323 
C 896 2380 890 2432 890 2476 
C 890 2649 1094 2790 1350 2790 
C 1664 2790 1837 2604 1837 2259 
L 1837 1868 
C 851 1472 742 1420 467 1177 
C 326 1049 237 832 237 620 
C 237 217 518 -64 909 -64 
C 1190 -64 1453 70 1843 403 
C 1875 70 1990 -64 2253 -64 
C 2470 -64 2605 12 2829 256 
L 2829 422 
z
M 1837 787 
C 1837 588 1805 531 1670 454 
C 1517 364 1338 307 1203 307 
C 979 307 800 524 800 800 
L 800 825 
C 800 1203 1062 1433 1837 1715 
L 1837 787 
z
" id="NimbusRomNo9L-Regu-61" transform="scale(0.015625)"/>
       <path d="M 2202 -64 
L 3142 268 
L 3142 371 
C 3027 364 3014 364 2995 364 
C 2765 364 2714 435 2714 729 
L 2714 4358 
L 2682 4371 
C 2374 4262 2150 4198 1741 4089 
L 1741 3987 
C 1792 3993 1830 3993 1882 3993 
C 2118 3993 2176 3929 2176 3667 
L 2176 2668 
C 1933 2873 1760 2944 1504 2944 
C 768 2944 173 2220 173 1312 
C 173 492 653 -64 1357 -64 
C 1715 -64 1958 64 2176 364 
L 2176 -45 
L 2202 -64 
z
M 2176 652 
C 2176 608 2131 531 2067 460 
C 1952 332 1792 268 1606 268 
C 1075 268 723 780 723 1568 
C 723 2291 1037 2764 1523 2764 
C 1862 2764 2176 2464 2176 2124 
L 2176 652 
z
" id="NimbusRomNo9L-Regu-64" transform="scale(0.015625)"/>
      </defs>
      <use transform="scale(0.996264)" xlink:href="#NimbusRomNo9L-Regu-45"/>
      <use transform="translate(60.871631 0)scale(0.996264)" xlink:href="#NimbusRomNo9L-Regu-71"/>
      <use transform="translate(110.684831 0)scale(0.996264)" xlink:href="#NimbusRomNo9L-Regu-75"/>
      <use transform="translate(160.498032 0)scale(0.996264)" xlink:href="#NimbusRomNo9L-Regu-69"/>
      <use transform="translate(188.193201 0)scale(0.996264)" xlink:href="#NimbusRomNo9L-Regu-6c"/>
      <use transform="translate(215.888371 0)scale(0.996264)" xlink:href="#NimbusRomNo9L-Regu-69"/>
      <use transform="translate(243.58354 0)scale(0.996264)" xlink:href="#NimbusRomNo9L-Regu-62"/>
      <use transform="translate(293.396741 0)scale(0.996264)" xlink:href="#NimbusRomNo9L-Regu-72"/>
      <use transform="translate(326.571971 0)scale(0.996264)" xlink:href="#NimbusRomNo9L-Regu-69"/>
      <use transform="translate(354.26714 0)scale(0.996264)" xlink:href="#NimbusRomNo9L-Regu-75"/>
      <use transform="translate(404.080341 0)scale(0.996264)" xlink:href="#NimbusRomNo9L-Regu-6d"/>
      <use transform="translate(506.495311 0)scale(0.996264)" xlink:href="#NimbusRomNo9L-Regu-70"/>
      <use transform="translate(556.308512 0)scale(0.996264)" xlink:href="#NimbusRomNo9L-Regu-72"/>
      <use transform="translate(589.483741 0)scale(0.996264)" xlink:href="#NimbusRomNo9L-Regu-6f"/>
      <use transform="translate(639.296942 0)scale(0.996264)" xlink:href="#NimbusRomNo9L-Regu-70"/>
      <use transform="translate(689.110142 0)scale(0.996264)" xlink:href="#NimbusRomNo9L-Regu-6f"/>
      <use transform="translate(738.923343 0)scale(0.996264)" xlink:href="#NimbusRomNo9L-Regu-72"/>
      <use transform="translate(772.098573 0)scale(0.996264)" xlink:href="#NimbusRomNo9L-Regu-74"/>
      <use transform="translate(799.793742 0)scale(0.996264)" xlink:href="#NimbusRomNo9L-Regu-69"/>
      <use transform="translate(827.488912 0)scale(0.996264)" xlink:href="#NimbusRomNo9L-Regu-6f"/>
      <use transform="translate(877.302112 0)scale(0.996264)" xlink:href="#NimbusRomNo9L-Regu-6e"/>
      <use transform="translate(952.021913 0)scale(0.996264)" xlink:href="#NimbusRomNo9L-Regu-6f"/>
      <use transform="translate(1001.835114 0)scale(0.996264)" xlink:href="#NimbusRomNo9L-Regu-66"/>
      <use transform="translate(1059.916944 0)scale(0.996264)" xlink:href="#NimbusRomNo9L-Regu-65"/>
      <use transform="translate(1101.659883 0)scale(0.996264)" xlink:href="#NimbusRomNo9L-Regu-76"/>
      <use transform="translate(1148.982453 0)scale(0.996264)" xlink:href="#NimbusRomNo9L-Regu-61"/>
      <use transform="translate(1193.216022 0)scale(0.996264)" xlink:href="#NimbusRomNo9L-Regu-64"/>
      <use transform="translate(1243.029223 0)scale(0.996264)" xlink:href="#NimbusRomNo9L-Regu-65"/>
      <use transform="translate(1287.262791 0)scale(0.996264)" xlink:href="#NimbusRomNo9L-Regu-72"/>
      <use transform="translate(1320.438021 0)scale(0.996264)" xlink:href="#NimbusRomNo9L-Regu-73"/>
     </g>
    </g>
    <g id="line2d_19">
     <path d="M 211.953365 166.371171 
L 231.953365 166.371171 
" style="fill:none;stroke:#000000;stroke-linecap:square;stroke-width:1.5;"/>
    </g>
    <g id="line2d_20"/>
    <g id="text_15">
     <!-- Equilibrium proportion of optimisers -->
     <g transform="translate(239.953365 169.871171)scale(0.1 -0.1)">
      <use transform="scale(0.996264)" xlink:href="#NimbusRomNo9L-Regu-45"/>
      <use transform="translate(60.871631 0)scale(0.996264)" xlink:href="#NimbusRomNo9L-Regu-71"/>
      <use transform="translate(110.684831 0)scale(0.996264)" xlink:href="#NimbusRomNo9L-Regu-75"/>
      <use transform="translate(160.498032 0)scale(0.996264)" xlink:href="#NimbusRomNo9L-Regu-69"/>
      <use transform="translate(188.193201 0)scale(0.996264)" xlink:href="#NimbusRomNo9L-Regu-6c"/>
      <use transform="translate(215.888371 0)scale(0.996264)" xlink:href="#NimbusRomNo9L-Regu-69"/>
      <use transform="translate(243.58354 0)scale(0.996264)" xlink:href="#NimbusRomNo9L-Regu-62"/>
      <use transform="translate(293.396741 0)scale(0.996264)" xlink:href="#NimbusRomNo9L-Regu-72"/>
      <use transform="translate(326.571971 0)scale(0.996264)" xlink:href="#NimbusRomNo9L-Regu-69"/>
      <use transform="translate(354.26714 0)scale(0.996264)" xlink:href="#NimbusRomNo9L-Regu-75"/>
      <use transform="translate(404.080341 0)scale(0.996264)" xlink:href="#NimbusRomNo9L-Regu-6d"/>
      <use transform="translate(506.495311 0)scale(0.996264)" xlink:href="#NimbusRomNo9L-Regu-70"/>
      <use transform="translate(556.308512 0)scale(0.996264)" xlink:href="#NimbusRomNo9L-Regu-72"/>
      <use transform="translate(589.483741 0)scale(0.996264)" xlink:href="#NimbusRomNo9L-Regu-6f"/>
      <use transform="translate(639.296942 0)scale(0.996264)" xlink:href="#NimbusRomNo9L-Regu-70"/>
      <use transform="translate(689.110142 0)scale(0.996264)" xlink:href="#NimbusRomNo9L-Regu-6f"/>
      <use transform="translate(738.923343 0)scale(0.996264)" xlink:href="#NimbusRomNo9L-Regu-72"/>
      <use transform="translate(772.098573 0)scale(0.996264)" xlink:href="#NimbusRomNo9L-Regu-74"/>
      <use transform="translate(799.793742 0)scale(0.996264)" xlink:href="#NimbusRomNo9L-Regu-69"/>
      <use transform="translate(827.488912 0)scale(0.996264)" xlink:href="#NimbusRomNo9L-Regu-6f"/>
      <use transform="translate(877.302112 0)scale(0.996264)" xlink:href="#NimbusRomNo9L-Regu-6e"/>
      <use transform="translate(952.021913 0)scale(0.996264)" xlink:href="#NimbusRomNo9L-Regu-6f"/>
      <use transform="translate(1001.835114 0)scale(0.996264)" xlink:href="#NimbusRomNo9L-Regu-66"/>
      <use transform="translate(1059.916944 0)scale(0.996264)" xlink:href="#NimbusRomNo9L-Regu-6f"/>
      <use transform="translate(1109.730144 0)scale(0.996264)" xlink:href="#NimbusRomNo9L-Regu-70"/>
      <use transform="translate(1159.543345 0)scale(0.996264)" xlink:href="#NimbusRomNo9L-Regu-74"/>
      <use transform="translate(1187.238514 0)scale(0.996264)" xlink:href="#NimbusRomNo9L-Regu-69"/>
      <use transform="translate(1214.933684 0)scale(0.996264)" xlink:href="#NimbusRomNo9L-Regu-6d"/>
      <use transform="translate(1292.442054 0)scale(0.996264)" xlink:href="#NimbusRomNo9L-Regu-69"/>
      <use transform="translate(1320.137223 0)scale(0.996264)" xlink:href="#NimbusRomNo9L-Regu-73"/>
      <use transform="translate(1358.89093 0)scale(0.996264)" xlink:href="#NimbusRomNo9L-Regu-65"/>
      <use transform="translate(1403.124498 0)scale(0.996264)" xlink:href="#NimbusRomNo9L-Regu-72"/>
      <use transform="translate(1436.299728 0)scale(0.996264)" xlink:href="#NimbusRomNo9L-Regu-73"/>
     </g>
    </g>
    <g id="line2d_21">
     <path d="M 211.953365 180.528 
L 231.953365 180.528 
" style="fill:none;stroke:#808080;stroke-dasharray:5.55,2.4;stroke-dashoffset:0;stroke-width:1.5;"/>
    </g>
    <g id="line2d_22"/>
    <g id="text_16">
     <!-- Equilibrium proportion of non-optimisers -->
     <g transform="translate(239.953365 184.028)scale(0.1 -0.1)">
      <defs>
       <path d="M 250 1664 
L 250 1260 
L 1824 1260 
L 1824 1664 
L 250 1664 
z
" id="NimbusRomNo9L-Regu-2d" transform="scale(0.015625)"/>
      </defs>
      <use transform="scale(0.996264)" xlink:href="#NimbusRomNo9L-Regu-45"/>
      <use transform="translate(60.871631 0)scale(0.996264)" xlink:href="#NimbusRomNo9L-Regu-71"/>
      <use transform="translate(110.684831 0)scale(0.996264)" xlink:href="#NimbusRomNo9L-Regu-75"/>
      <use transform="translate(160.498032 0)scale(0.996264)" xlink:href="#NimbusRomNo9L-Regu-69"/>
      <use transform="translate(188.193201 0)scale(0.996264)" xlink:href="#NimbusRomNo9L-Regu-6c"/>
      <use transform="translate(215.888371 0)scale(0.996264)" xlink:href="#NimbusRomNo9L-Regu-69"/>
      <use transform="translate(243.58354 0)scale(0.996264)" xlink:href="#NimbusRomNo9L-Regu-62"/>
      <use transform="translate(293.396741 0)scale(0.996264)" xlink:href="#NimbusRomNo9L-Regu-72"/>
      <use transform="translate(326.571971 0)scale(0.996264)" xlink:href="#NimbusRomNo9L-Regu-69"/>
      <use transform="translate(354.26714 0)scale(0.996264)" xlink:href="#NimbusRomNo9L-Regu-75"/>
      <use transform="translate(404.080341 0)scale(0.996264)" xlink:href="#NimbusRomNo9L-Regu-6d"/>
      <use transform="translate(506.495311 0)scale(0.996264)" xlink:href="#NimbusRomNo9L-Regu-70"/>
      <use transform="translate(556.308512 0)scale(0.996264)" xlink:href="#NimbusRomNo9L-Regu-72"/>
      <use transform="translate(589.483741 0)scale(0.996264)" xlink:href="#NimbusRomNo9L-Regu-6f"/>
      <use transform="translate(639.296942 0)scale(0.996264)" xlink:href="#NimbusRomNo9L-Regu-70"/>
      <use transform="translate(689.110142 0)scale(0.996264)" xlink:href="#NimbusRomNo9L-Regu-6f"/>
      <use transform="translate(738.923343 0)scale(0.996264)" xlink:href="#NimbusRomNo9L-Regu-72"/>
      <use transform="translate(772.098573 0)scale(0.996264)" xlink:href="#NimbusRomNo9L-Regu-74"/>
      <use transform="translate(799.793742 0)scale(0.996264)" xlink:href="#NimbusRomNo9L-Regu-69"/>
      <use transform="translate(827.488912 0)scale(0.996264)" xlink:href="#NimbusRomNo9L-Regu-6f"/>
      <use transform="translate(877.302112 0)scale(0.996264)" xlink:href="#NimbusRomNo9L-Regu-6e"/>
      <use transform="translate(952.021913 0)scale(0.996264)" xlink:href="#NimbusRomNo9L-Regu-6f"/>
      <use transform="translate(1001.835114 0)scale(0.996264)" xlink:href="#NimbusRomNo9L-Regu-66"/>
      <use transform="translate(1059.916944 0)scale(0.996264)" xlink:href="#NimbusRomNo9L-Regu-6e"/>
      <use transform="translate(1109.730144 0)scale(0.996264)" xlink:href="#NimbusRomNo9L-Regu-6f"/>
      <use transform="translate(1159.543345 0)scale(0.996264)" xlink:href="#NimbusRomNo9L-Regu-6e"/>
      <use transform="translate(1209.356545 0)scale(0.996264)" xlink:href="#NimbusRomNo9L-Regu-2d"/>
      <use transform="translate(1242.531775 0)scale(0.996264)" xlink:href="#NimbusRomNo9L-Regu-6f"/>
      <use transform="translate(1292.344975 0)scale(0.996264)" xlink:href="#NimbusRomNo9L-Regu-70"/>
      <use transform="translate(1342.158176 0)scale(0.996264)" xlink:href="#NimbusRomNo9L-Regu-74"/>
      <use transform="translate(1369.853345 0)scale(0.996264)" xlink:href="#NimbusRomNo9L-Regu-69"/>
      <use transform="translate(1397.548515 0)scale(0.996264)" xlink:href="#NimbusRomNo9L-Regu-6d"/>
      <use transform="translate(1475.056885 0)scale(0.996264)" xlink:href="#NimbusRomNo9L-Regu-69"/>
      <use transform="translate(1502.752055 0)scale(0.996264)" xlink:href="#NimbusRomNo9L-Regu-73"/>
      <use transform="translate(1541.505761 0)scale(0.996264)" xlink:href="#NimbusRomNo9L-Regu-65"/>
      <use transform="translate(1585.73933 0)scale(0.996264)" xlink:href="#NimbusRomNo9L-Regu-72"/>
      <use transform="translate(1618.914559 0)scale(0.996264)" xlink:href="#NimbusRomNo9L-Regu-73"/>
     </g>
    </g>
    <g id="line2d_23">
     <path d="M 211.953365 194.684829 
L 231.953365 194.684829 
" style="fill:none;stroke:#808080;stroke-dasharray:1.5,2.475;stroke-dashoffset:0;stroke-width:1.5;"/>
    </g>
    <g id="line2d_24"/>
    <g id="text_17">
     <!-- Equilibrium effective tax rate -->
     <g transform="translate(239.953365 198.184829)scale(0.1 -0.1)">
      <defs>
       <path d="M 2547 998 
C 2240 550 2010 396 1645 396 
C 1062 396 653 908 653 1644 
C 653 2303 1005 2758 1523 2758 
C 1754 2758 1837 2687 1901 2451 
L 1939 2310 
C 1990 2131 2106 2015 2240 2015 
C 2406 2015 2547 2137 2547 2284 
C 2547 2643 2099 2944 1562 2944 
C 1248 2944 922 2815 659 2585 
C 339 2303 160 1868 160 1363 
C 160 531 666 -64 1376 -64 
C 1664 -64 1920 38 2150 236 
C 2323 390 2445 563 2637 940 
L 2547 998 
z
" id="NimbusRomNo9L-Regu-63" transform="scale(0.015625)"/>
       <path d="M 1779 0 
L 3066 0 
L 3066 96 
C 2867 96 2739 198 2541 480 
L 1722 1734 
L 2253 2502 
C 2374 2675 2566 2777 2771 2783 
L 2771 2880 
L 1760 2880 
L 1760 2783 
C 1952 2771 2016 2732 2016 2643 
C 2016 2566 1939 2425 1779 2227 
C 1747 2188 1670 2073 1587 1945 
L 1498 2073 
C 1318 2342 1203 2560 1203 2643 
C 1203 2732 1286 2777 1478 2783 
L 1478 2880 
L 154 2880 
L 154 2783 
L 211 2783 
C 403 2783 506 2700 704 2400 
L 1306 1478 
L 576 422 
C 384 160 320 115 109 96 
L 109 0 
L 1037 0 
L 1037 96 
C 858 96 781 128 781 211 
C 781 249 826 345 909 473 
L 1414 1260 
L 1997 364 
C 2022 326 2035 288 2035 249 
C 2035 134 1990 108 1779 96 
L 1779 0 
z
" id="NimbusRomNo9L-Regu-78" transform="scale(0.015625)"/>
      </defs>
      <use transform="scale(0.996264)" xlink:href="#NimbusRomNo9L-Regu-45"/>
      <use transform="translate(60.871631 0)scale(0.996264)" xlink:href="#NimbusRomNo9L-Regu-71"/>
      <use transform="translate(110.684831 0)scale(0.996264)" xlink:href="#NimbusRomNo9L-Regu-75"/>
      <use transform="translate(160.498032 0)scale(0.996264)" xlink:href="#NimbusRomNo9L-Regu-69"/>
      <use transform="translate(188.193201 0)scale(0.996264)" xlink:href="#NimbusRomNo9L-Regu-6c"/>
      <use transform="translate(215.888371 0)scale(0.996264)" xlink:href="#NimbusRomNo9L-Regu-69"/>
      <use transform="translate(243.58354 0)scale(0.996264)" xlink:href="#NimbusRomNo9L-Regu-62"/>
      <use transform="translate(293.396741 0)scale(0.996264)" xlink:href="#NimbusRomNo9L-Regu-72"/>
      <use transform="translate(326.571971 0)scale(0.996264)" xlink:href="#NimbusRomNo9L-Regu-69"/>
      <use transform="translate(354.26714 0)scale(0.996264)" xlink:href="#NimbusRomNo9L-Regu-75"/>
      <use transform="translate(404.080341 0)scale(0.996264)" xlink:href="#NimbusRomNo9L-Regu-6d"/>
      <use transform="translate(506.495311 0)scale(0.996264)" xlink:href="#NimbusRomNo9L-Regu-65"/>
      <use transform="translate(550.72888 0)scale(0.996264)" xlink:href="#NimbusRomNo9L-Regu-66"/>
      <use transform="translate(581.41348 0)scale(0.996264)" xlink:href="#NimbusRomNo9L-Regu-66"/>
      <use transform="translate(614.588527 0)scale(0.996264)" xlink:href="#NimbusRomNo9L-Regu-65"/>
      <use transform="translate(658.822096 0)scale(0.996264)" xlink:href="#NimbusRomNo9L-Regu-63"/>
      <use transform="translate(703.055665 0)scale(0.996264)" xlink:href="#NimbusRomNo9L-Regu-74"/>
      <use transform="translate(730.750834 0)scale(0.996264)" xlink:href="#NimbusRomNo9L-Regu-69"/>
      <use transform="translate(755.955374 0)scale(0.996264)" xlink:href="#NimbusRomNo9L-Regu-76"/>
      <use transform="translate(804.275182 0)scale(0.996264)" xlink:href="#NimbusRomNo9L-Regu-65"/>
      <use transform="translate(873.415351 0)scale(0.996264)" xlink:href="#NimbusRomNo9L-Regu-74"/>
      <use transform="translate(901.110521 0)scale(0.996264)" xlink:href="#NimbusRomNo9L-Regu-61"/>
      <use transform="translate(945.344089 0)scale(0.996264)" xlink:href="#NimbusRomNo9L-Regu-78"/>
      <use transform="translate(1020.06389 0)scale(0.996264)" xlink:href="#NimbusRomNo9L-Regu-72"/>
      <use transform="translate(1053.23912 0)scale(0.996264)" xlink:href="#NimbusRomNo9L-Regu-61"/>
      <use transform="translate(1097.472688 0)scale(0.996264)" xlink:href="#NimbusRomNo9L-Regu-74"/>
      <use transform="translate(1125.167858 0)scale(0.996264)" xlink:href="#NimbusRomNo9L-Regu-65"/>
     </g>
    </g>
   </g>
  </g>
 </g>
 <defs>
  <clipPath id="p3b406b62bb">
   <rect height="266.112" width="357.12" x="57.6" y="41.472"/>
  </clipPath>
 </defs>
</svg>
