<?xml version="1.0" encoding="utf-8" standalone="no"?>
<!DOCTYPE svg PUBLIC "-//W3C//DTD SVG 1.1//EN"
  "http://www.w3.org/Graphics/SVG/1.1/DTD/svg11.dtd">
<svg height="345.6pt" version="1.1" viewBox="0 0 460.8 345.6" width="460.8pt" xmlns="http://www.w3.org/2000/svg" xmlns:xlink="http://www.w3.org/1999/xlink">
 <metadata>
  <rdf:RDF xmlns:cc="http://creativecommons.org/ns#" xmlns:dc="http://purl.org/dc/elements/1.1/" xmlns:rdf="http://www.w3.org/1999/02/22-rdf-syntax-ns#">
   <cc:Work>
    <dc:type rdf:resource="http://purl.org/dc/dcmitype/StillImage"/>
    <dc:date>2023-05-30T10:36:59.484005</dc:date>
    <dc:format>image/svg+xml</dc:format>
    <dc:creator>
     <cc:Agent>
      <dc:title>Matplotlib v3.4.3, https://matplotlib.org/</dc:title>
     </cc:Agent>
    </dc:creator>
   </cc:Work>
  </rdf:RDF>
 </metadata>
 <defs>
  <style type="text/css">*{stroke-linecap:butt;stroke-linejoin:round;}</style>
 </defs>
 <g id="figure_1">
  <g id="patch_1">
   <path d="M 0 345.6 
L 460.8 345.6 
L 460.8 0 
L 0 0 
z
" style="fill:#ffffff;"/>
  </g>
  <g id="axes_1">
   <g id="patch_2">
    <path d="M 57.6 307.584 
L 414.72 307.584 
L 414.72 41.472 
L 57.6 41.472 
z
" style="fill:#ffffff;"/>
   </g>
   <g id="matplotlib.axis_1">
    <g id="xtick_1">
     <g id="line2d_1">
      <defs>
       <path d="M 0 0 
L 0 3.5 
" id="mbc4194999f" style="stroke:#000000;stroke-width:0.8;"/>
      </defs>
      <g>
       <use style="stroke:#000000;stroke-width:0.8;" x="67.207124" xlink:href="#mbc4194999f" y="307.584"/>
      </g>
     </g>
     <g id="text_1">
      <!-- $\mathdefault{0}$ -->
      <g transform="translate(64.716464 321.338578)scale(0.1 -0.1)">
       <defs>
        <path d="M 1626 4352 
C 1274 4352 1005 4243 768 4019 
C 397 3661 154 2924 154 2176 
C 154 1478 365 729 666 371 
C 902 89 1229 -64 1600 -64 
C 1926 -64 2202 44 2432 268 
C 2803 620 3046 1363 3046 2137 
C 3046 3449 2464 4352 1626 4352 
z
M 1606 4185 
C 2144 4185 2432 3462 2432 2124 
C 2432 787 2150 102 1600 102 
C 1050 102 768 787 768 2118 
C 768 3475 1056 4185 1606 4185 
z
" id="NimbusRomNo9L-Regu-30" transform="scale(0.015625)"/>
       </defs>
       <use transform="scale(0.996264)" xlink:href="#NimbusRomNo9L-Regu-30"/>
      </g>
     </g>
    </g>
    <g id="xtick_2">
     <g id="line2d_2">
      <g>
       <use style="stroke:#000000;stroke-width:0.8;" x="133.463154" xlink:href="#mbc4194999f" y="307.584"/>
      </g>
     </g>
     <g id="text_2">
      <!-- $\mathdefault{20}$ -->
      <g transform="translate(128.481834 321.338578)scale(0.1 -0.1)">
       <defs>
        <path d="M 3040 879 
L 2957 912 
C 2720 544 2637 486 2349 486 
L 819 486 
L 1894 1621 
C 2464 2221 2714 2711 2714 3214 
C 2714 3858 2195 4352 1530 4352 
C 1178 4352 845 4211 608 3955 
C 403 3736 307 3530 198 3072 
L 333 3039 
C 589 3671 819 3878 1261 3878 
C 1798 3878 2163 3510 2163 2969 
C 2163 2466 1869 1866 1331 1292 
L 192 76 
L 192 0 
L 2688 0 
L 3040 879 
z
" id="NimbusRomNo9L-Regu-32" transform="scale(0.015625)"/>
       </defs>
       <use transform="scale(0.996264)" xlink:href="#NimbusRomNo9L-Regu-32"/>
       <use transform="translate(49.8132 0)scale(0.996264)" xlink:href="#NimbusRomNo9L-Regu-30"/>
      </g>
     </g>
    </g>
    <g id="xtick_3">
     <g id="line2d_3">
      <g>
       <use style="stroke:#000000;stroke-width:0.8;" x="199.719184" xlink:href="#mbc4194999f" y="307.584"/>
      </g>
     </g>
     <g id="text_3">
      <!-- $\mathdefault{40}$ -->
      <g transform="translate(194.737864 321.338578)scale(0.1 -0.1)">
       <defs>
        <path d="M 3021 1497 
L 2368 1497 
L 2368 4352 
L 2086 4352 
L 77 1497 
L 77 1088 
L 1875 1088 
L 1875 0 
L 2368 0 
L 2368 1088 
L 3021 1088 
L 3021 1497 
z
M 1869 1497 
L 333 1497 
L 1869 3697 
L 1869 1497 
z
" id="NimbusRomNo9L-Regu-34" transform="scale(0.015625)"/>
       </defs>
       <use transform="scale(0.996264)" xlink:href="#NimbusRomNo9L-Regu-34"/>
       <use transform="translate(49.8132 0)scale(0.996264)" xlink:href="#NimbusRomNo9L-Regu-30"/>
      </g>
     </g>
    </g>
    <g id="xtick_4">
     <g id="line2d_4">
      <g>
       <use style="stroke:#000000;stroke-width:0.8;" x="265.975213" xlink:href="#mbc4194999f" y="307.584"/>
      </g>
     </g>
     <g id="text_4">
      <!-- $\mathdefault{60}$ -->
      <g transform="translate(260.993893 321.338578)scale(0.1 -0.1)">
       <defs>
        <path d="M 2854 4390 
C 2125 4326 1754 4204 1286 3878 
C 595 3385 218 2655 218 1801 
C 218 1248 390 688 666 369 
C 909 89 1254 -64 1651 -64 
C 2445 -64 2995 541 2995 1420 
C 2995 2234 2528 2752 1792 2752 
C 1510 2752 1376 2707 973 2463 
C 1146 3430 1862 4121 2867 4288 
L 2854 4390 
z
M 1549 2457 
C 2099 2457 2419 1999 2419 1203 
C 2419 503 2170 115 1722 115 
C 1158 115 813 713 813 1700 
C 813 2024 864 2203 992 2298 
C 1126 2400 1325 2457 1549 2457 
z
" id="NimbusRomNo9L-Regu-36" transform="scale(0.015625)"/>
       </defs>
       <use transform="scale(0.996264)" xlink:href="#NimbusRomNo9L-Regu-36"/>
       <use transform="translate(49.8132 0)scale(0.996264)" xlink:href="#NimbusRomNo9L-Regu-30"/>
      </g>
     </g>
    </g>
    <g id="xtick_5">
     <g id="line2d_5">
      <g>
       <use style="stroke:#000000;stroke-width:0.8;" x="332.231243" xlink:href="#mbc4194999f" y="307.584"/>
      </g>
     </g>
     <g id="text_5">
      <!-- $\mathdefault{80}$ -->
      <g transform="translate(327.249923 321.338578)scale(0.1 -0.1)">
       <defs>
        <path d="M 1856 2400 
C 2490 2739 2714 3008 2714 3443 
C 2714 3968 2253 4352 1613 4352 
C 915 4352 397 3923 397 3341 
C 397 2924 518 2739 1190 2150 
C 499 1625 358 1427 358 992 
C 358 371 864 -64 1587 -64 
C 2355 -64 2848 358 2848 1017 
C 2848 1510 2630 1824 1856 2400 
z
M 1741 1740 
C 2208 1408 2362 1177 2362 819 
C 2362 403 2074 115 1658 115 
C 1171 115 845 486 845 1043 
C 845 1452 986 1721 1357 2022 
L 1741 1740 
z
M 1670 2515 
C 1101 2886 870 3180 870 3539 
C 870 3910 1158 4172 1562 4172 
C 1997 4172 2272 3891 2272 3449 
C 2272 3084 2093 2796 1728 2553 
C 1696 2534 1696 2534 1670 2515 
z
" id="NimbusRomNo9L-Regu-38" transform="scale(0.015625)"/>
       </defs>
       <use transform="scale(0.996264)" xlink:href="#NimbusRomNo9L-Regu-38"/>
       <use transform="translate(49.8132 0)scale(0.996264)" xlink:href="#NimbusRomNo9L-Regu-30"/>
      </g>
     </g>
    </g>
    <g id="xtick_6">
     <g id="line2d_6">
      <g>
       <use style="stroke:#000000;stroke-width:0.8;" x="398.487273" xlink:href="#mbc4194999f" y="307.584"/>
      </g>
     </g>
     <g id="text_6">
      <!-- $\mathdefault{100}$ -->
      <g transform="translate(391.015293 321.338578)scale(0.1 -0.1)">
       <defs>
        <path d="M 1862 4352 
L 710 3776 
L 710 3686 
C 787 3718 858 3743 883 3756 
C 998 3801 1107 3826 1171 3826 
C 1306 3826 1363 3731 1363 3525 
L 1363 599 
C 1363 386 1312 238 1210 179 
C 1114 121 1024 102 755 96 
L 755 0 
L 2522 0 
L 2522 96 
C 2016 102 1914 167 1914 477 
L 1914 4339 
L 1862 4352 
z
" id="NimbusRomNo9L-Regu-31" transform="scale(0.015625)"/>
       </defs>
       <use transform="scale(0.996264)" xlink:href="#NimbusRomNo9L-Regu-31"/>
       <use transform="translate(49.8132 0)scale(0.996264)" xlink:href="#NimbusRomNo9L-Regu-30"/>
       <use transform="translate(99.626401 0)scale(0.996264)" xlink:href="#NimbusRomNo9L-Regu-30"/>
      </g>
     </g>
    </g>
    <g id="text_7">
     <!-- Number of Neighbors -->
     <g transform="translate(192.44425 334.249984)scale(0.1 -0.1)">
      <defs>
       <path d="M 3917 -64 
L 3917 3287 
C 3917 3669 3981 3905 4102 3988 
C 4192 4051 4282 4077 4525 4102 
L 4525 4224 
L 3021 4224 
L 3021 4102 
C 3264 4083 3354 4058 3450 4000 
C 3578 3911 3635 3682 3635 3287 
L 3635 1140 
L 1171 4224 
L 77 4224 
L 77 4102 
C 352 4102 442 4051 698 3752 
L 698 943 
C 698 281 608 160 77 121 
L 77 0 
L 1581 0 
L 1581 121 
C 1088 147 979 294 979 940 
L 979 3449 
L 3808 -64 
L 3917 -64 
z
" id="NimbusRomNo9L-Regu-4e" transform="scale(0.015625)"/>
       <path d="M 3066 319 
L 3034 319 
C 2739 319 2669 390 2669 684 
L 2669 2880 
L 1658 2880 
L 1658 2771 
C 2054 2752 2131 2688 2131 2368 
L 2131 864 
C 2131 684 2099 595 2010 524 
C 1837 384 1638 307 1446 307 
C 1197 307 992 524 992 793 
L 992 2880 
L 58 2880 
L 58 2790 
C 365 2771 454 2675 454 2380 
L 454 768 
C 454 262 762 -64 1229 -64 
C 1466 -64 1715 38 1888 211 
L 2163 486 
L 2163 -45 
L 2189 -64 
C 2509 64 2739 134 3066 224 
L 3066 319 
z
" id="NimbusRomNo9L-Regu-75" transform="scale(0.015625)"/>
       <path d="M 122 2547 
C 205 2566 256 2572 326 2572 
C 493 2572 550 2470 550 2163 
L 550 544 
C 550 198 461 102 102 96 
L 102 0 
L 1523 0 
L 1523 96 
C 1184 108 1088 179 1088 428 
L 1088 2233 
C 1088 2246 1139 2310 1184 2355 
C 1344 2502 1619 2611 1843 2611 
C 2125 2611 2266 2387 2266 1939 
L 2266 550 
C 2266 192 2195 121 1830 96 
L 1830 0 
L 3264 0 
L 3264 96 
C 2899 102 2803 211 2803 608 
L 2803 2220 
C 2995 2496 3206 2611 3501 2611 
C 3866 2611 3981 2438 3981 1907 
L 3981 556 
C 3981 192 3930 140 3558 96 
L 3558 0 
L 4960 0 
L 4960 96 
L 4794 108 
C 4602 121 4518 236 4518 486 
L 4518 1804 
C 4518 2560 4269 2944 3776 2944 
C 3405 2944 3078 2777 2733 2406 
C 2618 2771 2400 2944 2054 2944 
C 1773 2944 1594 2854 1062 2451 
L 1062 2931 
L 1018 2944 
C 691 2822 474 2751 122 2655 
L 122 2547 
z
" id="NimbusRomNo9L-Regu-6d" transform="scale(0.015625)"/>
       <path d="M 979 4358 
L 947 4371 
C 678 4275 506 4224 205 4140 
L 19 4089 
L 19 3987 
C 58 3993 83 3993 128 3993 
C 384 3993 442 3936 442 3667 
L 442 345 
C 442 147 986 -64 1498 -64 
C 2342 -64 2995 639 2995 1555 
C 2995 2342 2509 2944 1869 2944 
C 1478 2944 1107 2713 979 2399 
L 979 4358 
z
M 979 2060 
C 979 2310 1280 2540 1613 2540 
C 2112 2540 2432 2041 2432 1260 
C 2432 550 2125 140 1600 140 
C 1267 140 979 287 979 447 
L 979 2060 
z
" id="NimbusRomNo9L-Regu-62" transform="scale(0.015625)"/>
       <path d="M 2611 1052 
C 2304 564 2029 377 1619 377 
C 1254 377 979 564 794 930 
C 678 1174 634 1386 621 1779 
L 2592 1779 
C 2541 2193 2477 2377 2317 2580 
C 2125 2809 1830 2944 1498 2944 
C 1178 2944 877 2828 634 2612 
C 333 2351 160 1900 160 1374 
C 160 486 621 -64 1357 -64 
C 1965 -64 2445 313 2714 1007 
L 2611 1052 
z
M 634 1984 
C 704 2478 922 2713 1312 2713 
C 1702 2713 1856 2535 1939 1984 
L 634 1984 
z
" id="NimbusRomNo9L-Regu-65" transform="scale(0.015625)"/>
       <path d="M 45 2496 
C 134 2515 192 2521 269 2521 
C 429 2521 486 2419 486 2137 
L 486 537 
C 486 217 442 172 32 96 
L 32 0 
L 1568 0 
L 1568 96 
C 1133 115 1024 211 1024 576 
L 1024 2016 
C 1024 2220 1299 2540 1472 2540 
C 1510 2540 1568 2508 1638 2444 
C 1741 2355 1811 2316 1894 2316 
C 2048 2316 2144 2425 2144 2604 
C 2144 2815 2010 2944 1792 2944 
C 1523 2944 1338 2796 1024 2342 
L 1024 2931 
L 992 2944 
C 653 2803 422 2720 45 2598 
L 45 2496 
z
" id="NimbusRomNo9L-Regu-72" transform="scale(0.015625)"/>
       <path d="M 1600 2944 
C 768 2944 186 2329 186 1446 
C 186 582 781 -64 1587 -64 
C 2394 -64 3008 614 3008 1497 
C 3008 2336 2419 2944 1600 2944 
z
M 1517 2764 
C 2054 2764 2432 2150 2432 1273 
C 2432 550 2144 115 1664 115 
C 1414 115 1178 268 1043 524 
C 864 857 762 1305 762 1760 
C 762 2368 1062 2764 1517 2764 
z
" id="NimbusRomNo9L-Regu-6f" transform="scale(0.015625)"/>
       <path d="M 1978 2880 
L 1190 2880 
L 1190 3611 
C 1190 3977 1312 4172 1555 4172 
C 1690 4172 1779 4109 1894 3926 
C 1997 3762 2074 3699 2182 3699 
C 2330 3699 2451 3813 2451 3958 
C 2451 4185 2170 4352 1786 4352 
C 1389 4352 1050 4179 883 3889 
C 717 3611 666 3384 659 2880 
L 134 2880 
L 134 2675 
L 659 2675 
L 659 665 
C 659 198 589 121 128 96 
L 128 0 
L 1792 0 
L 1792 96 
C 1267 115 1197 185 1197 665 
L 1197 2675 
L 1978 2675 
L 1978 2880 
z
" id="NimbusRomNo9L-Regu-66" transform="scale(0.015625)"/>
       <path d="M 1120 2944 
L 128 2592 
L 128 2496 
L 179 2502 
C 256 2515 339 2521 397 2521 
C 550 2521 608 2419 608 2137 
L 608 652 
C 608 192 544 121 102 96 
L 102 0 
L 1619 0 
L 1619 96 
C 1197 128 1146 192 1146 652 
L 1146 2924 
L 1120 2944 
z
M 819 4352 
C 646 4352 499 4204 499 4025 
C 499 3846 640 3699 819 3699 
C 1005 3699 1152 3839 1152 4025 
C 1152 4204 1005 4352 819 4352 
z
" id="NimbusRomNo9L-Regu-69" transform="scale(0.015625)"/>
       <path d="M 3008 2438 
L 3008 2688 
L 2515 2688 
C 2387 2688 2291 2734 2163 2796 
L 2022 2847 
C 1850 2911 1677 2944 1510 2944 
C 915 2944 442 2438 442 1877 
C 442 1489 614 1255 1037 1049 
C 915 934 800 826 762 794 
C 550 610 467 483 467 356 
C 467 223 544 147 806 19 
C 352 -316 179 -529 179 -767 
C 179 -1108 678 -1389 1286 -1389 
C 1766 -1389 2266 -1223 2598 -954 
C 2842 -754 2950 -548 2950 -303 
C 2950 96 2650 363 2176 382 
L 1350 420 
C 1011 432 851 490 851 591 
C 851 718 1062 941 1235 992 
C 1293 985 1338 979 1357 979 
C 1478 966 1562 960 1600 960 
C 1837 960 2093 1056 2291 1224 
C 2502 1397 2598 1612 2598 1920 
C 2598 2099 2566 2241 2477 2438 
L 3008 2438 
z
M 941 0 
C 1152 -46 1664 -84 1978 -84 
C 2560 -84 2771 -168 2771 -400 
C 2771 -773 2285 -1024 1562 -1024 
C 998 -1024 627 -838 627 -554 
C 627 -406 672 -322 941 0 
z
M 973 2130 
C 973 2495 1152 2764 1446 2764 
C 1645 2764 1811 2611 1914 2419 
C 2029 2204 2106 1920 2106 1680 
C 2106 1335 1920 1120 1626 1120 
C 1242 1120 973 1520 973 2111 
L 973 2130 
z
" id="NimbusRomNo9L-Regu-67" transform="scale(0.015625)"/>
       <path d="M 1005 2195 
C 1274 2489 1466 2598 1715 2598 
C 2035 2598 2195 2368 2195 1920 
L 2195 652 
C 2195 217 2131 134 1760 96 
L 1760 0 
L 3117 0 
L 3117 96 
C 2771 160 2733 211 2733 652 
L 2733 1926 
C 2733 2598 2464 2944 1946 2944 
C 1568 2944 1299 2790 1005 2406 
L 1005 4352 
L 973 4371 
C 755 4294 595 4243 237 4140 
L 64 4089 
L 64 3987 
C 90 3993 109 3993 141 3993 
C 416 3993 467 3942 467 3667 
L 467 652 
C 467 204 429 147 58 96 
L 58 0 
L 1440 0 
L 1440 96 
C 1069 134 1005 211 1005 652 
L 1005 2195 
z
" id="NimbusRomNo9L-Regu-68" transform="scale(0.015625)"/>
       <path d="M 2016 2009 
L 1990 2880 
L 1920 2880 
L 1907 2867 
C 1850 2822 1843 2815 1818 2815 
C 1779 2815 1715 2828 1645 2860 
C 1504 2918 1363 2944 1197 2944 
C 691 2944 326 2617 326 2155 
C 326 1796 531 1539 1075 1231 
L 1446 1019 
C 1670 891 1779 737 1779 538 
C 1779 256 1574 76 1248 76 
C 1030 76 832 160 710 301 
C 576 461 518 609 435 974 
L 333 974 
L 333 -26 
L 416 -26 
C 461 38 486 51 563 51 
C 621 51 710 38 858 0 
C 1037 -39 1210 -64 1325 -64 
C 1818 -64 2227 307 2227 756 
C 2227 1077 2074 1289 1690 1520 
L 998 1930 
C 819 2033 723 2193 723 2366 
C 723 2623 922 2803 1216 2803 
C 1581 2803 1773 2585 1920 2014 
L 2016 2009 
z
" id="NimbusRomNo9L-Regu-73" transform="scale(0.015625)"/>
      </defs>
      <use transform="scale(0.996264)" xlink:href="#NimbusRomNo9L-Regu-4e"/>
      <use transform="translate(71.929985 0)scale(0.996264)" xlink:href="#NimbusRomNo9L-Regu-75"/>
      <use transform="translate(121.743185 0)scale(0.996264)" xlink:href="#NimbusRomNo9L-Regu-6d"/>
      <use transform="translate(199.251555 0)scale(0.996264)" xlink:href="#NimbusRomNo9L-Regu-62"/>
      <use transform="translate(249.064756 0)scale(0.996264)" xlink:href="#NimbusRomNo9L-Regu-65"/>
      <use transform="translate(293.298325 0)scale(0.996264)" xlink:href="#NimbusRomNo9L-Regu-72"/>
      <use transform="translate(351.380155 0)scale(0.996264)" xlink:href="#NimbusRomNo9L-Regu-6f"/>
      <use transform="translate(401.193355 0)scale(0.996264)" xlink:href="#NimbusRomNo9L-Regu-66"/>
      <use transform="translate(459.275185 0)scale(0.996264)" xlink:href="#NimbusRomNo9L-Regu-4e"/>
      <use transform="translate(531.20517 0)scale(0.996264)" xlink:href="#NimbusRomNo9L-Regu-65"/>
      <use transform="translate(575.438739 0)scale(0.996264)" xlink:href="#NimbusRomNo9L-Regu-69"/>
      <use transform="translate(603.133908 0)scale(0.996264)" xlink:href="#NimbusRomNo9L-Regu-67"/>
      <use transform="translate(652.947109 0)scale(0.996264)" xlink:href="#NimbusRomNo9L-Regu-68"/>
      <use transform="translate(702.760309 0)scale(0.996264)" xlink:href="#NimbusRomNo9L-Regu-62"/>
      <use transform="translate(752.57351 0)scale(0.996264)" xlink:href="#NimbusRomNo9L-Regu-6f"/>
      <use transform="translate(802.38671 0)scale(0.996264)" xlink:href="#NimbusRomNo9L-Regu-72"/>
      <use transform="translate(835.56194 0)scale(0.996264)" xlink:href="#NimbusRomNo9L-Regu-73"/>
     </g>
    </g>
   </g>
   <g id="matplotlib.axis_2">
    <g id="ytick_1">
     <g id="line2d_7">
      <defs>
       <path d="M 0 0 
L -3.5 0 
" id="m57f316112b" style="stroke:#000000;stroke-width:0.8;"/>
      </defs>
      <g>
       <use style="stroke:#000000;stroke-width:0.8;" x="57.6" xlink:href="#m57f316112b" y="307.584"/>
      </g>
     </g>
     <g id="text_8">
      <!-- $\mathdefault{0.0}$ -->
      <g transform="translate(37.877811 310.961289)scale(0.1 -0.1)">
       <defs>
        <path d="M 1229 339 
C 1229 524 1075 678 890 678 
C 704 678 550 524 550 339 
C 550 153 704 0 890 0 
C 1075 0 1229 153 1229 339 
z
" id="CMMI10-3a" transform="scale(0.015625)"/>
       </defs>
       <use transform="scale(0.996264)" xlink:href="#NimbusRomNo9L-Regu-30"/>
       <use transform="translate(49.8132 0)scale(0.996264)" xlink:href="#CMMI10-3a"/>
       <use transform="translate(77.408707 0)scale(0.996264)" xlink:href="#NimbusRomNo9L-Regu-30"/>
      </g>
     </g>
    </g>
    <g id="ytick_2">
     <g id="line2d_8">
      <g>
       <use style="stroke:#000000;stroke-width:0.8;" x="57.6" xlink:href="#m57f316112b" y="254.3616"/>
      </g>
     </g>
     <g id="text_9">
      <!-- $\mathdefault{0.2}$ -->
      <g transform="translate(37.877811 257.738889)scale(0.1 -0.1)">
       <use transform="scale(0.996264)" xlink:href="#NimbusRomNo9L-Regu-30"/>
       <use transform="translate(49.8132 0)scale(0.996264)" xlink:href="#CMMI10-3a"/>
       <use transform="translate(77.408707 0)scale(0.996264)" xlink:href="#NimbusRomNo9L-Regu-32"/>
      </g>
     </g>
    </g>
    <g id="ytick_3">
     <g id="line2d_9">
      <g>
       <use style="stroke:#000000;stroke-width:0.8;" x="57.6" xlink:href="#m57f316112b" y="201.1392"/>
      </g>
     </g>
     <g id="text_10">
      <!-- $\mathdefault{0.4}$ -->
      <g transform="translate(37.877811 204.516489)scale(0.1 -0.1)">
       <use transform="scale(0.996264)" xlink:href="#NimbusRomNo9L-Regu-30"/>
       <use transform="translate(49.8132 0)scale(0.996264)" xlink:href="#CMMI10-3a"/>
       <use transform="translate(77.408707 0)scale(0.996264)" xlink:href="#NimbusRomNo9L-Regu-34"/>
      </g>
     </g>
    </g>
    <g id="ytick_4">
     <g id="line2d_10">
      <g>
       <use style="stroke:#000000;stroke-width:0.8;" x="57.6" xlink:href="#m57f316112b" y="147.9168"/>
      </g>
     </g>
     <g id="text_11">
      <!-- $\mathdefault{0.6}$ -->
      <g transform="translate(37.877811 151.294089)scale(0.1 -0.1)">
       <use transform="scale(0.996264)" xlink:href="#NimbusRomNo9L-Regu-30"/>
       <use transform="translate(49.8132 0)scale(0.996264)" xlink:href="#CMMI10-3a"/>
       <use transform="translate(77.408707 0)scale(0.996264)" xlink:href="#NimbusRomNo9L-Regu-36"/>
      </g>
     </g>
    </g>
    <g id="ytick_5">
     <g id="line2d_11">
      <g>
       <use style="stroke:#000000;stroke-width:0.8;" x="57.6" xlink:href="#m57f316112b" y="94.6944"/>
      </g>
     </g>
     <g id="text_12">
      <!-- $\mathdefault{0.8}$ -->
      <g transform="translate(37.877811 98.071689)scale(0.1 -0.1)">
       <use transform="scale(0.996264)" xlink:href="#NimbusRomNo9L-Regu-30"/>
       <use transform="translate(49.8132 0)scale(0.996264)" xlink:href="#CMMI10-3a"/>
       <use transform="translate(77.408707 0)scale(0.996264)" xlink:href="#NimbusRomNo9L-Regu-38"/>
      </g>
     </g>
    </g>
    <g id="ytick_6">
     <g id="line2d_12">
      <g>
       <use style="stroke:#000000;stroke-width:0.8;" x="57.6" xlink:href="#m57f316112b" y="41.472"/>
      </g>
     </g>
     <g id="text_13">
      <!-- $\mathdefault{1.0}$ -->
      <g transform="translate(37.877811 44.849289)scale(0.1 -0.1)">
       <use transform="scale(0.996264)" xlink:href="#NimbusRomNo9L-Regu-31"/>
       <use transform="translate(49.8132 0)scale(0.996264)" xlink:href="#CMMI10-3a"/>
       <use transform="translate(77.408707 0)scale(0.996264)" xlink:href="#NimbusRomNo9L-Regu-30"/>
      </g>
     </g>
    </g>
   </g>
   <g id="line2d_13">
    <path clip-path="url(#p5dde75fdc4)" d="M 73.832727 306.024584 
L 77.145529 305.864916 
L 80.45833 306.056517 
L 83.771132 306.072484 
L 87.083933 306.120384 
L 90.396735 306.051195 
L 93.709536 305.928783 
L 97.022338 305.982006 
L 100.335139 305.870239 
L 103.647941 306.088451 
L 106.960742 306.184251 
L 110.273544 306.093773 
L 113.586345 306.067162 
L 116.899147 306.146995 
L 120.211948 305.99265 
L 123.52475 306.184251 
L 126.837551 305.982006 
L 130.150353 306.115062 
L 133.463154 306.083128 
L 136.775955 306.024584 
L 140.088757 305.125125 
L 143.401558 304.316145 
L 146.71436 303.906332 
L 150.027161 302.043548 
L 153.339963 297.365299 
L 156.652764 294.661601 
L 159.965566 293.527964 
L 163.278367 291.026511 
L 166.591169 274.745779 
L 169.90397 281.85097 
L 173.216772 266.969987 
L 176.529573 281.063278 
L 179.842375 248.555036 
L 183.155176 248.885015 
L 186.467978 248.432625 
L 189.780779 248.714703 
L 193.093581 241.678702 
L 196.406382 237.138831 
L 199.719184 228.000545 
L 203.031985 234.685279 
L 206.344787 231.630313 
L 209.657588 228.601958 
L 212.97039 220.52812 
L 216.283191 216.115983 
L 219.595993 215.929705 
L 222.908794 221.699013 
L 226.221596 213.279229 
L 229.534397 221.608535 
L 232.847199 213.486797 
L 236.16 214.875901 
L 239.472801 209.489795 
L 242.785603 210.373286 
L 246.098404 212.789583 
L 249.411206 208.302935 
L 252.724007 211.017277 
L 256.036809 211.283389 
L 259.34961 211.650624 
L 262.662412 210.080563 
L 265.975213 209.154493 
L 269.288015 208.233746 
L 272.600816 210.985344 
L 275.913618 211.400479 
L 279.226419 210.735199 
L 282.539221 208.840481 
L 285.852022 208.648881 
L 289.164824 210.437153 
L 292.477625 211.224845 
L 295.790427 211.78368 
L 299.103228 211.363223 
L 302.41603 208.90967 
L 305.728831 211.890125 
L 309.041633 211.549501 
L 312.354434 211.68788 
L 315.667236 211.868836 
L 318.980037 212.550083 
L 322.292839 210.953411 
L 325.60564 211.113078 
L 328.918442 211.075822 
L 332.231243 210.107174 
L 335.544045 212.417027 
L 338.856846 211.719813 
L 342.169647 211.576113 
L 345.482449 212.278648 
L 348.79525 211.086467 
L 352.108052 211.709169 
L 355.420853 210.697943 
L 358.733655 213.135529 
L 362.046456 211.78368 
L 365.359258 212.055114 
L 368.672059 212.70975 
L 371.984861 211.437734 
L 375.297662 213.476152 
L 378.610464 211.789002 
L 381.923265 213.811453 
L 385.236067 213.385674 
L 388.548868 213.92322 
L 391.86167 212.725716 
L 395.174471 212.667172 
L 398.487273 213.188751 
" style="fill:none;stroke:#808080;stroke-linecap:square;stroke-width:1.5;"/>
   </g>
   <g id="line2d_14">
    <path clip-path="url(#p5dde75fdc4)" d="M 73.832727 307.568033 
L 77.145529 307.562711 
L 80.45833 307.557389 
L 83.771132 307.541422 
L 87.083933 307.578678 
L 90.396735 307.584 
L 93.709536 307.584 
L 97.022338 307.584 
L 100.335139 307.584 
L 103.647941 307.584 
L 106.960742 307.584 
L 110.273544 307.584 
L 113.586345 307.584 
L 116.899147 307.584 
L 120.211948 307.584 
L 123.52475 307.578678 
L 126.837551 307.584 
L 130.150353 307.584 
L 133.463154 307.584 
L 136.775955 307.397722 
L 140.088757 306.391818 
L 143.401558 305.673316 
L 146.71436 304.816435 
L 150.027161 302.682217 
L 153.339963 297.221599 
L 156.652764 294.688212 
L 159.965566 292.564639 
L 163.278367 289.440484 
L 166.591169 271.265034 
L 169.90397 278.481992 
L 173.216772 261.434857 
L 176.529573 275.347192 
L 179.842375 233.253596 
L 183.155176 235.563448 
L 186.467978 231.225823 
L 189.780779 233.924198 
L 193.093581 226.87223 
L 196.406382 220.325875 
L 199.719184 204.10901 
L 203.031985 215.82326 
L 206.344787 211.272745 
L 209.657588 207.776033 
L 212.97039 196.333217 
L 216.283191 190.601165 
L 219.595993 186.396595 
L 222.908794 199.845896 
L 226.221596 180.605998 
L 229.534397 193.938209 
L 232.847199 181.63319 
L 236.16 183.474685 
L 239.472801 179.413816 
L 242.785603 180.850821 
L 246.098404 178.141801 
L 249.411206 174.325755 
L 252.724007 175.965005 
L 256.036809 175.608415 
L 259.34961 177.194442 
L 262.662412 177.09332 
L 265.975213 177.7107 
L 269.288015 174.21931 
L 272.600816 174.198021 
L 275.913618 175.704215 
L 279.226419 171.435779 
L 282.539221 173.319852 
L 285.852022 173.165507 
L 289.164824 171.872202 
L 292.477625 170.105219 
L 295.790427 174.394944 
L 299.103228 170.690665 
L 302.41603 173.394363 
L 305.728831 172.015903 
L 309.041633 170.105219 
L 312.354434 170.765176 
L 315.667236 170.01474 
L 318.980037 168.84917 
L 322.292839 170.914199 
L 325.60564 170.270208 
L 328.918442 170.206341 
L 332.231243 171.531579 
L 335.544045 173.005839 
L 338.856846 169.642184 
L 342.169647 169.631539 
L 345.482449 168.955615 
L 348.79525 170.706632 
L 352.108052 170.48842 
L 355.420853 171.164344 
L 358.733655 168.790625 
L 362.046456 169.636861 
L 365.359258 169.583639 
L 368.672059 168.093412 
L 371.984861 170.286175 
L 375.297662 168.098734 
L 378.610464 169.807173 
L 381.923265 167.124764 
L 385.236067 167.843267 
L 388.548868 167.976323 
L 391.86167 168.929004 
L 395.174471 168.987548 
L 398.487273 168.306301 
" style="fill:none;stroke:#000000;stroke-linecap:square;stroke-width:1.5;"/>
   </g>
   <g id="line2d_15">
    <path clip-path="url(#p5dde75fdc4)" d="M 73.832727 43.047383 
L 77.145529 43.212372 
L 80.45833 43.026094 
L 83.771132 43.026094 
L 87.083933 42.940938 
L 90.396735 43.004805 
L 93.709536 43.127217 
L 97.022338 43.073994 
L 100.335139 43.185761 
L 103.647941 42.967549 
L 106.960742 42.871749 
L 110.273544 42.962227 
L 113.586345 42.988838 
L 116.899147 42.909005 
L 120.211948 43.06335 
L 123.52475 42.877071 
L 126.837551 43.073994 
L 130.150353 42.940938 
L 133.463154 42.972872 
L 136.775955 43.217695 
L 140.088757 45.123057 
L 143.401558 46.65054 
L 146.71436 47.917233 
L 150.027161 51.914235 
L 153.339963 62.053102 
L 156.652764 67.290186 
L 159.965566 70.547397 
L 163.278367 76.173005 
L 166.591169 110.629187 
L 169.90397 96.307039 
L 173.216772 128.235156 
L 176.529573 100.22953 
L 179.842375 174.831368 
L 183.155176 172.191537 
L 186.467978 176.981553 
L 189.780779 174.001098 
L 193.093581 188.089068 
L 196.406382 199.175293 
L 199.719184 224.530445 
L 203.031985 206.131461 
L 206.344787 213.736942 
L 209.657588 220.262008 
L 212.97039 239.778662 
L 216.283191 249.922852 
L 219.595993 254.3137 
L 222.908794 235.095091 
L 226.221596 262.754772 
L 229.534397 241.093256 
L 232.847199 261.520013 
L 236.16 258.289413 
L 239.472801 267.736389 
L 242.785603 265.415892 
L 246.098404 265.708616 
L 249.411206 274.01131 
L 252.724007 269.657718 
L 256.036809 269.748196 
L 259.34961 267.794934 
L 262.662412 269.466117 
L 265.975213 269.774807 
L 269.288015 274.186944 
L 272.600816 271.456635 
L 275.913618 269.535306 
L 279.226419 274.469023 
L 282.539221 274.479667 
L 285.852022 274.825613 
L 289.164824 274.330644 
L 292.477625 275.309937 
L 295.790427 270.461376 
L 299.103228 274.586112 
L 302.41603 274.335967 
L 305.728831 272.733972 
L 309.041633 274.98528 
L 312.354434 274.186944 
L 315.667236 274.756424 
L 318.980037 275.240748 
L 322.292839 274.77239 
L 325.60564 275.256714 
L 328.918442 275.357837 
L 332.231243 275.001247 
L 335.544045 271.217134 
L 338.856846 275.278003 
L 342.169647 275.432348 
L 345.482449 275.405737 
L 348.79525 274.846902 
L 352.108052 274.442412 
L 355.420853 274.777713 
L 358.733655 274.713846 
L 362.046456 275.219459 
L 365.359258 275.001247 
L 368.672059 275.836838 
L 371.984861 274.916091 
L 375.297662 275.065114 
L 378.610464 275.043825 
L 381.923265 275.703782 
L 385.236067 275.411059 
L 388.548868 274.740457 
L 391.86167 274.98528 
L 395.174471 274.98528 
L 398.487273 275.144947 
" style="fill:none;stroke:#808080;stroke-dasharray:5.55,2.4;stroke-dashoffset:0;stroke-width:1.5;"/>
   </g>
   <g id="line2d_16">
    <path clip-path="url(#p5dde75fdc4)" d="M 73.832727 214.856865 
L 77.145529 214.929952 
L 80.45833 214.844014 
L 83.771132 214.866107 
L 87.083933 214.820984 
L 90.396735 214.81097 
L 93.709536 214.913423 
L 97.022338 214.877764 
L 100.335139 214.933914 
L 103.647941 214.814962 
L 106.960742 214.815494 
L 110.273544 214.762006 
L 113.586345 214.873506 
L 116.899147 214.828534 
L 120.211948 214.874039 
L 123.52475 214.781699 
L 126.837551 214.818155 
L 130.150353 214.856741 
L 133.463154 214.867918 
L 136.775955 214.862052 
L 140.088757 215.119791 
L 143.401558 215.322357 
L 146.71436 215.533369 
L 150.027161 216.083165 
L 153.339963 217.652917 
L 156.652764 218.585086 
L 159.965566 218.937647 
L 163.278367 219.729692 
L 166.591169 224.575888 
L 169.90397 222.532672 
L 173.216772 226.971249 
L 176.529573 222.442863 
L 179.842375 232.614848 
L 183.155176 232.4916 
L 186.467978 232.155679 
L 189.780779 232.273928 
L 193.093581 234.148984 
L 196.406382 235.415231 
L 199.719184 238.071292 
L 203.031985 235.698776 
L 206.344787 236.735305 
L 209.657588 237.144091 
L 212.97039 239.416193 
L 216.283191 240.385305 
L 219.595993 240.384648 
L 222.908794 238.672649 
L 226.221596 240.415469 
L 229.534397 238.602554 
L 232.847199 240.592247 
L 236.16 239.807063 
L 239.472801 241.183863 
L 242.785603 241.528458 
L 246.098404 239.687027 
L 249.411206 240.18633 
L 252.724007 239.428777 
L 256.036809 239.825056 
L 259.34961 239.348203 
L 262.662412 239.63251 
L 265.975213 239.519094 
L 269.288015 240.144827 
L 272.600816 238.942696 
L 275.913618 238.960828 
L 279.226419 238.898215 
L 282.539221 239.281543 
L 285.852022 238.901644 
L 289.164824 238.609857 
L 292.477625 238.045781 
L 295.790427 238.125412 
L 299.103228 237.957496 
L 302.41603 239.029993 
L 305.728831 237.588289 
L 309.041633 237.749751 
L 312.354434 237.678448 
L 315.667236 237.076017 
L 318.980037 236.948584 
L 322.292839 237.362886 
L 325.60564 237.279999 
L 328.918442 237.32274 
L 332.231243 236.741772 
L 335.544045 236.498642 
L 338.856846 236.69933 
L 342.169647 237.124471 
L 345.482449 236.393247 
L 348.79525 236.659877 
L 352.108052 236.946632 
L 355.420853 236.981712 
L 358.733655 236.407931 
L 362.046456 236.275767 
L 365.359258 235.748532 
L 368.672059 235.973702 
L 371.984861 235.563005 
L 375.297662 235.58227 
L 378.610464 235.495678 
L 381.923265 234.98171 
L 385.236067 234.829721 
L 388.548868 234.835001 
L 391.86167 235.052504 
L 395.174471 235.024947 
L 398.487273 234.999149 
" style="fill:none;stroke:#808080;stroke-dasharray:1.5,2.475;stroke-dashoffset:0;stroke-width:1.5;"/>
   </g>
   <g id="patch_3">
    <path d="M 57.6 307.584 
L 57.6 41.472 
" style="fill:none;stroke:#000000;stroke-linecap:square;stroke-linejoin:miter;stroke-width:0.8;"/>
   </g>
   <g id="patch_4">
    <path d="M 414.72 307.584 
L 414.72 41.472 
" style="fill:none;stroke:#000000;stroke-linecap:square;stroke-linejoin:miter;stroke-width:0.8;"/>
   </g>
   <g id="patch_5">
    <path d="M 57.6 307.584 
L 414.72 307.584 
" style="fill:none;stroke:#000000;stroke-linecap:square;stroke-linejoin:miter;stroke-width:0.8;"/>
   </g>
   <g id="patch_6">
    <path d="M 57.6 41.472 
L 414.72 41.472 
" style="fill:none;stroke:#000000;stroke-linecap:square;stroke-linejoin:miter;stroke-width:0.8;"/>
   </g>
   <g id="legend_1">
    <g id="patch_7">
     <path d="M 209.953365 106.099316 
L 407.72 106.099316 
Q 409.72 106.099316 409.72 104.099316 
L 409.72 48.472 
Q 409.72 46.472 407.72 46.472 
L 209.953365 46.472 
Q 207.953365 46.472 207.953365 48.472 
L 207.953365 104.099316 
Q 207.953365 106.099316 209.953365 106.099316 
z
" style="fill:#ffffff;opacity:0.8;stroke:#cccccc;stroke-linejoin:miter;"/>
    </g>
    <g id="line2d_17">
     <path d="M 211.953365 53.972 
L 231.953365 53.972 
" style="fill:none;stroke:#808080;stroke-linecap:square;stroke-width:1.5;"/>
    </g>
    <g id="line2d_18"/>
    <g id="text_14">
     <!-- Equilibrium proportion of evaders -->
     <g transform="translate(239.953365 57.472)scale(0.1 -0.1)">
      <defs>
       <path d="M 3821 1087 
L 3642 1087 
C 3322 391 3046 236 2131 236 
L 1958 236 
C 1645 236 1376 269 1331 314 
C 1299 333 1286 404 1286 513 
L 1286 2105 
L 2272 2105 
C 2797 2105 2893 2021 2976 1487 
L 3123 1487 
L 3123 2966 
L 2976 2966 
C 2931 2708 2906 2613 2835 2525 
C 2752 2418 2573 2368 2272 2368 
L 1286 2368 
L 1286 3766 
C 1286 3942 1325 3980 1498 3980 
L 2362 3980 
C 3085 3980 3226 3886 3334 3319 
L 3494 3319 
L 3475 4224 
L 77 4224 
L 77 4102 
C 550 4064 634 3975 634 3528 
L 634 695 
C 634 249 544 153 77 121 
L 77 0 
L 3533 0 
L 3821 1087 
z
" id="NimbusRomNo9L-Regu-45" transform="scale(0.015625)"/>
       <path d="M 2304 2713 
C 2010 2886 1818 2944 1568 2944 
C 768 2944 154 2228 154 1309 
C 154 505 576 -64 1178 -64 
C 1549 -64 1901 102 2182 409 
L 2182 -794 
C 2182 -1152 2067 -1248 1613 -1280 
L 1613 -1408 
L 3123 -1408 
L 3123 -1319 
C 2771 -1241 2720 -1189 2720 -916 
L 2720 2918 
L 2650 2918 
L 2304 2713 
z
M 2182 811 
C 2182 658 2157 575 2093 524 
C 1952 403 1741 326 1542 326 
C 1344 326 1171 390 1043 517 
C 838 703 704 1117 704 1539 
C 704 2292 1043 2764 1587 2764 
C 1984 2764 2182 2554 2182 2126 
L 2182 811 
z
" id="NimbusRomNo9L-Regu-71" transform="scale(0.015625)"/>
       <path d="M 122 3987 
L 160 3987 
C 230 3993 307 4000 358 4000 
C 563 4000 627 3910 627 3609 
L 627 556 
C 627 211 538 128 134 96 
L 134 0 
L 1645 0 
L 1645 96 
C 1242 121 1165 185 1165 537 
L 1165 4358 
L 1139 4371 
C 806 4262 563 4198 122 4089 
L 122 3987 
z
" id="NimbusRomNo9L-Regu-6c" transform="scale(0.015625)"/>
       <path d="M 58 2515 
C 115 2521 160 2521 218 2521 
C 435 2521 480 2457 480 2157 
L 480 -839 
C 480 -1172 410 -1242 32 -1280 
L 32 -1389 
L 1581 -1389 
L 1581 -1280 
C 1101 -1274 1018 -1203 1018 -798 
L 1018 211 
C 1242 0 1395 -64 1664 -64 
C 2419 -64 3008 652 3008 1580 
C 3008 2374 2560 2944 1939 2944 
C 1581 2944 1299 2783 1018 2438 
L 1018 2931 
L 979 2944 
C 634 2809 410 2726 58 2617 
L 58 2515 
z
M 1018 2137 
C 1018 2329 1376 2559 1670 2559 
C 2144 2559 2458 2073 2458 1331 
C 2458 620 2144 140 1683 140 
C 1382 140 1018 371 1018 563 
L 1018 2137 
z
" id="NimbusRomNo9L-Regu-70" transform="scale(0.015625)"/>
       <path d="M 1632 2880 
L 986 2880 
L 986 3622 
C 986 3686 979 3705 941 3705 
C 896 3648 858 3590 813 3526 
C 570 3174 294 2867 192 2841 
C 122 2796 83 2751 83 2719 
C 83 2700 90 2687 109 2675 
L 448 2675 
L 448 748 
C 448 211 640 -64 1018 -64 
C 1331 -64 1574 89 1786 422 
L 1702 492 
C 1568 332 1459 268 1318 268 
C 1082 268 986 441 986 844 
L 986 2675 
L 1632 2675 
L 1632 2880 
z
" id="NimbusRomNo9L-Regu-74" transform="scale(0.015625)"/>
       <path d="M 102 2547 
C 141 2566 205 2572 275 2572 
C 454 2572 512 2476 512 2163 
L 512 576 
C 512 211 442 121 115 96 
L 115 0 
L 1472 0 
L 1472 96 
C 1146 121 1050 198 1050 428 
L 1050 2227 
C 1357 2515 1498 2591 1709 2591 
C 2022 2591 2176 2393 2176 1971 
L 2176 633 
C 2176 230 2093 121 1773 96 
L 1773 0 
L 3104 0 
L 3104 96 
C 2790 128 2714 204 2714 518 
L 2714 1984 
C 2714 2585 2432 2944 1958 2944 
C 1664 2944 1466 2835 1030 2425 
L 1030 2931 
L 986 2944 
C 672 2828 454 2758 102 2655 
L 102 2547 
z
" id="NimbusRomNo9L-Regu-6e" transform="scale(0.015625)"/>
       <path d="M 3053 2880 
L 2163 2880 
L 2163 2783 
C 2368 2764 2464 2701 2464 2580 
C 2464 2517 2451 2454 2426 2390 
L 1792 748 
L 1139 2371 
C 1101 2460 1082 2549 1082 2606 
C 1082 2720 1152 2764 1376 2783 
L 1376 2880 
L 122 2880 
L 122 2783 
C 365 2771 410 2707 704 2054 
L 1472 235 
C 1485 197 1504 152 1523 102 
C 1562 -13 1600 -64 1638 -64 
C 1677 -64 1722 19 1818 254 
L 2637 2289 
C 2822 2720 2861 2764 3053 2783 
L 3053 2880 
z
" id="NimbusRomNo9L-Regu-76" transform="scale(0.015625)"/>
       <path d="M 2829 422 
C 2720 332 2643 300 2547 300 
C 2400 300 2355 390 2355 672 
L 2355 1920 
C 2355 2252 2323 2438 2227 2592 
C 2086 2822 1811 2944 1434 2944 
C 832 2944 358 2630 358 2227 
C 358 2080 486 1952 634 1952 
C 787 1952 922 2080 922 2220 
C 922 2246 915 2278 909 2323 
C 896 2380 890 2432 890 2476 
C 890 2649 1094 2790 1350 2790 
C 1664 2790 1837 2604 1837 2259 
L 1837 1868 
C 851 1472 742 1420 467 1177 
C 326 1049 237 832 237 620 
C 237 217 518 -64 909 -64 
C 1190 -64 1453 70 1843 403 
C 1875 70 1990 -64 2253 -64 
C 2470 -64 2605 12 2829 256 
L 2829 422 
z
M 1837 787 
C 1837 588 1805 531 1670 454 
C 1517 364 1338 307 1203 307 
C 979 307 800 524 800 800 
L 800 825 
C 800 1203 1062 1433 1837 1715 
L 1837 787 
z
" id="NimbusRomNo9L-Regu-61" transform="scale(0.015625)"/>
       <path d="M 2202 -64 
L 3142 268 
L 3142 371 
C 3027 364 3014 364 2995 364 
C 2765 364 2714 435 2714 729 
L 2714 4358 
L 2682 4371 
C 2374 4262 2150 4198 1741 4089 
L 1741 3987 
C 1792 3993 1830 3993 1882 3993 
C 2118 3993 2176 3929 2176 3667 
L 2176 2668 
C 1933 2873 1760 2944 1504 2944 
C 768 2944 173 2220 173 1312 
C 173 492 653 -64 1357 -64 
C 1715 -64 1958 64 2176 364 
L 2176 -45 
L 2202 -64 
z
M 2176 652 
C 2176 608 2131 531 2067 460 
C 1952 332 1792 268 1606 268 
C 1075 268 723 780 723 1568 
C 723 2291 1037 2764 1523 2764 
C 1862 2764 2176 2464 2176 2124 
L 2176 652 
z
" id="NimbusRomNo9L-Regu-64" transform="scale(0.015625)"/>
      </defs>
      <use transform="scale(0.996264)" xlink:href="#NimbusRomNo9L-Regu-45"/>
      <use transform="translate(60.871631 0)scale(0.996264)" xlink:href="#NimbusRomNo9L-Regu-71"/>
      <use transform="translate(110.684831 0)scale(0.996264)" xlink:href="#NimbusRomNo9L-Regu-75"/>
      <use transform="translate(160.498032 0)scale(0.996264)" xlink:href="#NimbusRomNo9L-Regu-69"/>
      <use transform="translate(188.193201 0)scale(0.996264)" xlink:href="#NimbusRomNo9L-Regu-6c"/>
      <use transform="translate(215.888371 0)scale(0.996264)" xlink:href="#NimbusRomNo9L-Regu-69"/>
      <use transform="translate(243.58354 0)scale(0.996264)" xlink:href="#NimbusRomNo9L-Regu-62"/>
      <use transform="translate(293.396741 0)scale(0.996264)" xlink:href="#NimbusRomNo9L-Regu-72"/>
      <use transform="translate(326.571971 0)scale(0.996264)" xlink:href="#NimbusRomNo9L-Regu-69"/>
      <use transform="translate(354.26714 0)scale(0.996264)" xlink:href="#NimbusRomNo9L-Regu-75"/>
      <use transform="translate(404.080341 0)scale(0.996264)" xlink:href="#NimbusRomNo9L-Regu-6d"/>
      <use transform="translate(506.495311 0)scale(0.996264)" xlink:href="#NimbusRomNo9L-Regu-70"/>
      <use transform="translate(556.308512 0)scale(0.996264)" xlink:href="#NimbusRomNo9L-Regu-72"/>
      <use transform="translate(589.483741 0)scale(0.996264)" xlink:href="#NimbusRomNo9L-Regu-6f"/>
      <use transform="translate(639.296942 0)scale(0.996264)" xlink:href="#NimbusRomNo9L-Regu-70"/>
      <use transform="translate(689.110142 0)scale(0.996264)" xlink:href="#NimbusRomNo9L-Regu-6f"/>
      <use transform="translate(738.923343 0)scale(0.996264)" xlink:href="#NimbusRomNo9L-Regu-72"/>
      <use transform="translate(772.098573 0)scale(0.996264)" xlink:href="#NimbusRomNo9L-Regu-74"/>
      <use transform="translate(799.793742 0)scale(0.996264)" xlink:href="#NimbusRomNo9L-Regu-69"/>
      <use transform="translate(827.488912 0)scale(0.996264)" xlink:href="#NimbusRomNo9L-Regu-6f"/>
      <use transform="translate(877.302112 0)scale(0.996264)" xlink:href="#NimbusRomNo9L-Regu-6e"/>
      <use transform="translate(952.021913 0)scale(0.996264)" xlink:href="#NimbusRomNo9L-Regu-6f"/>
      <use transform="translate(1001.835114 0)scale(0.996264)" xlink:href="#NimbusRomNo9L-Regu-66"/>
      <use transform="translate(1059.916944 0)scale(0.996264)" xlink:href="#NimbusRomNo9L-Regu-65"/>
      <use transform="translate(1101.659883 0)scale(0.996264)" xlink:href="#NimbusRomNo9L-Regu-76"/>
      <use transform="translate(1148.982453 0)scale(0.996264)" xlink:href="#NimbusRomNo9L-Regu-61"/>
      <use transform="translate(1193.216022 0)scale(0.996264)" xlink:href="#NimbusRomNo9L-Regu-64"/>
      <use transform="translate(1243.029223 0)scale(0.996264)" xlink:href="#NimbusRomNo9L-Regu-65"/>
      <use transform="translate(1287.262791 0)scale(0.996264)" xlink:href="#NimbusRomNo9L-Regu-72"/>
      <use transform="translate(1320.438021 0)scale(0.996264)" xlink:href="#NimbusRomNo9L-Regu-73"/>
     </g>
    </g>
    <g id="line2d_19">
     <path d="M 211.953365 68.128829 
L 231.953365 68.128829 
" style="fill:none;stroke:#000000;stroke-linecap:square;stroke-width:1.5;"/>
    </g>
    <g id="line2d_20"/>
    <g id="text_15">
     <!-- Equilibrium proportion of optimisers -->
     <g transform="translate(239.953365 71.628829)scale(0.1 -0.1)">
      <use transform="scale(0.996264)" xlink:href="#NimbusRomNo9L-Regu-45"/>
      <use transform="translate(60.871631 0)scale(0.996264)" xlink:href="#NimbusRomNo9L-Regu-71"/>
      <use transform="translate(110.684831 0)scale(0.996264)" xlink:href="#NimbusRomNo9L-Regu-75"/>
      <use transform="translate(160.498032 0)scale(0.996264)" xlink:href="#NimbusRomNo9L-Regu-69"/>
      <use transform="translate(188.193201 0)scale(0.996264)" xlink:href="#NimbusRomNo9L-Regu-6c"/>
      <use transform="translate(215.888371 0)scale(0.996264)" xlink:href="#NimbusRomNo9L-Regu-69"/>
      <use transform="translate(243.58354 0)scale(0.996264)" xlink:href="#NimbusRomNo9L-Regu-62"/>
      <use transform="translate(293.396741 0)scale(0.996264)" xlink:href="#NimbusRomNo9L-Regu-72"/>
      <use transform="translate(326.571971 0)scale(0.996264)" xlink:href="#NimbusRomNo9L-Regu-69"/>
      <use transform="translate(354.26714 0)scale(0.996264)" xlink:href="#NimbusRomNo9L-Regu-75"/>
      <use transform="translate(404.080341 0)scale(0.996264)" xlink:href="#NimbusRomNo9L-Regu-6d"/>
      <use transform="translate(506.495311 0)scale(0.996264)" xlink:href="#NimbusRomNo9L-Regu-70"/>
      <use transform="translate(556.308512 0)scale(0.996264)" xlink:href="#NimbusRomNo9L-Regu-72"/>
      <use transform="translate(589.483741 0)scale(0.996264)" xlink:href="#NimbusRomNo9L-Regu-6f"/>
      <use transform="translate(639.296942 0)scale(0.996264)" xlink:href="#NimbusRomNo9L-Regu-70"/>
      <use transform="translate(689.110142 0)scale(0.996264)" xlink:href="#NimbusRomNo9L-Regu-6f"/>
      <use transform="translate(738.923343 0)scale(0.996264)" xlink:href="#NimbusRomNo9L-Regu-72"/>
      <use transform="translate(772.098573 0)scale(0.996264)" xlink:href="#NimbusRomNo9L-Regu-74"/>
      <use transform="translate(799.793742 0)scale(0.996264)" xlink:href="#NimbusRomNo9L-Regu-69"/>
      <use transform="translate(827.488912 0)scale(0.996264)" xlink:href="#NimbusRomNo9L-Regu-6f"/>
      <use transform="translate(877.302112 0)scale(0.996264)" xlink:href="#NimbusRomNo9L-Regu-6e"/>
      <use transform="translate(952.021913 0)scale(0.996264)" xlink:href="#NimbusRomNo9L-Regu-6f"/>
      <use transform="translate(1001.835114 0)scale(0.996264)" xlink:href="#NimbusRomNo9L-Regu-66"/>
      <use transform="translate(1059.916944 0)scale(0.996264)" xlink:href="#NimbusRomNo9L-Regu-6f"/>
      <use transform="translate(1109.730144 0)scale(0.996264)" xlink:href="#NimbusRomNo9L-Regu-70"/>
      <use transform="translate(1159.543345 0)scale(0.996264)" xlink:href="#NimbusRomNo9L-Regu-74"/>
      <use transform="translate(1187.238514 0)scale(0.996264)" xlink:href="#NimbusRomNo9L-Regu-69"/>
      <use transform="translate(1214.933684 0)scale(0.996264)" xlink:href="#NimbusRomNo9L-Regu-6d"/>
      <use transform="translate(1292.442054 0)scale(0.996264)" xlink:href="#NimbusRomNo9L-Regu-69"/>
      <use transform="translate(1320.137223 0)scale(0.996264)" xlink:href="#NimbusRomNo9L-Regu-73"/>
      <use transform="translate(1358.89093 0)scale(0.996264)" xlink:href="#NimbusRomNo9L-Regu-65"/>
      <use transform="translate(1403.124498 0)scale(0.996264)" xlink:href="#NimbusRomNo9L-Regu-72"/>
      <use transform="translate(1436.299728 0)scale(0.996264)" xlink:href="#NimbusRomNo9L-Regu-73"/>
     </g>
    </g>
    <g id="line2d_21">
     <path d="M 211.953365 82.285658 
L 231.953365 82.285658 
" style="fill:none;stroke:#808080;stroke-dasharray:5.55,2.4;stroke-dashoffset:0;stroke-width:1.5;"/>
    </g>
    <g id="line2d_22"/>
    <g id="text_16">
     <!-- Equilibrium proportion of non-optimisers -->
     <g transform="translate(239.953365 85.785658)scale(0.1 -0.1)">
      <defs>
       <path d="M 250 1664 
L 250 1260 
L 1824 1260 
L 1824 1664 
L 250 1664 
z
" id="NimbusRomNo9L-Regu-2d" transform="scale(0.015625)"/>
      </defs>
      <use transform="scale(0.996264)" xlink:href="#NimbusRomNo9L-Regu-45"/>
      <use transform="translate(60.871631 0)scale(0.996264)" xlink:href="#NimbusRomNo9L-Regu-71"/>
      <use transform="translate(110.684831 0)scale(0.996264)" xlink:href="#NimbusRomNo9L-Regu-75"/>
      <use transform="translate(160.498032 0)scale(0.996264)" xlink:href="#NimbusRomNo9L-Regu-69"/>
      <use transform="translate(188.193201 0)scale(0.996264)" xlink:href="#NimbusRomNo9L-Regu-6c"/>
      <use transform="translate(215.888371 0)scale(0.996264)" xlink:href="#NimbusRomNo9L-Regu-69"/>
      <use transform="translate(243.58354 0)scale(0.996264)" xlink:href="#NimbusRomNo9L-Regu-62"/>
      <use transform="translate(293.396741 0)scale(0.996264)" xlink:href="#NimbusRomNo9L-Regu-72"/>
      <use transform="translate(326.571971 0)scale(0.996264)" xlink:href="#NimbusRomNo9L-Regu-69"/>
      <use transform="translate(354.26714 0)scale(0.996264)" xlink:href="#NimbusRomNo9L-Regu-75"/>
      <use transform="translate(404.080341 0)scale(0.996264)" xlink:href="#NimbusRomNo9L-Regu-6d"/>
      <use transform="translate(506.495311 0)scale(0.996264)" xlink:href="#NimbusRomNo9L-Regu-70"/>
      <use transform="translate(556.308512 0)scale(0.996264)" xlink:href="#NimbusRomNo9L-Regu-72"/>
      <use transform="translate(589.483741 0)scale(0.996264)" xlink:href="#NimbusRomNo9L-Regu-6f"/>
      <use transform="translate(639.296942 0)scale(0.996264)" xlink:href="#NimbusRomNo9L-Regu-70"/>
      <use transform="translate(689.110142 0)scale(0.996264)" xlink:href="#NimbusRomNo9L-Regu-6f"/>
      <use transform="translate(738.923343 0)scale(0.996264)" xlink:href="#NimbusRomNo9L-Regu-72"/>
      <use transform="translate(772.098573 0)scale(0.996264)" xlink:href="#NimbusRomNo9L-Regu-74"/>
      <use transform="translate(799.793742 0)scale(0.996264)" xlink:href="#NimbusRomNo9L-Regu-69"/>
      <use transform="translate(827.488912 0)scale(0.996264)" xlink:href="#NimbusRomNo9L-Regu-6f"/>
      <use transform="translate(877.302112 0)scale(0.996264)" xlink:href="#NimbusRomNo9L-Regu-6e"/>
      <use transform="translate(952.021913 0)scale(0.996264)" xlink:href="#NimbusRomNo9L-Regu-6f"/>
      <use transform="translate(1001.835114 0)scale(0.996264)" xlink:href="#NimbusRomNo9L-Regu-66"/>
      <use transform="translate(1059.916944 0)scale(0.996264)" xlink:href="#NimbusRomNo9L-Regu-6e"/>
      <use transform="translate(1109.730144 0)scale(0.996264)" xlink:href="#NimbusRomNo9L-Regu-6f"/>
      <use transform="translate(1159.543345 0)scale(0.996264)" xlink:href="#NimbusRomNo9L-Regu-6e"/>
      <use transform="translate(1209.356545 0)scale(0.996264)" xlink:href="#NimbusRomNo9L-Regu-2d"/>
      <use transform="translate(1242.531775 0)scale(0.996264)" xlink:href="#NimbusRomNo9L-Regu-6f"/>
      <use transform="translate(1292.344975 0)scale(0.996264)" xlink:href="#NimbusRomNo9L-Regu-70"/>
      <use transform="translate(1342.158176 0)scale(0.996264)" xlink:href="#NimbusRomNo9L-Regu-74"/>
      <use transform="translate(1369.853345 0)scale(0.996264)" xlink:href="#NimbusRomNo9L-Regu-69"/>
      <use transform="translate(1397.548515 0)scale(0.996264)" xlink:href="#NimbusRomNo9L-Regu-6d"/>
      <use transform="translate(1475.056885 0)scale(0.996264)" xlink:href="#NimbusRomNo9L-Regu-69"/>
      <use transform="translate(1502.752055 0)scale(0.996264)" xlink:href="#NimbusRomNo9L-Regu-73"/>
      <use transform="translate(1541.505761 0)scale(0.996264)" xlink:href="#NimbusRomNo9L-Regu-65"/>
      <use transform="translate(1585.73933 0)scale(0.996264)" xlink:href="#NimbusRomNo9L-Regu-72"/>
      <use transform="translate(1618.914559 0)scale(0.996264)" xlink:href="#NimbusRomNo9L-Regu-73"/>
     </g>
    </g>
    <g id="line2d_23">
     <path d="M 211.953365 96.442487 
L 231.953365 96.442487 
" style="fill:none;stroke:#808080;stroke-dasharray:1.5,2.475;stroke-dashoffset:0;stroke-width:1.5;"/>
    </g>
    <g id="line2d_24"/>
    <g id="text_17">
     <!-- Equilibrium effective tax rate -->
     <g transform="translate(239.953365 99.942487)scale(0.1 -0.1)">
      <defs>
       <path d="M 2547 998 
C 2240 550 2010 396 1645 396 
C 1062 396 653 908 653 1644 
C 653 2303 1005 2758 1523 2758 
C 1754 2758 1837 2687 1901 2451 
L 1939 2310 
C 1990 2131 2106 2015 2240 2015 
C 2406 2015 2547 2137 2547 2284 
C 2547 2643 2099 2944 1562 2944 
C 1248 2944 922 2815 659 2585 
C 339 2303 160 1868 160 1363 
C 160 531 666 -64 1376 -64 
C 1664 -64 1920 38 2150 236 
C 2323 390 2445 563 2637 940 
L 2547 998 
z
" id="NimbusRomNo9L-Regu-63" transform="scale(0.015625)"/>
       <path d="M 1779 0 
L 3066 0 
L 3066 96 
C 2867 96 2739 198 2541 480 
L 1722 1734 
L 2253 2502 
C 2374 2675 2566 2777 2771 2783 
L 2771 2880 
L 1760 2880 
L 1760 2783 
C 1952 2771 2016 2732 2016 2643 
C 2016 2566 1939 2425 1779 2227 
C 1747 2188 1670 2073 1587 1945 
L 1498 2073 
C 1318 2342 1203 2560 1203 2643 
C 1203 2732 1286 2777 1478 2783 
L 1478 2880 
L 154 2880 
L 154 2783 
L 211 2783 
C 403 2783 506 2700 704 2400 
L 1306 1478 
L 576 422 
C 384 160 320 115 109 96 
L 109 0 
L 1037 0 
L 1037 96 
C 858 96 781 128 781 211 
C 781 249 826 345 909 473 
L 1414 1260 
L 1997 364 
C 2022 326 2035 288 2035 249 
C 2035 134 1990 108 1779 96 
L 1779 0 
z
" id="NimbusRomNo9L-Regu-78" transform="scale(0.015625)"/>
      </defs>
      <use transform="scale(0.996264)" xlink:href="#NimbusRomNo9L-Regu-45"/>
      <use transform="translate(60.871631 0)scale(0.996264)" xlink:href="#NimbusRomNo9L-Regu-71"/>
      <use transform="translate(110.684831 0)scale(0.996264)" xlink:href="#NimbusRomNo9L-Regu-75"/>
      <use transform="translate(160.498032 0)scale(0.996264)" xlink:href="#NimbusRomNo9L-Regu-69"/>
      <use transform="translate(188.193201 0)scale(0.996264)" xlink:href="#NimbusRomNo9L-Regu-6c"/>
      <use transform="translate(215.888371 0)scale(0.996264)" xlink:href="#NimbusRomNo9L-Regu-69"/>
      <use transform="translate(243.58354 0)scale(0.996264)" xlink:href="#NimbusRomNo9L-Regu-62"/>
      <use transform="translate(293.396741 0)scale(0.996264)" xlink:href="#NimbusRomNo9L-Regu-72"/>
      <use transform="translate(326.571971 0)scale(0.996264)" xlink:href="#NimbusRomNo9L-Regu-69"/>
      <use transform="translate(354.26714 0)scale(0.996264)" xlink:href="#NimbusRomNo9L-Regu-75"/>
      <use transform="translate(404.080341 0)scale(0.996264)" xlink:href="#NimbusRomNo9L-Regu-6d"/>
      <use transform="translate(506.495311 0)scale(0.996264)" xlink:href="#NimbusRomNo9L-Regu-65"/>
      <use transform="translate(550.72888 0)scale(0.996264)" xlink:href="#NimbusRomNo9L-Regu-66"/>
      <use transform="translate(581.41348 0)scale(0.996264)" xlink:href="#NimbusRomNo9L-Regu-66"/>
      <use transform="translate(614.588527 0)scale(0.996264)" xlink:href="#NimbusRomNo9L-Regu-65"/>
      <use transform="translate(658.822096 0)scale(0.996264)" xlink:href="#NimbusRomNo9L-Regu-63"/>
      <use transform="translate(703.055665 0)scale(0.996264)" xlink:href="#NimbusRomNo9L-Regu-74"/>
      <use transform="translate(730.750834 0)scale(0.996264)" xlink:href="#NimbusRomNo9L-Regu-69"/>
      <use transform="translate(755.955374 0)scale(0.996264)" xlink:href="#NimbusRomNo9L-Regu-76"/>
      <use transform="translate(804.275182 0)scale(0.996264)" xlink:href="#NimbusRomNo9L-Regu-65"/>
      <use transform="translate(873.415351 0)scale(0.996264)" xlink:href="#NimbusRomNo9L-Regu-74"/>
      <use transform="translate(901.110521 0)scale(0.996264)" xlink:href="#NimbusRomNo9L-Regu-61"/>
      <use transform="translate(945.344089 0)scale(0.996264)" xlink:href="#NimbusRomNo9L-Regu-78"/>
      <use transform="translate(1020.06389 0)scale(0.996264)" xlink:href="#NimbusRomNo9L-Regu-72"/>
      <use transform="translate(1053.23912 0)scale(0.996264)" xlink:href="#NimbusRomNo9L-Regu-61"/>
      <use transform="translate(1097.472688 0)scale(0.996264)" xlink:href="#NimbusRomNo9L-Regu-74"/>
      <use transform="translate(1125.167858 0)scale(0.996264)" xlink:href="#NimbusRomNo9L-Regu-65"/>
     </g>
    </g>
   </g>
  </g>
 </g>
 <defs>
  <clipPath id="p5dde75fdc4">
   <rect height="266.112" width="357.12" x="57.6" y="41.472"/>
  </clipPath>
 </defs>
</svg>
