<?xml version="1.0" encoding="utf-8" standalone="no"?>
<!DOCTYPE svg PUBLIC "-//W3C//DTD SVG 1.1//EN"
  "http://www.w3.org/Graphics/SVG/1.1/DTD/svg11.dtd">
<svg height="345.6pt" version="1.1" viewBox="0 0 460.8 345.6" width="460.8pt" xmlns="http://www.w3.org/2000/svg" xmlns:xlink="http://www.w3.org/1999/xlink">
 <metadata>
  <rdf:RDF xmlns:cc="http://creativecommons.org/ns#" xmlns:dc="http://purl.org/dc/elements/1.1/" xmlns:rdf="http://www.w3.org/1999/02/22-rdf-syntax-ns#">
   <cc:Work>
    <dc:type rdf:resource="http://purl.org/dc/dcmitype/StillImage"/>
    <dc:date>2023-05-30T10:37:22.297442</dc:date>
    <dc:format>image/svg+xml</dc:format>
    <dc:creator>
     <cc:Agent>
      <dc:title>Matplotlib v3.4.3, https://matplotlib.org/</dc:title>
     </cc:Agent>
    </dc:creator>
   </cc:Work>
  </rdf:RDF>
 </metadata>
 <defs>
  <style type="text/css">*{stroke-linecap:butt;stroke-linejoin:round;}</style>
 </defs>
 <g id="figure_1">
  <g id="patch_1">
   <path d="M 0 345.6 
L 460.8 345.6 
L 460.8 0 
L 0 0 
z
" style="fill:#ffffff;"/>
  </g>
  <g id="axes_1">
   <g id="patch_2">
    <path d="M 57.6 307.584 
L 414.72 307.584 
L 414.72 41.472 
L 57.6 41.472 
z
" style="fill:#ffffff;"/>
   </g>
   <g id="matplotlib.axis_1">
    <g id="xtick_1">
     <g id="line2d_1">
      <defs>
       <path d="M 0 0 
L 0 3.5 
" id="m63ebfea02c" style="stroke:#000000;stroke-width:0.8;"/>
      </defs>
      <g>
       <use style="stroke:#000000;stroke-width:0.8;" x="73.832727" xlink:href="#m63ebfea02c" y="307.584"/>
      </g>
     </g>
     <g id="text_1">
      <!-- $\mathdefault{0.0}$ -->
      <g transform="translate(67.471633 321.338578)scale(0.1 -0.1)">
       <defs>
        <path d="M 1626 4352 
C 1274 4352 1005 4243 768 4019 
C 397 3661 154 2924 154 2176 
C 154 1478 365 729 666 371 
C 902 89 1229 -64 1600 -64 
C 1926 -64 2202 44 2432 268 
C 2803 620 3046 1363 3046 2137 
C 3046 3449 2464 4352 1626 4352 
z
M 1606 4185 
C 2144 4185 2432 3462 2432 2124 
C 2432 787 2150 102 1600 102 
C 1050 102 768 787 768 2118 
C 768 3475 1056 4185 1606 4185 
z
" id="NimbusRomNo9L-Regu-30" transform="scale(0.015625)"/>
        <path d="M 1229 339 
C 1229 524 1075 678 890 678 
C 704 678 550 524 550 339 
C 550 153 704 0 890 0 
C 1075 0 1229 153 1229 339 
z
" id="CMMI10-3a" transform="scale(0.015625)"/>
       </defs>
       <use transform="scale(0.996264)" xlink:href="#NimbusRomNo9L-Regu-30"/>
       <use transform="translate(49.8132 0)scale(0.996264)" xlink:href="#CMMI10-3a"/>
       <use transform="translate(77.408707 0)scale(0.996264)" xlink:href="#NimbusRomNo9L-Regu-30"/>
      </g>
     </g>
    </g>
    <g id="xtick_2">
     <g id="line2d_2">
      <g>
       <use style="stroke:#000000;stroke-width:0.8;" x="142.908162" xlink:href="#m63ebfea02c" y="307.584"/>
      </g>
     </g>
     <g id="text_2">
      <!-- $\mathdefault{0.2}$ -->
      <g transform="translate(136.547068 321.338578)scale(0.1 -0.1)">
       <defs>
        <path d="M 3040 879 
L 2957 912 
C 2720 544 2637 486 2349 486 
L 819 486 
L 1894 1621 
C 2464 2221 2714 2711 2714 3214 
C 2714 3858 2195 4352 1530 4352 
C 1178 4352 845 4211 608 3955 
C 403 3736 307 3530 198 3072 
L 333 3039 
C 589 3671 819 3878 1261 3878 
C 1798 3878 2163 3510 2163 2969 
C 2163 2466 1869 1866 1331 1292 
L 192 76 
L 192 0 
L 2688 0 
L 3040 879 
z
" id="NimbusRomNo9L-Regu-32" transform="scale(0.015625)"/>
       </defs>
       <use transform="scale(0.996264)" xlink:href="#NimbusRomNo9L-Regu-30"/>
       <use transform="translate(49.8132 0)scale(0.996264)" xlink:href="#CMMI10-3a"/>
       <use transform="translate(77.408707 0)scale(0.996264)" xlink:href="#NimbusRomNo9L-Regu-32"/>
      </g>
     </g>
    </g>
    <g id="xtick_3">
     <g id="line2d_3">
      <g>
       <use style="stroke:#000000;stroke-width:0.8;" x="211.983598" xlink:href="#m63ebfea02c" y="307.584"/>
      </g>
     </g>
     <g id="text_3">
      <!-- $\mathdefault{0.4}$ -->
      <g transform="translate(205.622503 321.338578)scale(0.1 -0.1)">
       <defs>
        <path d="M 3021 1497 
L 2368 1497 
L 2368 4352 
L 2086 4352 
L 77 1497 
L 77 1088 
L 1875 1088 
L 1875 0 
L 2368 0 
L 2368 1088 
L 3021 1088 
L 3021 1497 
z
M 1869 1497 
L 333 1497 
L 1869 3697 
L 1869 1497 
z
" id="NimbusRomNo9L-Regu-34" transform="scale(0.015625)"/>
       </defs>
       <use transform="scale(0.996264)" xlink:href="#NimbusRomNo9L-Regu-30"/>
       <use transform="translate(49.8132 0)scale(0.996264)" xlink:href="#CMMI10-3a"/>
       <use transform="translate(77.408707 0)scale(0.996264)" xlink:href="#NimbusRomNo9L-Regu-34"/>
      </g>
     </g>
    </g>
    <g id="xtick_4">
     <g id="line2d_4">
      <g>
       <use style="stroke:#000000;stroke-width:0.8;" x="281.059033" xlink:href="#m63ebfea02c" y="307.584"/>
      </g>
     </g>
     <g id="text_4">
      <!-- $\mathdefault{0.6}$ -->
      <g transform="translate(274.697938 321.338578)scale(0.1 -0.1)">
       <defs>
        <path d="M 2854 4390 
C 2125 4326 1754 4204 1286 3878 
C 595 3385 218 2655 218 1801 
C 218 1248 390 688 666 369 
C 909 89 1254 -64 1651 -64 
C 2445 -64 2995 541 2995 1420 
C 2995 2234 2528 2752 1792 2752 
C 1510 2752 1376 2707 973 2463 
C 1146 3430 1862 4121 2867 4288 
L 2854 4390 
z
M 1549 2457 
C 2099 2457 2419 1999 2419 1203 
C 2419 503 2170 115 1722 115 
C 1158 115 813 713 813 1700 
C 813 2024 864 2203 992 2298 
C 1126 2400 1325 2457 1549 2457 
z
" id="NimbusRomNo9L-Regu-36" transform="scale(0.015625)"/>
       </defs>
       <use transform="scale(0.996264)" xlink:href="#NimbusRomNo9L-Regu-30"/>
       <use transform="translate(49.8132 0)scale(0.996264)" xlink:href="#CMMI10-3a"/>
       <use transform="translate(77.408707 0)scale(0.996264)" xlink:href="#NimbusRomNo9L-Regu-36"/>
      </g>
     </g>
    </g>
    <g id="xtick_5">
     <g id="line2d_5">
      <g>
       <use style="stroke:#000000;stroke-width:0.8;" x="350.134468" xlink:href="#m63ebfea02c" y="307.584"/>
      </g>
     </g>
     <g id="text_5">
      <!-- $\mathdefault{0.8}$ -->
      <g transform="translate(343.773373 321.338578)scale(0.1 -0.1)">
       <defs>
        <path d="M 1856 2400 
C 2490 2739 2714 3008 2714 3443 
C 2714 3968 2253 4352 1613 4352 
C 915 4352 397 3923 397 3341 
C 397 2924 518 2739 1190 2150 
C 499 1625 358 1427 358 992 
C 358 371 864 -64 1587 -64 
C 2355 -64 2848 358 2848 1017 
C 2848 1510 2630 1824 1856 2400 
z
M 1741 1740 
C 2208 1408 2362 1177 2362 819 
C 2362 403 2074 115 1658 115 
C 1171 115 845 486 845 1043 
C 845 1452 986 1721 1357 2022 
L 1741 1740 
z
M 1670 2515 
C 1101 2886 870 3180 870 3539 
C 870 3910 1158 4172 1562 4172 
C 1997 4172 2272 3891 2272 3449 
C 2272 3084 2093 2796 1728 2553 
C 1696 2534 1696 2534 1670 2515 
z
" id="NimbusRomNo9L-Regu-38" transform="scale(0.015625)"/>
       </defs>
       <use transform="scale(0.996264)" xlink:href="#NimbusRomNo9L-Regu-30"/>
       <use transform="translate(49.8132 0)scale(0.996264)" xlink:href="#CMMI10-3a"/>
       <use transform="translate(77.408707 0)scale(0.996264)" xlink:href="#NimbusRomNo9L-Regu-38"/>
      </g>
     </g>
    </g>
    <g id="text_6">
     <!-- Initial proportion of optimisers -->
     <g transform="translate(174.586716 334.249984)scale(0.1 -0.1)">
      <defs>
       <path d="M 736 695 
C 736 217 653 140 115 121 
L 115 0 
L 2016 0 
L 2016 121 
C 1491 140 1389 230 1389 695 
L 1389 3528 
C 1389 3994 1478 4077 2016 4102 
L 2016 4224 
L 115 4224 
L 115 4102 
C 659 4070 736 4000 736 3528 
L 736 695 
z
" id="NimbusRomNo9L-Regu-49" transform="scale(0.015625)"/>
       <path d="M 102 2547 
C 141 2566 205 2572 275 2572 
C 454 2572 512 2476 512 2163 
L 512 576 
C 512 211 442 121 115 96 
L 115 0 
L 1472 0 
L 1472 96 
C 1146 121 1050 198 1050 428 
L 1050 2227 
C 1357 2515 1498 2591 1709 2591 
C 2022 2591 2176 2393 2176 1971 
L 2176 633 
C 2176 230 2093 121 1773 96 
L 1773 0 
L 3104 0 
L 3104 96 
C 2790 128 2714 204 2714 518 
L 2714 1984 
C 2714 2585 2432 2944 1958 2944 
C 1664 2944 1466 2835 1030 2425 
L 1030 2931 
L 986 2944 
C 672 2828 454 2758 102 2655 
L 102 2547 
z
" id="NimbusRomNo9L-Regu-6e" transform="scale(0.015625)"/>
       <path d="M 1120 2944 
L 128 2592 
L 128 2496 
L 179 2502 
C 256 2515 339 2521 397 2521 
C 550 2521 608 2419 608 2137 
L 608 652 
C 608 192 544 121 102 96 
L 102 0 
L 1619 0 
L 1619 96 
C 1197 128 1146 192 1146 652 
L 1146 2924 
L 1120 2944 
z
M 819 4352 
C 646 4352 499 4204 499 4025 
C 499 3846 640 3699 819 3699 
C 1005 3699 1152 3839 1152 4025 
C 1152 4204 1005 4352 819 4352 
z
" id="NimbusRomNo9L-Regu-69" transform="scale(0.015625)"/>
       <path d="M 1632 2880 
L 986 2880 
L 986 3622 
C 986 3686 979 3705 941 3705 
C 896 3648 858 3590 813 3526 
C 570 3174 294 2867 192 2841 
C 122 2796 83 2751 83 2719 
C 83 2700 90 2687 109 2675 
L 448 2675 
L 448 748 
C 448 211 640 -64 1018 -64 
C 1331 -64 1574 89 1786 422 
L 1702 492 
C 1568 332 1459 268 1318 268 
C 1082 268 986 441 986 844 
L 986 2675 
L 1632 2675 
L 1632 2880 
z
" id="NimbusRomNo9L-Regu-74" transform="scale(0.015625)"/>
       <path d="M 2829 422 
C 2720 332 2643 300 2547 300 
C 2400 300 2355 390 2355 672 
L 2355 1920 
C 2355 2252 2323 2438 2227 2592 
C 2086 2822 1811 2944 1434 2944 
C 832 2944 358 2630 358 2227 
C 358 2080 486 1952 634 1952 
C 787 1952 922 2080 922 2220 
C 922 2246 915 2278 909 2323 
C 896 2380 890 2432 890 2476 
C 890 2649 1094 2790 1350 2790 
C 1664 2790 1837 2604 1837 2259 
L 1837 1868 
C 851 1472 742 1420 467 1177 
C 326 1049 237 832 237 620 
C 237 217 518 -64 909 -64 
C 1190 -64 1453 70 1843 403 
C 1875 70 1990 -64 2253 -64 
C 2470 -64 2605 12 2829 256 
L 2829 422 
z
M 1837 787 
C 1837 588 1805 531 1670 454 
C 1517 364 1338 307 1203 307 
C 979 307 800 524 800 800 
L 800 825 
C 800 1203 1062 1433 1837 1715 
L 1837 787 
z
" id="NimbusRomNo9L-Regu-61" transform="scale(0.015625)"/>
       <path d="M 122 3987 
L 160 3987 
C 230 3993 307 4000 358 4000 
C 563 4000 627 3910 627 3609 
L 627 556 
C 627 211 538 128 134 96 
L 134 0 
L 1645 0 
L 1645 96 
C 1242 121 1165 185 1165 537 
L 1165 4358 
L 1139 4371 
C 806 4262 563 4198 122 4089 
L 122 3987 
z
" id="NimbusRomNo9L-Regu-6c" transform="scale(0.015625)"/>
       <path d="M 58 2515 
C 115 2521 160 2521 218 2521 
C 435 2521 480 2457 480 2157 
L 480 -839 
C 480 -1172 410 -1242 32 -1280 
L 32 -1389 
L 1581 -1389 
L 1581 -1280 
C 1101 -1274 1018 -1203 1018 -798 
L 1018 211 
C 1242 0 1395 -64 1664 -64 
C 2419 -64 3008 652 3008 1580 
C 3008 2374 2560 2944 1939 2944 
C 1581 2944 1299 2783 1018 2438 
L 1018 2931 
L 979 2944 
C 634 2809 410 2726 58 2617 
L 58 2515 
z
M 1018 2137 
C 1018 2329 1376 2559 1670 2559 
C 2144 2559 2458 2073 2458 1331 
C 2458 620 2144 140 1683 140 
C 1382 140 1018 371 1018 563 
L 1018 2137 
z
" id="NimbusRomNo9L-Regu-70" transform="scale(0.015625)"/>
       <path d="M 45 2496 
C 134 2515 192 2521 269 2521 
C 429 2521 486 2419 486 2137 
L 486 537 
C 486 217 442 172 32 96 
L 32 0 
L 1568 0 
L 1568 96 
C 1133 115 1024 211 1024 576 
L 1024 2016 
C 1024 2220 1299 2540 1472 2540 
C 1510 2540 1568 2508 1638 2444 
C 1741 2355 1811 2316 1894 2316 
C 2048 2316 2144 2425 2144 2604 
C 2144 2815 2010 2944 1792 2944 
C 1523 2944 1338 2796 1024 2342 
L 1024 2931 
L 992 2944 
C 653 2803 422 2720 45 2598 
L 45 2496 
z
" id="NimbusRomNo9L-Regu-72" transform="scale(0.015625)"/>
       <path d="M 1600 2944 
C 768 2944 186 2329 186 1446 
C 186 582 781 -64 1587 -64 
C 2394 -64 3008 614 3008 1497 
C 3008 2336 2419 2944 1600 2944 
z
M 1517 2764 
C 2054 2764 2432 2150 2432 1273 
C 2432 550 2144 115 1664 115 
C 1414 115 1178 268 1043 524 
C 864 857 762 1305 762 1760 
C 762 2368 1062 2764 1517 2764 
z
" id="NimbusRomNo9L-Regu-6f" transform="scale(0.015625)"/>
       <path d="M 1978 2880 
L 1190 2880 
L 1190 3611 
C 1190 3977 1312 4172 1555 4172 
C 1690 4172 1779 4109 1894 3926 
C 1997 3762 2074 3699 2182 3699 
C 2330 3699 2451 3813 2451 3958 
C 2451 4185 2170 4352 1786 4352 
C 1389 4352 1050 4179 883 3889 
C 717 3611 666 3384 659 2880 
L 134 2880 
L 134 2675 
L 659 2675 
L 659 665 
C 659 198 589 121 128 96 
L 128 0 
L 1792 0 
L 1792 96 
C 1267 115 1197 185 1197 665 
L 1197 2675 
L 1978 2675 
L 1978 2880 
z
" id="NimbusRomNo9L-Regu-66" transform="scale(0.015625)"/>
       <path d="M 122 2547 
C 205 2566 256 2572 326 2572 
C 493 2572 550 2470 550 2163 
L 550 544 
C 550 198 461 102 102 96 
L 102 0 
L 1523 0 
L 1523 96 
C 1184 108 1088 179 1088 428 
L 1088 2233 
C 1088 2246 1139 2310 1184 2355 
C 1344 2502 1619 2611 1843 2611 
C 2125 2611 2266 2387 2266 1939 
L 2266 550 
C 2266 192 2195 121 1830 96 
L 1830 0 
L 3264 0 
L 3264 96 
C 2899 102 2803 211 2803 608 
L 2803 2220 
C 2995 2496 3206 2611 3501 2611 
C 3866 2611 3981 2438 3981 1907 
L 3981 556 
C 3981 192 3930 140 3558 96 
L 3558 0 
L 4960 0 
L 4960 96 
L 4794 108 
C 4602 121 4518 236 4518 486 
L 4518 1804 
C 4518 2560 4269 2944 3776 2944 
C 3405 2944 3078 2777 2733 2406 
C 2618 2771 2400 2944 2054 2944 
C 1773 2944 1594 2854 1062 2451 
L 1062 2931 
L 1018 2944 
C 691 2822 474 2751 122 2655 
L 122 2547 
z
" id="NimbusRomNo9L-Regu-6d" transform="scale(0.015625)"/>
       <path d="M 2016 2009 
L 1990 2880 
L 1920 2880 
L 1907 2867 
C 1850 2822 1843 2815 1818 2815 
C 1779 2815 1715 2828 1645 2860 
C 1504 2918 1363 2944 1197 2944 
C 691 2944 326 2617 326 2155 
C 326 1796 531 1539 1075 1231 
L 1446 1019 
C 1670 891 1779 737 1779 538 
C 1779 256 1574 76 1248 76 
C 1030 76 832 160 710 301 
C 576 461 518 609 435 974 
L 333 974 
L 333 -26 
L 416 -26 
C 461 38 486 51 563 51 
C 621 51 710 38 858 0 
C 1037 -39 1210 -64 1325 -64 
C 1818 -64 2227 307 2227 756 
C 2227 1077 2074 1289 1690 1520 
L 998 1930 
C 819 2033 723 2193 723 2366 
C 723 2623 922 2803 1216 2803 
C 1581 2803 1773 2585 1920 2014 
L 2016 2009 
z
" id="NimbusRomNo9L-Regu-73" transform="scale(0.015625)"/>
       <path d="M 2611 1052 
C 2304 564 2029 377 1619 377 
C 1254 377 979 564 794 930 
C 678 1174 634 1386 621 1779 
L 2592 1779 
C 2541 2193 2477 2377 2317 2580 
C 2125 2809 1830 2944 1498 2944 
C 1178 2944 877 2828 634 2612 
C 333 2351 160 1900 160 1374 
C 160 486 621 -64 1357 -64 
C 1965 -64 2445 313 2714 1007 
L 2611 1052 
z
M 634 1984 
C 704 2478 922 2713 1312 2713 
C 1702 2713 1856 2535 1939 1984 
L 634 1984 
z
" id="NimbusRomNo9L-Regu-65" transform="scale(0.015625)"/>
      </defs>
      <use transform="scale(0.996264)" xlink:href="#NimbusRomNo9L-Regu-49"/>
      <use transform="translate(33.17523 0)scale(0.996264)" xlink:href="#NimbusRomNo9L-Regu-6e"/>
      <use transform="translate(82.98843 0)scale(0.996264)" xlink:href="#NimbusRomNo9L-Regu-69"/>
      <use transform="translate(110.6836 0)scale(0.996264)" xlink:href="#NimbusRomNo9L-Regu-74"/>
      <use transform="translate(138.378769 0)scale(0.996264)" xlink:href="#NimbusRomNo9L-Regu-69"/>
      <use transform="translate(166.073939 0)scale(0.996264)" xlink:href="#NimbusRomNo9L-Regu-61"/>
      <use transform="translate(210.307508 0)scale(0.996264)" xlink:href="#NimbusRomNo9L-Regu-6c"/>
      <use transform="translate(262.909278 0)scale(0.996264)" xlink:href="#NimbusRomNo9L-Regu-70"/>
      <use transform="translate(312.722478 0)scale(0.996264)" xlink:href="#NimbusRomNo9L-Regu-72"/>
      <use transform="translate(345.897708 0)scale(0.996264)" xlink:href="#NimbusRomNo9L-Regu-6f"/>
      <use transform="translate(395.710908 0)scale(0.996264)" xlink:href="#NimbusRomNo9L-Regu-70"/>
      <use transform="translate(445.524109 0)scale(0.996264)" xlink:href="#NimbusRomNo9L-Regu-6f"/>
      <use transform="translate(495.337309 0)scale(0.996264)" xlink:href="#NimbusRomNo9L-Regu-72"/>
      <use transform="translate(528.512539 0)scale(0.996264)" xlink:href="#NimbusRomNo9L-Regu-74"/>
      <use transform="translate(556.207709 0)scale(0.996264)" xlink:href="#NimbusRomNo9L-Regu-69"/>
      <use transform="translate(583.902878 0)scale(0.996264)" xlink:href="#NimbusRomNo9L-Regu-6f"/>
      <use transform="translate(633.716079 0)scale(0.996264)" xlink:href="#NimbusRomNo9L-Regu-6e"/>
      <use transform="translate(708.435879 0)scale(0.996264)" xlink:href="#NimbusRomNo9L-Regu-6f"/>
      <use transform="translate(758.24908 0)scale(0.996264)" xlink:href="#NimbusRomNo9L-Regu-66"/>
      <use transform="translate(816.33091 0)scale(0.996264)" xlink:href="#NimbusRomNo9L-Regu-6f"/>
      <use transform="translate(866.14411 0)scale(0.996264)" xlink:href="#NimbusRomNo9L-Regu-70"/>
      <use transform="translate(915.957311 0)scale(0.996264)" xlink:href="#NimbusRomNo9L-Regu-74"/>
      <use transform="translate(943.652481 0)scale(0.996264)" xlink:href="#NimbusRomNo9L-Regu-69"/>
      <use transform="translate(971.34765 0)scale(0.996264)" xlink:href="#NimbusRomNo9L-Regu-6d"/>
      <use transform="translate(1048.85602 0)scale(0.996264)" xlink:href="#NimbusRomNo9L-Regu-69"/>
      <use transform="translate(1076.55119 0)scale(0.996264)" xlink:href="#NimbusRomNo9L-Regu-73"/>
      <use transform="translate(1115.304896 0)scale(0.996264)" xlink:href="#NimbusRomNo9L-Regu-65"/>
      <use transform="translate(1159.538465 0)scale(0.996264)" xlink:href="#NimbusRomNo9L-Regu-72"/>
      <use transform="translate(1192.713694 0)scale(0.996264)" xlink:href="#NimbusRomNo9L-Regu-73"/>
     </g>
    </g>
   </g>
   <g id="matplotlib.axis_2">
    <g id="ytick_1">
     <g id="line2d_6">
      <defs>
       <path d="M 0 0 
L -3.5 0 
" id="m365fc23c67" style="stroke:#000000;stroke-width:0.8;"/>
      </defs>
      <g>
       <use style="stroke:#000000;stroke-width:0.8;" x="57.6" xlink:href="#m365fc23c67" y="307.584"/>
      </g>
     </g>
     <g id="text_7">
      <!-- $\mathdefault{0.0}$ -->
      <g transform="translate(37.877811 310.961289)scale(0.1 -0.1)">
       <use transform="scale(0.996264)" xlink:href="#NimbusRomNo9L-Regu-30"/>
       <use transform="translate(49.8132 0)scale(0.996264)" xlink:href="#CMMI10-3a"/>
       <use transform="translate(77.408707 0)scale(0.996264)" xlink:href="#NimbusRomNo9L-Regu-30"/>
      </g>
     </g>
    </g>
    <g id="ytick_2">
     <g id="line2d_7">
      <g>
       <use style="stroke:#000000;stroke-width:0.8;" x="57.6" xlink:href="#m365fc23c67" y="254.3616"/>
      </g>
     </g>
     <g id="text_8">
      <!-- $\mathdefault{0.2}$ -->
      <g transform="translate(37.877811 257.738889)scale(0.1 -0.1)">
       <use transform="scale(0.996264)" xlink:href="#NimbusRomNo9L-Regu-30"/>
       <use transform="translate(49.8132 0)scale(0.996264)" xlink:href="#CMMI10-3a"/>
       <use transform="translate(77.408707 0)scale(0.996264)" xlink:href="#NimbusRomNo9L-Regu-32"/>
      </g>
     </g>
    </g>
    <g id="ytick_3">
     <g id="line2d_8">
      <g>
       <use style="stroke:#000000;stroke-width:0.8;" x="57.6" xlink:href="#m365fc23c67" y="201.1392"/>
      </g>
     </g>
     <g id="text_9">
      <!-- $\mathdefault{0.4}$ -->
      <g transform="translate(37.877811 204.516489)scale(0.1 -0.1)">
       <use transform="scale(0.996264)" xlink:href="#NimbusRomNo9L-Regu-30"/>
       <use transform="translate(49.8132 0)scale(0.996264)" xlink:href="#CMMI10-3a"/>
       <use transform="translate(77.408707 0)scale(0.996264)" xlink:href="#NimbusRomNo9L-Regu-34"/>
      </g>
     </g>
    </g>
    <g id="ytick_4">
     <g id="line2d_9">
      <g>
       <use style="stroke:#000000;stroke-width:0.8;" x="57.6" xlink:href="#m365fc23c67" y="147.9168"/>
      </g>
     </g>
     <g id="text_10">
      <!-- $\mathdefault{0.6}$ -->
      <g transform="translate(37.877811 151.294089)scale(0.1 -0.1)">
       <use transform="scale(0.996264)" xlink:href="#NimbusRomNo9L-Regu-30"/>
       <use transform="translate(49.8132 0)scale(0.996264)" xlink:href="#CMMI10-3a"/>
       <use transform="translate(77.408707 0)scale(0.996264)" xlink:href="#NimbusRomNo9L-Regu-36"/>
      </g>
     </g>
    </g>
    <g id="ytick_5">
     <g id="line2d_10">
      <g>
       <use style="stroke:#000000;stroke-width:0.8;" x="57.6" xlink:href="#m365fc23c67" y="94.6944"/>
      </g>
     </g>
     <g id="text_11">
      <!-- $\mathdefault{0.8}$ -->
      <g transform="translate(37.877811 98.071689)scale(0.1 -0.1)">
       <use transform="scale(0.996264)" xlink:href="#NimbusRomNo9L-Regu-30"/>
       <use transform="translate(49.8132 0)scale(0.996264)" xlink:href="#CMMI10-3a"/>
       <use transform="translate(77.408707 0)scale(0.996264)" xlink:href="#NimbusRomNo9L-Regu-38"/>
      </g>
     </g>
    </g>
    <g id="ytick_6">
     <g id="line2d_11">
      <g>
       <use style="stroke:#000000;stroke-width:0.8;" x="57.6" xlink:href="#m365fc23c67" y="41.472"/>
      </g>
     </g>
     <g id="text_12">
      <!-- $\mathdefault{1.0}$ -->
      <g transform="translate(37.877811 44.849289)scale(0.1 -0.1)">
       <defs>
        <path d="M 1862 4352 
L 710 3776 
L 710 3686 
C 787 3718 858 3743 883 3756 
C 998 3801 1107 3826 1171 3826 
C 1306 3826 1363 3731 1363 3525 
L 1363 599 
C 1363 386 1312 238 1210 179 
C 1114 121 1024 102 755 96 
L 755 0 
L 2522 0 
L 2522 96 
C 2016 102 1914 167 1914 477 
L 1914 4339 
L 1862 4352 
z
" id="NimbusRomNo9L-Regu-31" transform="scale(0.015625)"/>
       </defs>
       <use transform="scale(0.996264)" xlink:href="#NimbusRomNo9L-Regu-31"/>
       <use transform="translate(49.8132 0)scale(0.996264)" xlink:href="#CMMI10-3a"/>
       <use transform="translate(77.408707 0)scale(0.996264)" xlink:href="#NimbusRomNo9L-Regu-30"/>
      </g>
     </g>
    </g>
   </g>
   <g id="line2d_12">
    <path clip-path="url(#p0011f34b80)" d="M 73.832727 290.015286 
L 77.286499 294.470001 
L 80.740271 282.617372 
L 84.194043 285.033669 
L 87.647814 294.725468 
L 91.101586 289.616118 
L 94.555358 286.204562 
L 98.00913 289.131794 
L 101.462901 290.254787 
L 104.916673 288.716659 
L 108.370445 288.668759 
L 111.824217 291.862103 
L 115.277988 285.847972 
L 118.73176 284.107599 
L 122.185532 286.111423 
L 125.639304 284.70369 
L 129.093075 291.111667 
L 132.546847 288.354747 
L 136.000619 287.811878 
L 139.454391 291.287301 
L 142.908162 288.17113 
L 146.361934 283.804232 
L 149.815706 297.184343 
L 153.269478 289.323395 
L 156.72325 286.374874 
L 160.177021 295.098025 
L 163.630793 294.485967 
L 167.084565 287.088054 
L 170.538337 288.972127 
L 173.992108 292.665761 
L 177.44588 293.155407 
L 180.899652 293.66102 
L 184.353424 288.823104 
L 187.807195 290.973289 
L 191.260967 290.930711 
L 194.714739 295.986839 
L 198.168511 296.41794 
L 201.622282 294.347589 
L 205.076054 299.754985 
L 208.529826 296.982098 
L 211.983598 298.275402 
L 215.437369 298.456358 
L 218.891141 302.187249 
L 222.344913 299.962552 
L 225.798685 303.086707 
L 229.252456 302.043548 
L 232.706228 305.002714 
L 236.16 302.682217 
L 239.613772 305.290115 
L 243.067544 305.811694 
L 246.521315 306.492941 
L 249.975087 306.977265 
L 253.428859 306.940009 
L 256.882631 306.296018 
L 260.336402 307.019843 
L 263.790174 307.461588 
L 267.243946 307.466911 
L 270.697718 307.413688 
L 274.151489 307.248699 
L 277.605261 307.557389 
L 281.059033 307.562711 
L 284.512805 307.557389 
L 287.966576 307.557389 
L 291.420348 307.568033 
L 294.87412 307.546744 
L 298.327892 307.578678 
L 301.781663 307.557389 
L 305.235435 307.498844 
L 308.689207 307.552067 
L 312.142979 307.557389 
L 315.59675 307.584 
L 319.050522 307.584 
L 322.504294 307.568033 
L 325.958066 307.573356 
L 329.411838 307.562711 
L 332.865609 307.552067 
L 336.319381 307.557389 
L 339.773153 307.568033 
L 343.226925 307.573356 
L 346.680696 307.562711 
L 350.134468 307.562711 
L 353.58824 307.573356 
L 357.042012 307.578678 
L 360.495783 307.546744 
L 363.949555 307.562711 
L 367.403327 307.573356 
L 370.857099 307.557389 
L 374.31087 307.552067 
L 377.764642 307.578678 
L 381.218414 307.568033 
L 384.672186 307.562711 
L 388.125957 307.568033 
L 391.579729 307.546744 
L 395.033501 307.573356 
L 398.487273 307.578678 
" style="fill:none;stroke:#808080;stroke-linecap:square;stroke-width:1.5;"/>
   </g>
   <g id="line2d_13">
    <path clip-path="url(#p0011f34b80)" d="M 73.832727 307.466911 
L 77.286499 307.397722 
L 80.740271 307.434977 
L 84.194043 307.429655 
L 87.647814 307.413688 
L 91.101586 307.445622 
L 94.555358 307.456266 
L 98.00913 307.424333 
L 101.462901 307.339177 
L 104.916673 307.461588 
L 108.370445 307.381755 
L 111.824217 307.4403 
L 115.277988 307.477555 
L 118.73176 307.403044 
L 122.185532 307.379094 
L 125.639304 307.365788 
L 129.093075 307.126287 
L 132.546847 307.283293 
L 136.000619 307.13161 
L 139.454391 307.099676 
L 142.908162 306.881464 
L 146.361934 306.461007 
L 149.815706 305.987328 
L 153.269478 305.524293 
L 156.72325 305.417848 
L 160.177021 305.401882 
L 163.630793 300.436232 
L 167.084565 299.015194 
L 170.538337 300.404298 
L 173.992108 296.731953 
L 177.44588 290.265431 
L 180.899652 291.116989 
L 184.353424 284.059699 
L 187.807195 275.001247 
L 191.260967 269.870607 
L 194.714739 266.070528 
L 198.168511 256.224384 
L 201.622282 246.346307 
L 205.076054 233.242952 
L 208.529826 224.434644 
L 211.983598 210.66601 
L 215.437369 197.701033 
L 218.891141 184.640256 
L 222.344913 174.719601 
L 225.798685 161.74398 
L 229.252456 146.112561 
L 232.706228 128.304346 
L 236.16 132.274737 
L 239.613772 107.137797 
L 243.067544 107.888233 
L 246.521315 102.720338 
L 249.975087 93.598019 
L 253.428859 86.774907 
L 256.882631 82.602271 
L 260.336402 74.374088 
L 263.790174 68.014011 
L 267.243946 67.503076 
L 270.697718 63.692352 
L 274.151489 62.409692 
L 277.605261 60.339341 
L 281.059033 58.114644 
L 284.512805 57.204541 
L 287.966576 58.439301 
L 291.420348 57.22583 
L 294.87412 55.868659 
L 298.327892 55.554647 
L 301.781663 55.192735 
L 305.235435 56.049615 
L 308.689207 55.214024 
L 312.142979 54.931945 
L 315.59675 54.575355 
L 319.050522 55.022423 
L 322.504294 54.846789 
L 325.958066 54.958556 
L 329.411838 54.953234 
L 332.865609 54.857434 
L 336.319381 55.208701 
L 339.773153 54.974523 
L 343.226925 54.756311 
L 346.680696 54.532777 
L 350.134468 54.937267 
L 353.58824 54.772278 
L 357.042012 54.655188 
L 360.495783 54.532777 
L 363.949555 54.532777 
L 367.403327 55.011779 
L 370.857099 54.985167 
L 374.31087 55.027745 
L 377.764642 54.490199 
L 381.218414 54.570033 
L 384.672186 55.341757 
L 388.125957 55.155479 
L 391.579729 54.724378 
L 395.033501 54.7776 
L 398.487273 54.942589 
" style="fill:none;stroke:#000000;stroke-linecap:square;stroke-width:1.5;"/>
   </g>
   <g id="line2d_14">
    <path clip-path="url(#p0011f34b80)" d="M 73.832727 59.157804 
L 77.286499 54.772278 
L 80.740271 66.587651 
L 84.194043 64.176676 
L 87.647814 54.500844 
L 91.101586 59.57826 
L 94.555358 62.979172 
L 98.00913 60.083873 
L 101.462901 59.046036 
L 104.916673 60.461752 
L 108.370445 60.589486 
L 111.824217 57.337597 
L 115.277988 63.314473 
L 118.73176 65.129357 
L 122.185532 63.149484 
L 125.639304 64.570522 
L 129.093075 58.402045 
L 132.546847 61.00196 
L 136.000619 61.696512 
L 139.454391 58.253023 
L 142.908162 61.587406 
L 146.361934 66.374761 
L 149.815706 53.468329 
L 153.269478 61.792312 
L 156.72325 64.847278 
L 160.177021 56.140093 
L 163.630793 61.717801 
L 167.084565 70.536753 
L 170.538337 67.263575 
L 173.992108 67.242286 
L 177.44588 73.219162 
L 180.899652 71.86199 
L 184.353424 83.757197 
L 187.807195 90.665464 
L 191.260967 95.838682 
L 194.714739 94.582633 
L 198.168511 103.997676 
L 201.622282 115.946104 
L 205.076054 123.642063 
L 208.529826 135.223258 
L 211.983598 147.698588 
L 215.437369 160.482609 
L 218.891141 169.812495 
L 222.344913 181.957847 
L 225.798685 191.809313 
L 229.252456 208.483891 
L 232.706228 223.332941 
L 236.16 221.683046 
L 239.613772 244.212088 
L 243.067544 242.940073 
L 246.521315 247.426721 
L 249.975087 256.064717 
L 253.428859 262.925084 
L 256.882631 267.741711 
L 260.336402 275.24607 
L 263.790174 281.164401 
L 267.243946 281.670013 
L 270.697718 285.53396 
L 274.151489 286.981609 
L 277.605261 288.74327 
L 281.059033 290.962644 
L 284.512805 291.87807 
L 287.966576 290.64331 
L 291.420348 291.846136 
L 294.87412 293.224596 
L 298.327892 293.506675 
L 301.781663 293.889876 
L 305.235435 293.09154 
L 308.689207 293.87391 
L 312.142979 294.150666 
L 315.59675 294.480645 
L 319.050522 294.033577 
L 322.504294 294.225178 
L 325.958066 294.108088 
L 329.411838 294.124055 
L 332.865609 294.2305 
L 336.319381 293.87391 
L 339.773153 294.097444 
L 343.226925 294.310333 
L 346.680696 294.544512 
L 350.134468 294.140022 
L 353.58824 294.294367 
L 357.042012 294.406134 
L 360.495783 294.560479 
L 363.949555 294.544512 
L 367.403327 294.054866 
L 370.857099 294.097444 
L 374.31087 294.060188 
L 377.764642 294.571123 
L 381.218414 294.501934 
L 384.672186 293.735532 
L 388.125957 293.916488 
L 391.579729 294.368878 
L 395.033501 294.289044 
L 398.487273 294.118733 
" style="fill:none;stroke:#808080;stroke-dasharray:5.55,2.4;stroke-dashoffset:0;stroke-width:1.5;"/>
   </g>
   <g id="line2d_15">
    <path clip-path="url(#p0011f34b80)" d="M 73.832727 214.960135 
L 77.286499 214.845088 
L 80.740271 215.1529 
L 84.194043 215.078834 
L 87.647814 214.825241 
L 91.101586 214.966507 
L 94.555358 215.057735 
L 98.00913 214.971109 
L 101.462901 214.978142 
L 104.916673 214.974728 
L 108.370445 214.982364 
L 111.824217 214.896361 
L 115.277988 215.083135 
L 118.73176 215.105475 
L 122.185532 215.068199 
L 125.639304 215.107123 
L 129.093075 214.95041 
L 132.546847 215.020443 
L 136.000619 215.040211 
L 139.454391 214.941042 
L 142.908162 215.067586 
L 146.361934 215.230228 
L 149.815706 214.896525 
L 153.269478 215.155081 
L 156.72325 215.232658 
L 160.177021 215.004327 
L 163.630793 215.469564 
L 167.084565 215.845988 
L 170.538337 215.62049 
L 173.992108 215.878205 
L 177.44588 216.434527 
L 180.899652 216.353913 
L 184.353424 217.093399 
L 187.807195 217.865731 
L 191.260967 218.460035 
L 194.714739 218.593937 
L 198.168511 219.477395 
L 201.622282 220.364123 
L 205.076054 221.54332 
L 208.529826 222.394281 
L 211.983598 223.633283 
L 215.437369 224.829083 
L 218.891141 225.910078 
L 222.344913 226.928145 
L 225.798685 228.16366 
L 229.252456 229.235735 
L 232.706228 231.058121 
L 236.16 230.723379 
L 239.613772 232.81652 
L 243.067544 232.819317 
L 246.521315 233.384943 
L 249.975087 234.06626 
L 253.428859 234.734729 
L 256.882631 235.118842 
L 260.336402 235.835259 
L 263.790174 236.433877 
L 267.243946 236.600251 
L 270.697718 236.952811 
L 274.151489 237.12343 
L 277.605261 237.103228 
L 281.059033 237.333533 
L 284.512805 237.403958 
L 287.966576 237.487882 
L 291.420348 237.268896 
L 294.87412 237.570678 
L 298.327892 237.473454 
L 301.781663 237.629071 
L 305.235435 237.728508 
L 308.689207 237.553508 
L 312.142979 237.7764 
L 315.59675 237.818366 
L 319.050522 237.553811 
L 322.504294 237.421553 
L 325.958066 237.513969 
L 329.411838 237.811006 
L 332.865609 237.81868 
L 336.319381 237.767563 
L 339.773153 238.032563 
L 343.226925 237.832173 
L 346.680696 237.520104 
L 350.134468 237.658664 
L 353.58824 237.779997 
L 357.042012 237.726511 
L 360.495783 237.647239 
L 363.949555 237.865292 
L 367.403327 237.705093 
L 370.857099 237.595659 
L 374.31087 237.56345 
L 377.764642 237.720147 
L 381.218414 237.928013 
L 384.672186 237.558252 
L 388.125957 237.727157 
L 391.579729 237.468917 
L 395.033501 237.783712 
L 398.487273 237.759969 
" style="fill:none;stroke:#808080;stroke-dasharray:1.5,2.475;stroke-dashoffset:0;stroke-width:1.5;"/>
   </g>
   <g id="patch_3">
    <path d="M 57.6 307.584 
L 57.6 41.472 
" style="fill:none;stroke:#000000;stroke-linecap:square;stroke-linejoin:miter;stroke-width:0.8;"/>
   </g>
   <g id="patch_4">
    <path d="M 414.72 307.584 
L 414.72 41.472 
" style="fill:none;stroke:#000000;stroke-linecap:square;stroke-linejoin:miter;stroke-width:0.8;"/>
   </g>
   <g id="patch_5">
    <path d="M 57.6 307.584 
L 414.72 307.584 
" style="fill:none;stroke:#000000;stroke-linecap:square;stroke-linejoin:miter;stroke-width:0.8;"/>
   </g>
   <g id="patch_6">
    <path d="M 57.6 41.472 
L 414.72 41.472 
" style="fill:none;stroke:#000000;stroke-linecap:square;stroke-linejoin:miter;stroke-width:0.8;"/>
   </g>
   <g id="legend_1">
    <g id="patch_7">
     <path d="M 63.1712 195.81696 
L 260.937835 195.81696 
Q 262.937835 195.81696 262.937835 193.81696 
L 262.937835 138.189644 
Q 262.937835 136.189644 260.937835 136.189644 
L 63.1712 136.189644 
Q 61.1712 136.189644 61.1712 138.189644 
L 61.1712 193.81696 
Q 61.1712 195.81696 63.1712 195.81696 
z
" style="fill:#ffffff;opacity:0.8;stroke:#cccccc;stroke-linejoin:miter;"/>
    </g>
    <g id="line2d_16">
     <path d="M 65.1712 143.689644 
L 85.1712 143.689644 
" style="fill:none;stroke:#808080;stroke-linecap:square;stroke-width:1.5;"/>
    </g>
    <g id="line2d_17"/>
    <g id="text_13">
     <!-- Equilibrium proportion of evaders -->
     <g transform="translate(93.1712 147.189644)scale(0.1 -0.1)">
      <defs>
       <path d="M 3821 1087 
L 3642 1087 
C 3322 391 3046 236 2131 236 
L 1958 236 
C 1645 236 1376 269 1331 314 
C 1299 333 1286 404 1286 513 
L 1286 2105 
L 2272 2105 
C 2797 2105 2893 2021 2976 1487 
L 3123 1487 
L 3123 2966 
L 2976 2966 
C 2931 2708 2906 2613 2835 2525 
C 2752 2418 2573 2368 2272 2368 
L 1286 2368 
L 1286 3766 
C 1286 3942 1325 3980 1498 3980 
L 2362 3980 
C 3085 3980 3226 3886 3334 3319 
L 3494 3319 
L 3475 4224 
L 77 4224 
L 77 4102 
C 550 4064 634 3975 634 3528 
L 634 695 
C 634 249 544 153 77 121 
L 77 0 
L 3533 0 
L 3821 1087 
z
" id="NimbusRomNo9L-Regu-45" transform="scale(0.015625)"/>
       <path d="M 2304 2713 
C 2010 2886 1818 2944 1568 2944 
C 768 2944 154 2228 154 1309 
C 154 505 576 -64 1178 -64 
C 1549 -64 1901 102 2182 409 
L 2182 -794 
C 2182 -1152 2067 -1248 1613 -1280 
L 1613 -1408 
L 3123 -1408 
L 3123 -1319 
C 2771 -1241 2720 -1189 2720 -916 
L 2720 2918 
L 2650 2918 
L 2304 2713 
z
M 2182 811 
C 2182 658 2157 575 2093 524 
C 1952 403 1741 326 1542 326 
C 1344 326 1171 390 1043 517 
C 838 703 704 1117 704 1539 
C 704 2292 1043 2764 1587 2764 
C 1984 2764 2182 2554 2182 2126 
L 2182 811 
z
" id="NimbusRomNo9L-Regu-71" transform="scale(0.015625)"/>
       <path d="M 3066 319 
L 3034 319 
C 2739 319 2669 390 2669 684 
L 2669 2880 
L 1658 2880 
L 1658 2771 
C 2054 2752 2131 2688 2131 2368 
L 2131 864 
C 2131 684 2099 595 2010 524 
C 1837 384 1638 307 1446 307 
C 1197 307 992 524 992 793 
L 992 2880 
L 58 2880 
L 58 2790 
C 365 2771 454 2675 454 2380 
L 454 768 
C 454 262 762 -64 1229 -64 
C 1466 -64 1715 38 1888 211 
L 2163 486 
L 2163 -45 
L 2189 -64 
C 2509 64 2739 134 3066 224 
L 3066 319 
z
" id="NimbusRomNo9L-Regu-75" transform="scale(0.015625)"/>
       <path d="M 979 4358 
L 947 4371 
C 678 4275 506 4224 205 4140 
L 19 4089 
L 19 3987 
C 58 3993 83 3993 128 3993 
C 384 3993 442 3936 442 3667 
L 442 345 
C 442 147 986 -64 1498 -64 
C 2342 -64 2995 639 2995 1555 
C 2995 2342 2509 2944 1869 2944 
C 1478 2944 1107 2713 979 2399 
L 979 4358 
z
M 979 2060 
C 979 2310 1280 2540 1613 2540 
C 2112 2540 2432 2041 2432 1260 
C 2432 550 2125 140 1600 140 
C 1267 140 979 287 979 447 
L 979 2060 
z
" id="NimbusRomNo9L-Regu-62" transform="scale(0.015625)"/>
       <path d="M 3053 2880 
L 2163 2880 
L 2163 2783 
C 2368 2764 2464 2701 2464 2580 
C 2464 2517 2451 2454 2426 2390 
L 1792 748 
L 1139 2371 
C 1101 2460 1082 2549 1082 2606 
C 1082 2720 1152 2764 1376 2783 
L 1376 2880 
L 122 2880 
L 122 2783 
C 365 2771 410 2707 704 2054 
L 1472 235 
C 1485 197 1504 152 1523 102 
C 1562 -13 1600 -64 1638 -64 
C 1677 -64 1722 19 1818 254 
L 2637 2289 
C 2822 2720 2861 2764 3053 2783 
L 3053 2880 
z
" id="NimbusRomNo9L-Regu-76" transform="scale(0.015625)"/>
       <path d="M 2202 -64 
L 3142 268 
L 3142 371 
C 3027 364 3014 364 2995 364 
C 2765 364 2714 435 2714 729 
L 2714 4358 
L 2682 4371 
C 2374 4262 2150 4198 1741 4089 
L 1741 3987 
C 1792 3993 1830 3993 1882 3993 
C 2118 3993 2176 3929 2176 3667 
L 2176 2668 
C 1933 2873 1760 2944 1504 2944 
C 768 2944 173 2220 173 1312 
C 173 492 653 -64 1357 -64 
C 1715 -64 1958 64 2176 364 
L 2176 -45 
L 2202 -64 
z
M 2176 652 
C 2176 608 2131 531 2067 460 
C 1952 332 1792 268 1606 268 
C 1075 268 723 780 723 1568 
C 723 2291 1037 2764 1523 2764 
C 1862 2764 2176 2464 2176 2124 
L 2176 652 
z
" id="NimbusRomNo9L-Regu-64" transform="scale(0.015625)"/>
      </defs>
      <use transform="scale(0.996264)" xlink:href="#NimbusRomNo9L-Regu-45"/>
      <use transform="translate(60.871631 0)scale(0.996264)" xlink:href="#NimbusRomNo9L-Regu-71"/>
      <use transform="translate(110.684831 0)scale(0.996264)" xlink:href="#NimbusRomNo9L-Regu-75"/>
      <use transform="translate(160.498032 0)scale(0.996264)" xlink:href="#NimbusRomNo9L-Regu-69"/>
      <use transform="translate(188.193201 0)scale(0.996264)" xlink:href="#NimbusRomNo9L-Regu-6c"/>
      <use transform="translate(215.888371 0)scale(0.996264)" xlink:href="#NimbusRomNo9L-Regu-69"/>
      <use transform="translate(243.58354 0)scale(0.996264)" xlink:href="#NimbusRomNo9L-Regu-62"/>
      <use transform="translate(293.396741 0)scale(0.996264)" xlink:href="#NimbusRomNo9L-Regu-72"/>
      <use transform="translate(326.571971 0)scale(0.996264)" xlink:href="#NimbusRomNo9L-Regu-69"/>
      <use transform="translate(354.26714 0)scale(0.996264)" xlink:href="#NimbusRomNo9L-Regu-75"/>
      <use transform="translate(404.080341 0)scale(0.996264)" xlink:href="#NimbusRomNo9L-Regu-6d"/>
      <use transform="translate(506.495311 0)scale(0.996264)" xlink:href="#NimbusRomNo9L-Regu-70"/>
      <use transform="translate(556.308512 0)scale(0.996264)" xlink:href="#NimbusRomNo9L-Regu-72"/>
      <use transform="translate(589.483741 0)scale(0.996264)" xlink:href="#NimbusRomNo9L-Regu-6f"/>
      <use transform="translate(639.296942 0)scale(0.996264)" xlink:href="#NimbusRomNo9L-Regu-70"/>
      <use transform="translate(689.110142 0)scale(0.996264)" xlink:href="#NimbusRomNo9L-Regu-6f"/>
      <use transform="translate(738.923343 0)scale(0.996264)" xlink:href="#NimbusRomNo9L-Regu-72"/>
      <use transform="translate(772.098573 0)scale(0.996264)" xlink:href="#NimbusRomNo9L-Regu-74"/>
      <use transform="translate(799.793742 0)scale(0.996264)" xlink:href="#NimbusRomNo9L-Regu-69"/>
      <use transform="translate(827.488912 0)scale(0.996264)" xlink:href="#NimbusRomNo9L-Regu-6f"/>
      <use transform="translate(877.302112 0)scale(0.996264)" xlink:href="#NimbusRomNo9L-Regu-6e"/>
      <use transform="translate(952.021913 0)scale(0.996264)" xlink:href="#NimbusRomNo9L-Regu-6f"/>
      <use transform="translate(1001.835114 0)scale(0.996264)" xlink:href="#NimbusRomNo9L-Regu-66"/>
      <use transform="translate(1059.916944 0)scale(0.996264)" xlink:href="#NimbusRomNo9L-Regu-65"/>
      <use transform="translate(1101.659883 0)scale(0.996264)" xlink:href="#NimbusRomNo9L-Regu-76"/>
      <use transform="translate(1148.982453 0)scale(0.996264)" xlink:href="#NimbusRomNo9L-Regu-61"/>
      <use transform="translate(1193.216022 0)scale(0.996264)" xlink:href="#NimbusRomNo9L-Regu-64"/>
      <use transform="translate(1243.029223 0)scale(0.996264)" xlink:href="#NimbusRomNo9L-Regu-65"/>
      <use transform="translate(1287.262791 0)scale(0.996264)" xlink:href="#NimbusRomNo9L-Regu-72"/>
      <use transform="translate(1320.438021 0)scale(0.996264)" xlink:href="#NimbusRomNo9L-Regu-73"/>
     </g>
    </g>
    <g id="line2d_18">
     <path d="M 65.1712 157.846473 
L 85.1712 157.846473 
" style="fill:none;stroke:#000000;stroke-linecap:square;stroke-width:1.5;"/>
    </g>
    <g id="line2d_19"/>
    <g id="text_14">
     <!-- Equilibrium proportion of optimisers -->
     <g transform="translate(93.1712 161.346473)scale(0.1 -0.1)">
      <use transform="scale(0.996264)" xlink:href="#NimbusRomNo9L-Regu-45"/>
      <use transform="translate(60.871631 0)scale(0.996264)" xlink:href="#NimbusRomNo9L-Regu-71"/>
      <use transform="translate(110.684831 0)scale(0.996264)" xlink:href="#NimbusRomNo9L-Regu-75"/>
      <use transform="translate(160.498032 0)scale(0.996264)" xlink:href="#NimbusRomNo9L-Regu-69"/>
      <use transform="translate(188.193201 0)scale(0.996264)" xlink:href="#NimbusRomNo9L-Regu-6c"/>
      <use transform="translate(215.888371 0)scale(0.996264)" xlink:href="#NimbusRomNo9L-Regu-69"/>
      <use transform="translate(243.58354 0)scale(0.996264)" xlink:href="#NimbusRomNo9L-Regu-62"/>
      <use transform="translate(293.396741 0)scale(0.996264)" xlink:href="#NimbusRomNo9L-Regu-72"/>
      <use transform="translate(326.571971 0)scale(0.996264)" xlink:href="#NimbusRomNo9L-Regu-69"/>
      <use transform="translate(354.26714 0)scale(0.996264)" xlink:href="#NimbusRomNo9L-Regu-75"/>
      <use transform="translate(404.080341 0)scale(0.996264)" xlink:href="#NimbusRomNo9L-Regu-6d"/>
      <use transform="translate(506.495311 0)scale(0.996264)" xlink:href="#NimbusRomNo9L-Regu-70"/>
      <use transform="translate(556.308512 0)scale(0.996264)" xlink:href="#NimbusRomNo9L-Regu-72"/>
      <use transform="translate(589.483741 0)scale(0.996264)" xlink:href="#NimbusRomNo9L-Regu-6f"/>
      <use transform="translate(639.296942 0)scale(0.996264)" xlink:href="#NimbusRomNo9L-Regu-70"/>
      <use transform="translate(689.110142 0)scale(0.996264)" xlink:href="#NimbusRomNo9L-Regu-6f"/>
      <use transform="translate(738.923343 0)scale(0.996264)" xlink:href="#NimbusRomNo9L-Regu-72"/>
      <use transform="translate(772.098573 0)scale(0.996264)" xlink:href="#NimbusRomNo9L-Regu-74"/>
      <use transform="translate(799.793742 0)scale(0.996264)" xlink:href="#NimbusRomNo9L-Regu-69"/>
      <use transform="translate(827.488912 0)scale(0.996264)" xlink:href="#NimbusRomNo9L-Regu-6f"/>
      <use transform="translate(877.302112 0)scale(0.996264)" xlink:href="#NimbusRomNo9L-Regu-6e"/>
      <use transform="translate(952.021913 0)scale(0.996264)" xlink:href="#NimbusRomNo9L-Regu-6f"/>
      <use transform="translate(1001.835114 0)scale(0.996264)" xlink:href="#NimbusRomNo9L-Regu-66"/>
      <use transform="translate(1059.916944 0)scale(0.996264)" xlink:href="#NimbusRomNo9L-Regu-6f"/>
      <use transform="translate(1109.730144 0)scale(0.996264)" xlink:href="#NimbusRomNo9L-Regu-70"/>
      <use transform="translate(1159.543345 0)scale(0.996264)" xlink:href="#NimbusRomNo9L-Regu-74"/>
      <use transform="translate(1187.238514 0)scale(0.996264)" xlink:href="#NimbusRomNo9L-Regu-69"/>
      <use transform="translate(1214.933684 0)scale(0.996264)" xlink:href="#NimbusRomNo9L-Regu-6d"/>
      <use transform="translate(1292.442054 0)scale(0.996264)" xlink:href="#NimbusRomNo9L-Regu-69"/>
      <use transform="translate(1320.137223 0)scale(0.996264)" xlink:href="#NimbusRomNo9L-Regu-73"/>
      <use transform="translate(1358.89093 0)scale(0.996264)" xlink:href="#NimbusRomNo9L-Regu-65"/>
      <use transform="translate(1403.124498 0)scale(0.996264)" xlink:href="#NimbusRomNo9L-Regu-72"/>
      <use transform="translate(1436.299728 0)scale(0.996264)" xlink:href="#NimbusRomNo9L-Regu-73"/>
     </g>
    </g>
    <g id="line2d_20">
     <path d="M 65.1712 172.003302 
L 85.1712 172.003302 
" style="fill:none;stroke:#808080;stroke-dasharray:5.55,2.4;stroke-dashoffset:0;stroke-width:1.5;"/>
    </g>
    <g id="line2d_21"/>
    <g id="text_15">
     <!-- Equilibrium proportion of non-optimisers -->
     <g transform="translate(93.1712 175.503302)scale(0.1 -0.1)">
      <defs>
       <path d="M 250 1664 
L 250 1260 
L 1824 1260 
L 1824 1664 
L 250 1664 
z
" id="NimbusRomNo9L-Regu-2d" transform="scale(0.015625)"/>
      </defs>
      <use transform="scale(0.996264)" xlink:href="#NimbusRomNo9L-Regu-45"/>
      <use transform="translate(60.871631 0)scale(0.996264)" xlink:href="#NimbusRomNo9L-Regu-71"/>
      <use transform="translate(110.684831 0)scale(0.996264)" xlink:href="#NimbusRomNo9L-Regu-75"/>
      <use transform="translate(160.498032 0)scale(0.996264)" xlink:href="#NimbusRomNo9L-Regu-69"/>
      <use transform="translate(188.193201 0)scale(0.996264)" xlink:href="#NimbusRomNo9L-Regu-6c"/>
      <use transform="translate(215.888371 0)scale(0.996264)" xlink:href="#NimbusRomNo9L-Regu-69"/>
      <use transform="translate(243.58354 0)scale(0.996264)" xlink:href="#NimbusRomNo9L-Regu-62"/>
      <use transform="translate(293.396741 0)scale(0.996264)" xlink:href="#NimbusRomNo9L-Regu-72"/>
      <use transform="translate(326.571971 0)scale(0.996264)" xlink:href="#NimbusRomNo9L-Regu-69"/>
      <use transform="translate(354.26714 0)scale(0.996264)" xlink:href="#NimbusRomNo9L-Regu-75"/>
      <use transform="translate(404.080341 0)scale(0.996264)" xlink:href="#NimbusRomNo9L-Regu-6d"/>
      <use transform="translate(506.495311 0)scale(0.996264)" xlink:href="#NimbusRomNo9L-Regu-70"/>
      <use transform="translate(556.308512 0)scale(0.996264)" xlink:href="#NimbusRomNo9L-Regu-72"/>
      <use transform="translate(589.483741 0)scale(0.996264)" xlink:href="#NimbusRomNo9L-Regu-6f"/>
      <use transform="translate(639.296942 0)scale(0.996264)" xlink:href="#NimbusRomNo9L-Regu-70"/>
      <use transform="translate(689.110142 0)scale(0.996264)" xlink:href="#NimbusRomNo9L-Regu-6f"/>
      <use transform="translate(738.923343 0)scale(0.996264)" xlink:href="#NimbusRomNo9L-Regu-72"/>
      <use transform="translate(772.098573 0)scale(0.996264)" xlink:href="#NimbusRomNo9L-Regu-74"/>
      <use transform="translate(799.793742 0)scale(0.996264)" xlink:href="#NimbusRomNo9L-Regu-69"/>
      <use transform="translate(827.488912 0)scale(0.996264)" xlink:href="#NimbusRomNo9L-Regu-6f"/>
      <use transform="translate(877.302112 0)scale(0.996264)" xlink:href="#NimbusRomNo9L-Regu-6e"/>
      <use transform="translate(952.021913 0)scale(0.996264)" xlink:href="#NimbusRomNo9L-Regu-6f"/>
      <use transform="translate(1001.835114 0)scale(0.996264)" xlink:href="#NimbusRomNo9L-Regu-66"/>
      <use transform="translate(1059.916944 0)scale(0.996264)" xlink:href="#NimbusRomNo9L-Regu-6e"/>
      <use transform="translate(1109.730144 0)scale(0.996264)" xlink:href="#NimbusRomNo9L-Regu-6f"/>
      <use transform="translate(1159.543345 0)scale(0.996264)" xlink:href="#NimbusRomNo9L-Regu-6e"/>
      <use transform="translate(1209.356545 0)scale(0.996264)" xlink:href="#NimbusRomNo9L-Regu-2d"/>
      <use transform="translate(1242.531775 0)scale(0.996264)" xlink:href="#NimbusRomNo9L-Regu-6f"/>
      <use transform="translate(1292.344975 0)scale(0.996264)" xlink:href="#NimbusRomNo9L-Regu-70"/>
      <use transform="translate(1342.158176 0)scale(0.996264)" xlink:href="#NimbusRomNo9L-Regu-74"/>
      <use transform="translate(1369.853345 0)scale(0.996264)" xlink:href="#NimbusRomNo9L-Regu-69"/>
      <use transform="translate(1397.548515 0)scale(0.996264)" xlink:href="#NimbusRomNo9L-Regu-6d"/>
      <use transform="translate(1475.056885 0)scale(0.996264)" xlink:href="#NimbusRomNo9L-Regu-69"/>
      <use transform="translate(1502.752055 0)scale(0.996264)" xlink:href="#NimbusRomNo9L-Regu-73"/>
      <use transform="translate(1541.505761 0)scale(0.996264)" xlink:href="#NimbusRomNo9L-Regu-65"/>
      <use transform="translate(1585.73933 0)scale(0.996264)" xlink:href="#NimbusRomNo9L-Regu-72"/>
      <use transform="translate(1618.914559 0)scale(0.996264)" xlink:href="#NimbusRomNo9L-Regu-73"/>
     </g>
    </g>
    <g id="line2d_22">
     <path d="M 65.1712 186.160131 
L 85.1712 186.160131 
" style="fill:none;stroke:#808080;stroke-dasharray:1.5,2.475;stroke-dashoffset:0;stroke-width:1.5;"/>
    </g>
    <g id="line2d_23"/>
    <g id="text_16">
     <!-- Equilibrium effective tax rate -->
     <g transform="translate(93.1712 189.660131)scale(0.1 -0.1)">
      <defs>
       <path d="M 2547 998 
C 2240 550 2010 396 1645 396 
C 1062 396 653 908 653 1644 
C 653 2303 1005 2758 1523 2758 
C 1754 2758 1837 2687 1901 2451 
L 1939 2310 
C 1990 2131 2106 2015 2240 2015 
C 2406 2015 2547 2137 2547 2284 
C 2547 2643 2099 2944 1562 2944 
C 1248 2944 922 2815 659 2585 
C 339 2303 160 1868 160 1363 
C 160 531 666 -64 1376 -64 
C 1664 -64 1920 38 2150 236 
C 2323 390 2445 563 2637 940 
L 2547 998 
z
" id="NimbusRomNo9L-Regu-63" transform="scale(0.015625)"/>
       <path d="M 1779 0 
L 3066 0 
L 3066 96 
C 2867 96 2739 198 2541 480 
L 1722 1734 
L 2253 2502 
C 2374 2675 2566 2777 2771 2783 
L 2771 2880 
L 1760 2880 
L 1760 2783 
C 1952 2771 2016 2732 2016 2643 
C 2016 2566 1939 2425 1779 2227 
C 1747 2188 1670 2073 1587 1945 
L 1498 2073 
C 1318 2342 1203 2560 1203 2643 
C 1203 2732 1286 2777 1478 2783 
L 1478 2880 
L 154 2880 
L 154 2783 
L 211 2783 
C 403 2783 506 2700 704 2400 
L 1306 1478 
L 576 422 
C 384 160 320 115 109 96 
L 109 0 
L 1037 0 
L 1037 96 
C 858 96 781 128 781 211 
C 781 249 826 345 909 473 
L 1414 1260 
L 1997 364 
C 2022 326 2035 288 2035 249 
C 2035 134 1990 108 1779 96 
L 1779 0 
z
" id="NimbusRomNo9L-Regu-78" transform="scale(0.015625)"/>
      </defs>
      <use transform="scale(0.996264)" xlink:href="#NimbusRomNo9L-Regu-45"/>
      <use transform="translate(60.871631 0)scale(0.996264)" xlink:href="#NimbusRomNo9L-Regu-71"/>
      <use transform="translate(110.684831 0)scale(0.996264)" xlink:href="#NimbusRomNo9L-Regu-75"/>
      <use transform="translate(160.498032 0)scale(0.996264)" xlink:href="#NimbusRomNo9L-Regu-69"/>
      <use transform="translate(188.193201 0)scale(0.996264)" xlink:href="#NimbusRomNo9L-Regu-6c"/>
      <use transform="translate(215.888371 0)scale(0.996264)" xlink:href="#NimbusRomNo9L-Regu-69"/>
      <use transform="translate(243.58354 0)scale(0.996264)" xlink:href="#NimbusRomNo9L-Regu-62"/>
      <use transform="translate(293.396741 0)scale(0.996264)" xlink:href="#NimbusRomNo9L-Regu-72"/>
      <use transform="translate(326.571971 0)scale(0.996264)" xlink:href="#NimbusRomNo9L-Regu-69"/>
      <use transform="translate(354.26714 0)scale(0.996264)" xlink:href="#NimbusRomNo9L-Regu-75"/>
      <use transform="translate(404.080341 0)scale(0.996264)" xlink:href="#NimbusRomNo9L-Regu-6d"/>
      <use transform="translate(506.495311 0)scale(0.996264)" xlink:href="#NimbusRomNo9L-Regu-65"/>
      <use transform="translate(550.72888 0)scale(0.996264)" xlink:href="#NimbusRomNo9L-Regu-66"/>
      <use transform="translate(581.41348 0)scale(0.996264)" xlink:href="#NimbusRomNo9L-Regu-66"/>
      <use transform="translate(614.588527 0)scale(0.996264)" xlink:href="#NimbusRomNo9L-Regu-65"/>
      <use transform="translate(658.822096 0)scale(0.996264)" xlink:href="#NimbusRomNo9L-Regu-63"/>
      <use transform="translate(703.055665 0)scale(0.996264)" xlink:href="#NimbusRomNo9L-Regu-74"/>
      <use transform="translate(730.750834 0)scale(0.996264)" xlink:href="#NimbusRomNo9L-Regu-69"/>
      <use transform="translate(755.955374 0)scale(0.996264)" xlink:href="#NimbusRomNo9L-Regu-76"/>
      <use transform="translate(804.275182 0)scale(0.996264)" xlink:href="#NimbusRomNo9L-Regu-65"/>
      <use transform="translate(873.415351 0)scale(0.996264)" xlink:href="#NimbusRomNo9L-Regu-74"/>
      <use transform="translate(901.110521 0)scale(0.996264)" xlink:href="#NimbusRomNo9L-Regu-61"/>
      <use transform="translate(945.344089 0)scale(0.996264)" xlink:href="#NimbusRomNo9L-Regu-78"/>
      <use transform="translate(1020.06389 0)scale(0.996264)" xlink:href="#NimbusRomNo9L-Regu-72"/>
      <use transform="translate(1053.23912 0)scale(0.996264)" xlink:href="#NimbusRomNo9L-Regu-61"/>
      <use transform="translate(1097.472688 0)scale(0.996264)" xlink:href="#NimbusRomNo9L-Regu-74"/>
      <use transform="translate(1125.167858 0)scale(0.996264)" xlink:href="#NimbusRomNo9L-Regu-65"/>
     </g>
    </g>
   </g>
  </g>
 </g>
 <defs>
  <clipPath id="p0011f34b80">
   <rect height="266.112" width="357.12" x="57.6" y="41.472"/>
  </clipPath>
 </defs>
</svg>
