<?xml version="1.0" encoding="utf-8" standalone="no"?>
<!DOCTYPE svg PUBLIC "-//W3C//DTD SVG 1.1//EN"
  "http://www.w3.org/Graphics/SVG/1.1/DTD/svg11.dtd">
<svg height="345.6pt" version="1.1" viewBox="0 0 460.8 345.6" width="460.8pt" xmlns="http://www.w3.org/2000/svg" xmlns:xlink="http://www.w3.org/1999/xlink">
 <metadata>
  <rdf:RDF xmlns:cc="http://creativecommons.org/ns#" xmlns:dc="http://purl.org/dc/elements/1.1/" xmlns:rdf="http://www.w3.org/1999/02/22-rdf-syntax-ns#">
   <cc:Work>
    <dc:type rdf:resource="http://purl.org/dc/dcmitype/StillImage"/>
    <dc:date>2023-05-30T10:37:14.300762</dc:date>
    <dc:format>image/svg+xml</dc:format>
    <dc:creator>
     <cc:Agent>
      <dc:title>Matplotlib v3.4.3, https://matplotlib.org/</dc:title>
     </cc:Agent>
    </dc:creator>
   </cc:Work>
  </rdf:RDF>
 </metadata>
 <defs>
  <style type="text/css">*{stroke-linecap:butt;stroke-linejoin:round;}</style>
 </defs>
 <g id="figure_1">
  <g id="patch_1">
   <path d="M 0 345.6 
L 460.8 345.6 
L 460.8 0 
L 0 0 
z
" style="fill:#ffffff;"/>
  </g>
  <g id="axes_1">
   <g id="patch_2">
    <path d="M 57.6 307.584 
L 414.72 307.584 
L 414.72 41.472 
L 57.6 41.472 
z
" style="fill:#ffffff;"/>
   </g>
   <g id="matplotlib.axis_1">
    <g id="xtick_1">
     <g id="line2d_1">
      <defs>
       <path d="M 0 0 
L 0 3.5 
" id="m7277eaca7f" style="stroke:#000000;stroke-width:0.8;"/>
      </defs>
      <g>
       <use style="stroke:#000000;stroke-width:0.8;" x="73.832727" xlink:href="#m7277eaca7f" y="307.584"/>
      </g>
     </g>
     <g id="text_1">
      <!-- $\mathdefault{0.0}$ -->
      <g transform="translate(67.471633 321.338578)scale(0.1 -0.1)">
       <defs>
        <path d="M 1626 4352 
C 1274 4352 1005 4243 768 4019 
C 397 3661 154 2924 154 2176 
C 154 1478 365 729 666 371 
C 902 89 1229 -64 1600 -64 
C 1926 -64 2202 44 2432 268 
C 2803 620 3046 1363 3046 2137 
C 3046 3449 2464 4352 1626 4352 
z
M 1606 4185 
C 2144 4185 2432 3462 2432 2124 
C 2432 787 2150 102 1600 102 
C 1050 102 768 787 768 2118 
C 768 3475 1056 4185 1606 4185 
z
" id="NimbusRomNo9L-Regu-30" transform="scale(0.015625)"/>
        <path d="M 1229 339 
C 1229 524 1075 678 890 678 
C 704 678 550 524 550 339 
C 550 153 704 0 890 0 
C 1075 0 1229 153 1229 339 
z
" id="CMMI10-3a" transform="scale(0.015625)"/>
       </defs>
       <use transform="scale(0.996264)" xlink:href="#NimbusRomNo9L-Regu-30"/>
       <use transform="translate(49.8132 0)scale(0.996264)" xlink:href="#CMMI10-3a"/>
       <use transform="translate(77.408707 0)scale(0.996264)" xlink:href="#NimbusRomNo9L-Regu-30"/>
      </g>
     </g>
    </g>
    <g id="xtick_2">
     <g id="line2d_2">
      <g>
       <use style="stroke:#000000;stroke-width:0.8;" x="142.908162" xlink:href="#m7277eaca7f" y="307.584"/>
      </g>
     </g>
     <g id="text_2">
      <!-- $\mathdefault{0.2}$ -->
      <g transform="translate(136.547068 321.338578)scale(0.1 -0.1)">
       <defs>
        <path d="M 3040 879 
L 2957 912 
C 2720 544 2637 486 2349 486 
L 819 486 
L 1894 1621 
C 2464 2221 2714 2711 2714 3214 
C 2714 3858 2195 4352 1530 4352 
C 1178 4352 845 4211 608 3955 
C 403 3736 307 3530 198 3072 
L 333 3039 
C 589 3671 819 3878 1261 3878 
C 1798 3878 2163 3510 2163 2969 
C 2163 2466 1869 1866 1331 1292 
L 192 76 
L 192 0 
L 2688 0 
L 3040 879 
z
" id="NimbusRomNo9L-Regu-32" transform="scale(0.015625)"/>
       </defs>
       <use transform="scale(0.996264)" xlink:href="#NimbusRomNo9L-Regu-30"/>
       <use transform="translate(49.8132 0)scale(0.996264)" xlink:href="#CMMI10-3a"/>
       <use transform="translate(77.408707 0)scale(0.996264)" xlink:href="#NimbusRomNo9L-Regu-32"/>
      </g>
     </g>
    </g>
    <g id="xtick_3">
     <g id="line2d_3">
      <g>
       <use style="stroke:#000000;stroke-width:0.8;" x="211.983598" xlink:href="#m7277eaca7f" y="307.584"/>
      </g>
     </g>
     <g id="text_3">
      <!-- $\mathdefault{0.4}$ -->
      <g transform="translate(205.622503 321.338578)scale(0.1 -0.1)">
       <defs>
        <path d="M 3021 1497 
L 2368 1497 
L 2368 4352 
L 2086 4352 
L 77 1497 
L 77 1088 
L 1875 1088 
L 1875 0 
L 2368 0 
L 2368 1088 
L 3021 1088 
L 3021 1497 
z
M 1869 1497 
L 333 1497 
L 1869 3697 
L 1869 1497 
z
" id="NimbusRomNo9L-Regu-34" transform="scale(0.015625)"/>
       </defs>
       <use transform="scale(0.996264)" xlink:href="#NimbusRomNo9L-Regu-30"/>
       <use transform="translate(49.8132 0)scale(0.996264)" xlink:href="#CMMI10-3a"/>
       <use transform="translate(77.408707 0)scale(0.996264)" xlink:href="#NimbusRomNo9L-Regu-34"/>
      </g>
     </g>
    </g>
    <g id="xtick_4">
     <g id="line2d_4">
      <g>
       <use style="stroke:#000000;stroke-width:0.8;" x="281.059033" xlink:href="#m7277eaca7f" y="307.584"/>
      </g>
     </g>
     <g id="text_4">
      <!-- $\mathdefault{0.6}$ -->
      <g transform="translate(274.697938 321.338578)scale(0.1 -0.1)">
       <defs>
        <path d="M 2854 4390 
C 2125 4326 1754 4204 1286 3878 
C 595 3385 218 2655 218 1801 
C 218 1248 390 688 666 369 
C 909 89 1254 -64 1651 -64 
C 2445 -64 2995 541 2995 1420 
C 2995 2234 2528 2752 1792 2752 
C 1510 2752 1376 2707 973 2463 
C 1146 3430 1862 4121 2867 4288 
L 2854 4390 
z
M 1549 2457 
C 2099 2457 2419 1999 2419 1203 
C 2419 503 2170 115 1722 115 
C 1158 115 813 713 813 1700 
C 813 2024 864 2203 992 2298 
C 1126 2400 1325 2457 1549 2457 
z
" id="NimbusRomNo9L-Regu-36" transform="scale(0.015625)"/>
       </defs>
       <use transform="scale(0.996264)" xlink:href="#NimbusRomNo9L-Regu-30"/>
       <use transform="translate(49.8132 0)scale(0.996264)" xlink:href="#CMMI10-3a"/>
       <use transform="translate(77.408707 0)scale(0.996264)" xlink:href="#NimbusRomNo9L-Regu-36"/>
      </g>
     </g>
    </g>
    <g id="xtick_5">
     <g id="line2d_5">
      <g>
       <use style="stroke:#000000;stroke-width:0.8;" x="350.134468" xlink:href="#m7277eaca7f" y="307.584"/>
      </g>
     </g>
     <g id="text_5">
      <!-- $\mathdefault{0.8}$ -->
      <g transform="translate(343.773373 321.338578)scale(0.1 -0.1)">
       <defs>
        <path d="M 1856 2400 
C 2490 2739 2714 3008 2714 3443 
C 2714 3968 2253 4352 1613 4352 
C 915 4352 397 3923 397 3341 
C 397 2924 518 2739 1190 2150 
C 499 1625 358 1427 358 992 
C 358 371 864 -64 1587 -64 
C 2355 -64 2848 358 2848 1017 
C 2848 1510 2630 1824 1856 2400 
z
M 1741 1740 
C 2208 1408 2362 1177 2362 819 
C 2362 403 2074 115 1658 115 
C 1171 115 845 486 845 1043 
C 845 1452 986 1721 1357 2022 
L 1741 1740 
z
M 1670 2515 
C 1101 2886 870 3180 870 3539 
C 870 3910 1158 4172 1562 4172 
C 1997 4172 2272 3891 2272 3449 
C 2272 3084 2093 2796 1728 2553 
C 1696 2534 1696 2534 1670 2515 
z
" id="NimbusRomNo9L-Regu-38" transform="scale(0.015625)"/>
       </defs>
       <use transform="scale(0.996264)" xlink:href="#NimbusRomNo9L-Regu-30"/>
       <use transform="translate(49.8132 0)scale(0.996264)" xlink:href="#CMMI10-3a"/>
       <use transform="translate(77.408707 0)scale(0.996264)" xlink:href="#NimbusRomNo9L-Regu-38"/>
      </g>
     </g>
    </g>
    <g id="text_6">
     <!-- Initial proportion of optimisers -->
     <g transform="translate(174.586716 334.249984)scale(0.1 -0.1)">
      <defs>
       <path d="M 736 695 
C 736 217 653 140 115 121 
L 115 0 
L 2016 0 
L 2016 121 
C 1491 140 1389 230 1389 695 
L 1389 3528 
C 1389 3994 1478 4077 2016 4102 
L 2016 4224 
L 115 4224 
L 115 4102 
C 659 4070 736 4000 736 3528 
L 736 695 
z
" id="NimbusRomNo9L-Regu-49" transform="scale(0.015625)"/>
       <path d="M 102 2547 
C 141 2566 205 2572 275 2572 
C 454 2572 512 2476 512 2163 
L 512 576 
C 512 211 442 121 115 96 
L 115 0 
L 1472 0 
L 1472 96 
C 1146 121 1050 198 1050 428 
L 1050 2227 
C 1357 2515 1498 2591 1709 2591 
C 2022 2591 2176 2393 2176 1971 
L 2176 633 
C 2176 230 2093 121 1773 96 
L 1773 0 
L 3104 0 
L 3104 96 
C 2790 128 2714 204 2714 518 
L 2714 1984 
C 2714 2585 2432 2944 1958 2944 
C 1664 2944 1466 2835 1030 2425 
L 1030 2931 
L 986 2944 
C 672 2828 454 2758 102 2655 
L 102 2547 
z
" id="NimbusRomNo9L-Regu-6e" transform="scale(0.015625)"/>
       <path d="M 1120 2944 
L 128 2592 
L 128 2496 
L 179 2502 
C 256 2515 339 2521 397 2521 
C 550 2521 608 2419 608 2137 
L 608 652 
C 608 192 544 121 102 96 
L 102 0 
L 1619 0 
L 1619 96 
C 1197 128 1146 192 1146 652 
L 1146 2924 
L 1120 2944 
z
M 819 4352 
C 646 4352 499 4204 499 4025 
C 499 3846 640 3699 819 3699 
C 1005 3699 1152 3839 1152 4025 
C 1152 4204 1005 4352 819 4352 
z
" id="NimbusRomNo9L-Regu-69" transform="scale(0.015625)"/>
       <path d="M 1632 2880 
L 986 2880 
L 986 3622 
C 986 3686 979 3705 941 3705 
C 896 3648 858 3590 813 3526 
C 570 3174 294 2867 192 2841 
C 122 2796 83 2751 83 2719 
C 83 2700 90 2687 109 2675 
L 448 2675 
L 448 748 
C 448 211 640 -64 1018 -64 
C 1331 -64 1574 89 1786 422 
L 1702 492 
C 1568 332 1459 268 1318 268 
C 1082 268 986 441 986 844 
L 986 2675 
L 1632 2675 
L 1632 2880 
z
" id="NimbusRomNo9L-Regu-74" transform="scale(0.015625)"/>
       <path d="M 2829 422 
C 2720 332 2643 300 2547 300 
C 2400 300 2355 390 2355 672 
L 2355 1920 
C 2355 2252 2323 2438 2227 2592 
C 2086 2822 1811 2944 1434 2944 
C 832 2944 358 2630 358 2227 
C 358 2080 486 1952 634 1952 
C 787 1952 922 2080 922 2220 
C 922 2246 915 2278 909 2323 
C 896 2380 890 2432 890 2476 
C 890 2649 1094 2790 1350 2790 
C 1664 2790 1837 2604 1837 2259 
L 1837 1868 
C 851 1472 742 1420 467 1177 
C 326 1049 237 832 237 620 
C 237 217 518 -64 909 -64 
C 1190 -64 1453 70 1843 403 
C 1875 70 1990 -64 2253 -64 
C 2470 -64 2605 12 2829 256 
L 2829 422 
z
M 1837 787 
C 1837 588 1805 531 1670 454 
C 1517 364 1338 307 1203 307 
C 979 307 800 524 800 800 
L 800 825 
C 800 1203 1062 1433 1837 1715 
L 1837 787 
z
" id="NimbusRomNo9L-Regu-61" transform="scale(0.015625)"/>
       <path d="M 122 3987 
L 160 3987 
C 230 3993 307 4000 358 4000 
C 563 4000 627 3910 627 3609 
L 627 556 
C 627 211 538 128 134 96 
L 134 0 
L 1645 0 
L 1645 96 
C 1242 121 1165 185 1165 537 
L 1165 4358 
L 1139 4371 
C 806 4262 563 4198 122 4089 
L 122 3987 
z
" id="NimbusRomNo9L-Regu-6c" transform="scale(0.015625)"/>
       <path d="M 58 2515 
C 115 2521 160 2521 218 2521 
C 435 2521 480 2457 480 2157 
L 480 -839 
C 480 -1172 410 -1242 32 -1280 
L 32 -1389 
L 1581 -1389 
L 1581 -1280 
C 1101 -1274 1018 -1203 1018 -798 
L 1018 211 
C 1242 0 1395 -64 1664 -64 
C 2419 -64 3008 652 3008 1580 
C 3008 2374 2560 2944 1939 2944 
C 1581 2944 1299 2783 1018 2438 
L 1018 2931 
L 979 2944 
C 634 2809 410 2726 58 2617 
L 58 2515 
z
M 1018 2137 
C 1018 2329 1376 2559 1670 2559 
C 2144 2559 2458 2073 2458 1331 
C 2458 620 2144 140 1683 140 
C 1382 140 1018 371 1018 563 
L 1018 2137 
z
" id="NimbusRomNo9L-Regu-70" transform="scale(0.015625)"/>
       <path d="M 45 2496 
C 134 2515 192 2521 269 2521 
C 429 2521 486 2419 486 2137 
L 486 537 
C 486 217 442 172 32 96 
L 32 0 
L 1568 0 
L 1568 96 
C 1133 115 1024 211 1024 576 
L 1024 2016 
C 1024 2220 1299 2540 1472 2540 
C 1510 2540 1568 2508 1638 2444 
C 1741 2355 1811 2316 1894 2316 
C 2048 2316 2144 2425 2144 2604 
C 2144 2815 2010 2944 1792 2944 
C 1523 2944 1338 2796 1024 2342 
L 1024 2931 
L 992 2944 
C 653 2803 422 2720 45 2598 
L 45 2496 
z
" id="NimbusRomNo9L-Regu-72" transform="scale(0.015625)"/>
       <path d="M 1600 2944 
C 768 2944 186 2329 186 1446 
C 186 582 781 -64 1587 -64 
C 2394 -64 3008 614 3008 1497 
C 3008 2336 2419 2944 1600 2944 
z
M 1517 2764 
C 2054 2764 2432 2150 2432 1273 
C 2432 550 2144 115 1664 115 
C 1414 115 1178 268 1043 524 
C 864 857 762 1305 762 1760 
C 762 2368 1062 2764 1517 2764 
z
" id="NimbusRomNo9L-Regu-6f" transform="scale(0.015625)"/>
       <path d="M 1978 2880 
L 1190 2880 
L 1190 3611 
C 1190 3977 1312 4172 1555 4172 
C 1690 4172 1779 4109 1894 3926 
C 1997 3762 2074 3699 2182 3699 
C 2330 3699 2451 3813 2451 3958 
C 2451 4185 2170 4352 1786 4352 
C 1389 4352 1050 4179 883 3889 
C 717 3611 666 3384 659 2880 
L 134 2880 
L 134 2675 
L 659 2675 
L 659 665 
C 659 198 589 121 128 96 
L 128 0 
L 1792 0 
L 1792 96 
C 1267 115 1197 185 1197 665 
L 1197 2675 
L 1978 2675 
L 1978 2880 
z
" id="NimbusRomNo9L-Regu-66" transform="scale(0.015625)"/>
       <path d="M 122 2547 
C 205 2566 256 2572 326 2572 
C 493 2572 550 2470 550 2163 
L 550 544 
C 550 198 461 102 102 96 
L 102 0 
L 1523 0 
L 1523 96 
C 1184 108 1088 179 1088 428 
L 1088 2233 
C 1088 2246 1139 2310 1184 2355 
C 1344 2502 1619 2611 1843 2611 
C 2125 2611 2266 2387 2266 1939 
L 2266 550 
C 2266 192 2195 121 1830 96 
L 1830 0 
L 3264 0 
L 3264 96 
C 2899 102 2803 211 2803 608 
L 2803 2220 
C 2995 2496 3206 2611 3501 2611 
C 3866 2611 3981 2438 3981 1907 
L 3981 556 
C 3981 192 3930 140 3558 96 
L 3558 0 
L 4960 0 
L 4960 96 
L 4794 108 
C 4602 121 4518 236 4518 486 
L 4518 1804 
C 4518 2560 4269 2944 3776 2944 
C 3405 2944 3078 2777 2733 2406 
C 2618 2771 2400 2944 2054 2944 
C 1773 2944 1594 2854 1062 2451 
L 1062 2931 
L 1018 2944 
C 691 2822 474 2751 122 2655 
L 122 2547 
z
" id="NimbusRomNo9L-Regu-6d" transform="scale(0.015625)"/>
       <path d="M 2016 2009 
L 1990 2880 
L 1920 2880 
L 1907 2867 
C 1850 2822 1843 2815 1818 2815 
C 1779 2815 1715 2828 1645 2860 
C 1504 2918 1363 2944 1197 2944 
C 691 2944 326 2617 326 2155 
C 326 1796 531 1539 1075 1231 
L 1446 1019 
C 1670 891 1779 737 1779 538 
C 1779 256 1574 76 1248 76 
C 1030 76 832 160 710 301 
C 576 461 518 609 435 974 
L 333 974 
L 333 -26 
L 416 -26 
C 461 38 486 51 563 51 
C 621 51 710 38 858 0 
C 1037 -39 1210 -64 1325 -64 
C 1818 -64 2227 307 2227 756 
C 2227 1077 2074 1289 1690 1520 
L 998 1930 
C 819 2033 723 2193 723 2366 
C 723 2623 922 2803 1216 2803 
C 1581 2803 1773 2585 1920 2014 
L 2016 2009 
z
" id="NimbusRomNo9L-Regu-73" transform="scale(0.015625)"/>
       <path d="M 2611 1052 
C 2304 564 2029 377 1619 377 
C 1254 377 979 564 794 930 
C 678 1174 634 1386 621 1779 
L 2592 1779 
C 2541 2193 2477 2377 2317 2580 
C 2125 2809 1830 2944 1498 2944 
C 1178 2944 877 2828 634 2612 
C 333 2351 160 1900 160 1374 
C 160 486 621 -64 1357 -64 
C 1965 -64 2445 313 2714 1007 
L 2611 1052 
z
M 634 1984 
C 704 2478 922 2713 1312 2713 
C 1702 2713 1856 2535 1939 1984 
L 634 1984 
z
" id="NimbusRomNo9L-Regu-65" transform="scale(0.015625)"/>
      </defs>
      <use transform="scale(0.996264)" xlink:href="#NimbusRomNo9L-Regu-49"/>
      <use transform="translate(33.17523 0)scale(0.996264)" xlink:href="#NimbusRomNo9L-Regu-6e"/>
      <use transform="translate(82.98843 0)scale(0.996264)" xlink:href="#NimbusRomNo9L-Regu-69"/>
      <use transform="translate(110.6836 0)scale(0.996264)" xlink:href="#NimbusRomNo9L-Regu-74"/>
      <use transform="translate(138.378769 0)scale(0.996264)" xlink:href="#NimbusRomNo9L-Regu-69"/>
      <use transform="translate(166.073939 0)scale(0.996264)" xlink:href="#NimbusRomNo9L-Regu-61"/>
      <use transform="translate(210.307508 0)scale(0.996264)" xlink:href="#NimbusRomNo9L-Regu-6c"/>
      <use transform="translate(262.909278 0)scale(0.996264)" xlink:href="#NimbusRomNo9L-Regu-70"/>
      <use transform="translate(312.722478 0)scale(0.996264)" xlink:href="#NimbusRomNo9L-Regu-72"/>
      <use transform="translate(345.897708 0)scale(0.996264)" xlink:href="#NimbusRomNo9L-Regu-6f"/>
      <use transform="translate(395.710908 0)scale(0.996264)" xlink:href="#NimbusRomNo9L-Regu-70"/>
      <use transform="translate(445.524109 0)scale(0.996264)" xlink:href="#NimbusRomNo9L-Regu-6f"/>
      <use transform="translate(495.337309 0)scale(0.996264)" xlink:href="#NimbusRomNo9L-Regu-72"/>
      <use transform="translate(528.512539 0)scale(0.996264)" xlink:href="#NimbusRomNo9L-Regu-74"/>
      <use transform="translate(556.207709 0)scale(0.996264)" xlink:href="#NimbusRomNo9L-Regu-69"/>
      <use transform="translate(583.902878 0)scale(0.996264)" xlink:href="#NimbusRomNo9L-Regu-6f"/>
      <use transform="translate(633.716079 0)scale(0.996264)" xlink:href="#NimbusRomNo9L-Regu-6e"/>
      <use transform="translate(708.435879 0)scale(0.996264)" xlink:href="#NimbusRomNo9L-Regu-6f"/>
      <use transform="translate(758.24908 0)scale(0.996264)" xlink:href="#NimbusRomNo9L-Regu-66"/>
      <use transform="translate(816.33091 0)scale(0.996264)" xlink:href="#NimbusRomNo9L-Regu-6f"/>
      <use transform="translate(866.14411 0)scale(0.996264)" xlink:href="#NimbusRomNo9L-Regu-70"/>
      <use transform="translate(915.957311 0)scale(0.996264)" xlink:href="#NimbusRomNo9L-Regu-74"/>
      <use transform="translate(943.652481 0)scale(0.996264)" xlink:href="#NimbusRomNo9L-Regu-69"/>
      <use transform="translate(971.34765 0)scale(0.996264)" xlink:href="#NimbusRomNo9L-Regu-6d"/>
      <use transform="translate(1048.85602 0)scale(0.996264)" xlink:href="#NimbusRomNo9L-Regu-69"/>
      <use transform="translate(1076.55119 0)scale(0.996264)" xlink:href="#NimbusRomNo9L-Regu-73"/>
      <use transform="translate(1115.304896 0)scale(0.996264)" xlink:href="#NimbusRomNo9L-Regu-65"/>
      <use transform="translate(1159.538465 0)scale(0.996264)" xlink:href="#NimbusRomNo9L-Regu-72"/>
      <use transform="translate(1192.713694 0)scale(0.996264)" xlink:href="#NimbusRomNo9L-Regu-73"/>
     </g>
    </g>
   </g>
   <g id="matplotlib.axis_2">
    <g id="ytick_1">
     <g id="line2d_6">
      <defs>
       <path d="M 0 0 
L -3.5 0 
" id="m7fc0acb14e" style="stroke:#000000;stroke-width:0.8;"/>
      </defs>
      <g>
       <use style="stroke:#000000;stroke-width:0.8;" x="57.6" xlink:href="#m7fc0acb14e" y="307.584"/>
      </g>
     </g>
     <g id="text_7">
      <!-- $\mathdefault{0.0}$ -->
      <g transform="translate(37.877811 310.961289)scale(0.1 -0.1)">
       <use transform="scale(0.996264)" xlink:href="#NimbusRomNo9L-Regu-30"/>
       <use transform="translate(49.8132 0)scale(0.996264)" xlink:href="#CMMI10-3a"/>
       <use transform="translate(77.408707 0)scale(0.996264)" xlink:href="#NimbusRomNo9L-Regu-30"/>
      </g>
     </g>
    </g>
    <g id="ytick_2">
     <g id="line2d_7">
      <g>
       <use style="stroke:#000000;stroke-width:0.8;" x="57.6" xlink:href="#m7fc0acb14e" y="254.3616"/>
      </g>
     </g>
     <g id="text_8">
      <!-- $\mathdefault{0.2}$ -->
      <g transform="translate(37.877811 257.738889)scale(0.1 -0.1)">
       <use transform="scale(0.996264)" xlink:href="#NimbusRomNo9L-Regu-30"/>
       <use transform="translate(49.8132 0)scale(0.996264)" xlink:href="#CMMI10-3a"/>
       <use transform="translate(77.408707 0)scale(0.996264)" xlink:href="#NimbusRomNo9L-Regu-32"/>
      </g>
     </g>
    </g>
    <g id="ytick_3">
     <g id="line2d_8">
      <g>
       <use style="stroke:#000000;stroke-width:0.8;" x="57.6" xlink:href="#m7fc0acb14e" y="201.1392"/>
      </g>
     </g>
     <g id="text_9">
      <!-- $\mathdefault{0.4}$ -->
      <g transform="translate(37.877811 204.516489)scale(0.1 -0.1)">
       <use transform="scale(0.996264)" xlink:href="#NimbusRomNo9L-Regu-30"/>
       <use transform="translate(49.8132 0)scale(0.996264)" xlink:href="#CMMI10-3a"/>
       <use transform="translate(77.408707 0)scale(0.996264)" xlink:href="#NimbusRomNo9L-Regu-34"/>
      </g>
     </g>
    </g>
    <g id="ytick_4">
     <g id="line2d_9">
      <g>
       <use style="stroke:#000000;stroke-width:0.8;" x="57.6" xlink:href="#m7fc0acb14e" y="147.9168"/>
      </g>
     </g>
     <g id="text_10">
      <!-- $\mathdefault{0.6}$ -->
      <g transform="translate(37.877811 151.294089)scale(0.1 -0.1)">
       <use transform="scale(0.996264)" xlink:href="#NimbusRomNo9L-Regu-30"/>
       <use transform="translate(49.8132 0)scale(0.996264)" xlink:href="#CMMI10-3a"/>
       <use transform="translate(77.408707 0)scale(0.996264)" xlink:href="#NimbusRomNo9L-Regu-36"/>
      </g>
     </g>
    </g>
    <g id="ytick_5">
     <g id="line2d_10">
      <g>
       <use style="stroke:#000000;stroke-width:0.8;" x="57.6" xlink:href="#m7fc0acb14e" y="94.6944"/>
      </g>
     </g>
     <g id="text_11">
      <!-- $\mathdefault{0.8}$ -->
      <g transform="translate(37.877811 98.071689)scale(0.1 -0.1)">
       <use transform="scale(0.996264)" xlink:href="#NimbusRomNo9L-Regu-30"/>
       <use transform="translate(49.8132 0)scale(0.996264)" xlink:href="#CMMI10-3a"/>
       <use transform="translate(77.408707 0)scale(0.996264)" xlink:href="#NimbusRomNo9L-Regu-38"/>
      </g>
     </g>
    </g>
    <g id="ytick_6">
     <g id="line2d_11">
      <g>
       <use style="stroke:#000000;stroke-width:0.8;" x="57.6" xlink:href="#m7fc0acb14e" y="41.472"/>
      </g>
     </g>
     <g id="text_12">
      <!-- $\mathdefault{1.0}$ -->
      <g transform="translate(37.877811 44.849289)scale(0.1 -0.1)">
       <defs>
        <path d="M 1862 4352 
L 710 3776 
L 710 3686 
C 787 3718 858 3743 883 3756 
C 998 3801 1107 3826 1171 3826 
C 1306 3826 1363 3731 1363 3525 
L 1363 599 
C 1363 386 1312 238 1210 179 
C 1114 121 1024 102 755 96 
L 755 0 
L 2522 0 
L 2522 96 
C 2016 102 1914 167 1914 477 
L 1914 4339 
L 1862 4352 
z
" id="NimbusRomNo9L-Regu-31" transform="scale(0.015625)"/>
       </defs>
       <use transform="scale(0.996264)" xlink:href="#NimbusRomNo9L-Regu-31"/>
       <use transform="translate(49.8132 0)scale(0.996264)" xlink:href="#CMMI10-3a"/>
       <use transform="translate(77.408707 0)scale(0.996264)" xlink:href="#NimbusRomNo9L-Regu-30"/>
      </g>
     </g>
    </g>
   </g>
   <g id="line2d_12">
    <path clip-path="url(#p7a8022b599)" d="M 73.832727 215.722138 
L 77.286499 214.327711 
L 80.740271 215.035569 
L 84.194043 216.291617 
L 87.647814 216.972864 
L 91.101586 215.219186 
L 94.555358 214.726879 
L 98.00913 216.419351 
L 101.462901 215.413448 
L 104.916673 213.678397 
L 108.370445 215.738104 
L 111.824217 216.74933 
L 115.277988 215.998894 
L 118.73176 216.39274 
L 122.185532 215.77536 
L 125.639304 215.189914 
L 129.093075 215.711493 
L 132.546847 216.169206 
L 136.000619 216.515151 
L 139.454391 215.977605 
L 142.908162 214.402222 
L 146.361934 213.715653 
L 149.815706 215.142013 
L 153.269478 214.386255 
L 156.72325 214.120143 
L 160.177021 215.72746 
L 163.630793 215.227169 
L 167.084565 216.983508 
L 170.538337 215.935027 
L 173.992108 215.966961 
L 177.44588 215.072824 
L 180.899652 214.503345 
L 184.353424 216.121306 
L 187.807195 214.08821 
L 191.260967 214.939768 
L 194.714739 215.440059 
L 198.168511 214.5406 
L 201.622282 215.296358 
L 205.076054 216.195817 
L 208.529826 215.402803 
L 211.983598 215.684882 
L 215.437369 216.115983 
L 218.891141 216.616274 
L 222.344913 215.06218 
L 225.798685 216.249039 
L 229.252456 216.195817 
L 232.706228 215.408125 
L 236.16 215.695526 
L 239.613772 215.211203 
L 243.067544 217.6275 
L 246.521315 214.354322 
L 249.975087 216.823841 
L 253.428859 215.008957 
L 256.882631 215.621015 
L 260.336402 215.801971 
L 263.790174 216.579018 
L 267.243946 215.456026 
L 270.697718 217.026086 
L 274.151489 215.243136 
L 277.605261 216.775941 
L 281.059033 215.780682 
L 284.512805 216.44064 
L 287.966576 216.121306 
L 291.420348 214.796068 
L 294.87412 216.009539 
L 298.327892 216.211784 
L 301.781663 216.424673 
L 305.235435 214.790746 
L 308.689207 215.791327 
L 312.142979 217.020764 
L 315.59675 215.328292 
L 319.050522 215.935027 
L 322.504294 216.823841 
L 325.958066 214.971702 
L 329.411838 214.96638 
L 332.865609 215.173947 
L 336.319381 215.786004 
L 339.773153 216.477896 
L 343.226925 215.711493 
L 346.680696 216.696108 
L 350.134468 215.801971 
L 353.58824 217.180431 
L 357.042012 216.094694 
L 360.495783 215.37087 
L 363.949555 215.503926 
L 367.403327 217.494444 
L 370.857099 215.72746 
L 374.31087 215.072824 
L 377.764642 216.08405 
L 381.218414 216.153239 
L 384.672186 214.732201 
L 388.125957 215.583759 
L 391.579729 215.599726 
L 395.033501 216.387418 
L 398.487273 216.956897 
" style="fill:none;stroke:#808080;stroke-linecap:square;stroke-width:1.5;"/>
   </g>
   <g id="line2d_13">
    <path clip-path="url(#p7a8022b599)" d="M 73.832727 229.575928 
L 77.286499 230.677632 
L 80.740271 229.724951 
L 84.194043 229.022415 
L 87.647814 229.139505 
L 91.101586 229.908568 
L 94.555358 230.166697 
L 98.00913 228.830815 
L 101.462901 229.373683 
L 104.916673 231.470646 
L 108.370445 230.05493 
L 111.824217 229.597217 
L 115.277988 230.581832 
L 118.73176 228.86807 
L 122.185532 229.823412 
L 125.639304 230.166697 
L 129.093075 230.124119 
L 132.546847 229.126199 
L 136.000619 229.703662 
L 139.454391 228.942582 
L 142.908162 230.187986 
L 146.361934 230.592476 
L 149.815706 229.682373 
L 153.269478 230.307736 
L 156.72325 230.549898 
L 160.177021 228.915971 
L 163.630793 229.565284 
L 167.084565 228.256013 
L 170.538337 229.203372 
L 173.992108 228.942582 
L 177.44588 230.012352 
L 180.899652 230.219919 
L 184.353424 229.84204 
L 187.807195 229.352394 
L 191.260967 230.022996 
L 194.714739 229.868652 
L 198.168511 229.937841 
L 201.622282 229.049027 
L 205.076054 229.591895 
L 208.529826 229.613184 
L 211.983598 229.214016 
L 215.437369 229.229983 
L 218.891141 229.219338 
L 222.344913 230.065574 
L 225.798685 229.512061 
L 229.252456 230.05493 
L 232.706228 229.60254 
L 236.16 228.86807 
L 239.613772 229.34175 
L 243.067544 228.692436 
L 246.521315 230.358298 
L 249.975087 228.564703 
L 253.428859 230.022996 
L 256.882631 230.597798 
L 260.336402 230.049608 
L 263.790174 230.15073 
L 267.243946 229.410939 
L 270.697718 229.091604 
L 274.151489 230.528609 
L 277.605261 228.607281 
L 281.059033 229.027738 
L 284.512805 229.84204 
L 287.966576 229.756884 
L 291.420348 230.693599 
L 294.87412 229.820751 
L 298.327892 229.458839 
L 301.781663 228.98516 
L 305.235435 230.278464 
L 308.689207 229.687695 
L 312.142979 229.538673 
L 315.59675 229.086282 
L 319.050522 229.661084 
L 322.504294 228.894682 
L 325.958066 230.544576 
L 329.411838 229.767529 
L 332.865609 230.257175 
L 336.319381 228.607281 
L 339.773153 228.841459 
L 343.226925 229.79414 
L 346.680696 229.852685 
L 350.134468 229.416261 
L 353.58824 228.458258 
L 357.042012 229.421583 
L 360.495783 229.900585 
L 363.949555 229.522706 
L 367.403327 228.069734 
L 370.857099 229.405617 
L 374.31087 229.203372 
L 377.764642 230.161375 
L 381.218414 229.852685 
L 384.672186 230.576509 
L 388.125957 229.873974 
L 391.579729 230.070897 
L 395.033501 228.660503 
L 398.487273 228.687114 
" style="fill:none;stroke:#000000;stroke-linecap:square;stroke-width:1.5;"/>
   </g>
   <g id="line2d_14">
    <path clip-path="url(#p7a8022b599)" d="M 73.832727 211.341934 
L 77.286499 211.634657 
L 80.740271 211.87948 
L 84.194043 211.325967 
L 87.647814 210.527631 
L 91.101586 211.512246 
L 94.555358 211.746424 
L 98.00913 211.389834 
L 101.462901 211.852869 
L 104.916673 211.490957 
L 108.370445 210.846966 
L 111.824217 210.293453 
L 115.277988 210.059274 
L 118.73176 211.37919 
L 122.185532 211.041228 
L 125.639304 211.283389 
L 129.093075 210.804388 
L 132.546847 211.344595 
L 136.000619 210.421187 
L 139.454391 211.719813 
L 142.908162 212.049792 
L 146.361934 212.331871 
L 149.815706 211.815613 
L 153.269478 211.946008 
L 156.72325 211.969958 
L 160.177021 211.99657 
L 163.630793 211.847547 
L 167.084565 211.400479 
L 170.538337 211.501601 
L 173.992108 211.730458 
L 177.44588 211.554824 
L 180.899652 211.916736 
L 184.353424 210.676654 
L 187.807195 213.199396 
L 191.260967 211.677235 
L 194.714739 211.33129 
L 198.168511 212.161559 
L 201.622282 212.294615 
L 205.076054 210.852288 
L 208.529826 211.624013 
L 211.983598 211.741102 
L 215.437369 211.294034 
L 218.891141 210.804388 
L 222.344913 211.512246 
L 225.798685 210.878899 
L 229.252456 210.389253 
L 232.706228 211.629335 
L 236.16 212.076403 
L 239.613772 212.087048 
L 243.067544 210.320064 
L 246.521315 211.92738 
L 249.975087 211.251456 
L 253.428859 211.608046 
L 256.882631 210.421187 
L 260.336402 210.788421 
L 263.790174 209.910252 
L 267.243946 211.773036 
L 270.697718 210.522309 
L 274.151489 210.868255 
L 277.605261 211.256778 
L 281.059033 211.83158 
L 284.512805 210.35732 
L 287.966576 210.76181 
L 291.420348 211.150333 
L 294.87412 210.80971 
L 298.327892 210.969377 
L 301.781663 211.230167 
L 305.235435 211.57079 
L 308.689207 211.160978 
L 312.142979 210.080563 
L 315.59675 212.225426 
L 319.050522 211.043889 
L 322.504294 210.921477 
L 325.958066 211.123722 
L 329.411838 211.906092 
L 332.865609 211.208878 
L 336.319381 212.246715 
L 339.773153 211.320645 
L 343.226925 211.134367 
L 346.680696 210.091208 
L 350.134468 211.421768 
L 353.58824 211.001311 
L 357.042012 211.123722 
L 360.495783 211.368545 
L 363.949555 211.613368 
L 367.403327 211.075822 
L 370.857099 211.506924 
L 374.31087 212.363804 
L 377.764642 210.394575 
L 381.218414 210.634076 
L 384.672186 211.33129 
L 388.125957 211.182267 
L 391.579729 210.969377 
L 395.033501 211.592079 
L 398.487273 210.995988 
" style="fill:none;stroke:#808080;stroke-dasharray:5.55,2.4;stroke-dashoffset:0;stroke-width:1.5;"/>
   </g>
   <g id="line2d_15">
    <path clip-path="url(#p7a8022b599)" d="M 73.832727 245.140007 
L 77.286499 245.469224 
L 80.740271 244.824837 
L 84.194043 244.457684 
L 87.647814 244.603197 
L 91.101586 244.87439 
L 94.555358 244.77247 
L 98.00913 244.171092 
L 101.462901 244.404082 
L 104.916673 245.39606 
L 108.370445 244.846247 
L 111.824217 244.281027 
L 115.277988 244.524308 
L 118.73176 244.514321 
L 122.185532 244.812132 
L 125.639304 245.090538 
L 129.093075 244.415384 
L 132.546847 244.572177 
L 136.000619 244.311824 
L 139.454391 244.351207 
L 142.908162 245.343553 
L 146.361934 245.447507 
L 149.815706 244.695831 
L 153.269478 245.250443 
L 156.72325 245.413849 
L 160.177021 244.789564 
L 163.630793 244.975688 
L 167.084565 244.169761 
L 170.538337 244.844735 
L 173.992108 244.538254 
L 177.44588 244.75473 
L 180.899652 245.170224 
L 184.353424 244.476355 
L 187.807195 245.543483 
L 191.260967 244.681459 
L 194.714739 244.987652 
L 198.168511 245.084889 
L 201.622282 244.882928 
L 205.076054 244.416628 
L 208.529826 245.477989 
L 211.983598 244.68057 
L 215.437369 244.705816 
L 218.891141 244.393855 
L 222.344913 244.663154 
L 225.798685 244.758597 
L 229.252456 244.21238 
L 232.706228 244.981877 
L 236.16 244.866626 
L 239.613772 244.979792 
L 243.067544 243.969276 
L 246.521315 245.182426 
L 249.975087 243.91235 
L 253.428859 245.286279 
L 256.882631 244.703613 
L 260.336402 244.632279 
L 263.790174 244.486403 
L 267.243946 244.932366 
L 270.697718 243.922068 
L 274.151489 244.7472 
L 277.605261 244.247016 
L 281.059033 244.721049 
L 284.512805 244.675828 
L 287.966576 244.220563 
L 291.420348 245.619712 
L 294.87412 244.748085 
L 298.327892 244.788663 
L 301.781663 244.249663 
L 305.235435 244.795756 
L 308.689207 244.621069 
L 312.142979 244.232386 
L 315.59675 244.969978 
L 319.050522 244.707869 
L 322.504294 244.31598 
L 325.958066 245.374719 
L 329.411838 245.005365 
L 332.865609 245.142883 
L 336.319381 245.003075 
L 339.773153 244.477224 
L 343.226925 244.85302 
L 346.680696 244.254854 
L 350.134468 244.90978 
L 353.58824 243.902635 
L 357.042012 244.768235 
L 360.495783 244.865066 
L 363.949555 244.988599 
L 367.403327 244.308683 
L 370.857099 244.760397 
L 374.31087 244.676544 
L 377.764642 244.137953 
L 381.218414 244.102894 
L 384.672186 244.85926 
L 388.125957 244.76914 
L 391.579729 244.814982 
L 395.033501 244.763672 
L 398.487273 244.268811 
" style="fill:none;stroke:#808080;stroke-dasharray:1.5,2.475;stroke-dashoffset:0;stroke-width:1.5;"/>
   </g>
   <g id="patch_3">
    <path d="M 57.6 307.584 
L 57.6 41.472 
" style="fill:none;stroke:#000000;stroke-linecap:square;stroke-linejoin:miter;stroke-width:0.8;"/>
   </g>
   <g id="patch_4">
    <path d="M 414.72 307.584 
L 414.72 41.472 
" style="fill:none;stroke:#000000;stroke-linecap:square;stroke-linejoin:miter;stroke-width:0.8;"/>
   </g>
   <g id="patch_5">
    <path d="M 57.6 307.584 
L 414.72 307.584 
" style="fill:none;stroke:#000000;stroke-linecap:square;stroke-linejoin:miter;stroke-width:0.8;"/>
   </g>
   <g id="patch_6">
    <path d="M 57.6 41.472 
L 414.72 41.472 
" style="fill:none;stroke:#000000;stroke-linecap:square;stroke-linejoin:miter;stroke-width:0.8;"/>
   </g>
   <g id="legend_1">
    <g id="patch_7">
     <path d="M 95.312 174.528 
L 293.078635 174.528 
Q 295.078635 174.528 295.078635 172.528 
L 295.078635 116.900684 
Q 295.078635 114.900684 293.078635 114.900684 
L 95.312 114.900684 
Q 93.312 114.900684 93.312 116.900684 
L 93.312 172.528 
Q 93.312 174.528 95.312 174.528 
z
" style="fill:#ffffff;opacity:0.8;stroke:#cccccc;stroke-linejoin:miter;"/>
    </g>
    <g id="line2d_16">
     <path d="M 97.312 122.400684 
L 117.312 122.400684 
" style="fill:none;stroke:#808080;stroke-linecap:square;stroke-width:1.5;"/>
    </g>
    <g id="line2d_17"/>
    <g id="text_13">
     <!-- Equilibrium proportion of evaders -->
     <g transform="translate(125.312 125.900684)scale(0.1 -0.1)">
      <defs>
       <path d="M 3821 1087 
L 3642 1087 
C 3322 391 3046 236 2131 236 
L 1958 236 
C 1645 236 1376 269 1331 314 
C 1299 333 1286 404 1286 513 
L 1286 2105 
L 2272 2105 
C 2797 2105 2893 2021 2976 1487 
L 3123 1487 
L 3123 2966 
L 2976 2966 
C 2931 2708 2906 2613 2835 2525 
C 2752 2418 2573 2368 2272 2368 
L 1286 2368 
L 1286 3766 
C 1286 3942 1325 3980 1498 3980 
L 2362 3980 
C 3085 3980 3226 3886 3334 3319 
L 3494 3319 
L 3475 4224 
L 77 4224 
L 77 4102 
C 550 4064 634 3975 634 3528 
L 634 695 
C 634 249 544 153 77 121 
L 77 0 
L 3533 0 
L 3821 1087 
z
" id="NimbusRomNo9L-Regu-45" transform="scale(0.015625)"/>
       <path d="M 2304 2713 
C 2010 2886 1818 2944 1568 2944 
C 768 2944 154 2228 154 1309 
C 154 505 576 -64 1178 -64 
C 1549 -64 1901 102 2182 409 
L 2182 -794 
C 2182 -1152 2067 -1248 1613 -1280 
L 1613 -1408 
L 3123 -1408 
L 3123 -1319 
C 2771 -1241 2720 -1189 2720 -916 
L 2720 2918 
L 2650 2918 
L 2304 2713 
z
M 2182 811 
C 2182 658 2157 575 2093 524 
C 1952 403 1741 326 1542 326 
C 1344 326 1171 390 1043 517 
C 838 703 704 1117 704 1539 
C 704 2292 1043 2764 1587 2764 
C 1984 2764 2182 2554 2182 2126 
L 2182 811 
z
" id="NimbusRomNo9L-Regu-71" transform="scale(0.015625)"/>
       <path d="M 3066 319 
L 3034 319 
C 2739 319 2669 390 2669 684 
L 2669 2880 
L 1658 2880 
L 1658 2771 
C 2054 2752 2131 2688 2131 2368 
L 2131 864 
C 2131 684 2099 595 2010 524 
C 1837 384 1638 307 1446 307 
C 1197 307 992 524 992 793 
L 992 2880 
L 58 2880 
L 58 2790 
C 365 2771 454 2675 454 2380 
L 454 768 
C 454 262 762 -64 1229 -64 
C 1466 -64 1715 38 1888 211 
L 2163 486 
L 2163 -45 
L 2189 -64 
C 2509 64 2739 134 3066 224 
L 3066 319 
z
" id="NimbusRomNo9L-Regu-75" transform="scale(0.015625)"/>
       <path d="M 979 4358 
L 947 4371 
C 678 4275 506 4224 205 4140 
L 19 4089 
L 19 3987 
C 58 3993 83 3993 128 3993 
C 384 3993 442 3936 442 3667 
L 442 345 
C 442 147 986 -64 1498 -64 
C 2342 -64 2995 639 2995 1555 
C 2995 2342 2509 2944 1869 2944 
C 1478 2944 1107 2713 979 2399 
L 979 4358 
z
M 979 2060 
C 979 2310 1280 2540 1613 2540 
C 2112 2540 2432 2041 2432 1260 
C 2432 550 2125 140 1600 140 
C 1267 140 979 287 979 447 
L 979 2060 
z
" id="NimbusRomNo9L-Regu-62" transform="scale(0.015625)"/>
       <path d="M 3053 2880 
L 2163 2880 
L 2163 2783 
C 2368 2764 2464 2701 2464 2580 
C 2464 2517 2451 2454 2426 2390 
L 1792 748 
L 1139 2371 
C 1101 2460 1082 2549 1082 2606 
C 1082 2720 1152 2764 1376 2783 
L 1376 2880 
L 122 2880 
L 122 2783 
C 365 2771 410 2707 704 2054 
L 1472 235 
C 1485 197 1504 152 1523 102 
C 1562 -13 1600 -64 1638 -64 
C 1677 -64 1722 19 1818 254 
L 2637 2289 
C 2822 2720 2861 2764 3053 2783 
L 3053 2880 
z
" id="NimbusRomNo9L-Regu-76" transform="scale(0.015625)"/>
       <path d="M 2202 -64 
L 3142 268 
L 3142 371 
C 3027 364 3014 364 2995 364 
C 2765 364 2714 435 2714 729 
L 2714 4358 
L 2682 4371 
C 2374 4262 2150 4198 1741 4089 
L 1741 3987 
C 1792 3993 1830 3993 1882 3993 
C 2118 3993 2176 3929 2176 3667 
L 2176 2668 
C 1933 2873 1760 2944 1504 2944 
C 768 2944 173 2220 173 1312 
C 173 492 653 -64 1357 -64 
C 1715 -64 1958 64 2176 364 
L 2176 -45 
L 2202 -64 
z
M 2176 652 
C 2176 608 2131 531 2067 460 
C 1952 332 1792 268 1606 268 
C 1075 268 723 780 723 1568 
C 723 2291 1037 2764 1523 2764 
C 1862 2764 2176 2464 2176 2124 
L 2176 652 
z
" id="NimbusRomNo9L-Regu-64" transform="scale(0.015625)"/>
      </defs>
      <use transform="scale(0.996264)" xlink:href="#NimbusRomNo9L-Regu-45"/>
      <use transform="translate(60.871631 0)scale(0.996264)" xlink:href="#NimbusRomNo9L-Regu-71"/>
      <use transform="translate(110.684831 0)scale(0.996264)" xlink:href="#NimbusRomNo9L-Regu-75"/>
      <use transform="translate(160.498032 0)scale(0.996264)" xlink:href="#NimbusRomNo9L-Regu-69"/>
      <use transform="translate(188.193201 0)scale(0.996264)" xlink:href="#NimbusRomNo9L-Regu-6c"/>
      <use transform="translate(215.888371 0)scale(0.996264)" xlink:href="#NimbusRomNo9L-Regu-69"/>
      <use transform="translate(243.58354 0)scale(0.996264)" xlink:href="#NimbusRomNo9L-Regu-62"/>
      <use transform="translate(293.396741 0)scale(0.996264)" xlink:href="#NimbusRomNo9L-Regu-72"/>
      <use transform="translate(326.571971 0)scale(0.996264)" xlink:href="#NimbusRomNo9L-Regu-69"/>
      <use transform="translate(354.26714 0)scale(0.996264)" xlink:href="#NimbusRomNo9L-Regu-75"/>
      <use transform="translate(404.080341 0)scale(0.996264)" xlink:href="#NimbusRomNo9L-Regu-6d"/>
      <use transform="translate(506.495311 0)scale(0.996264)" xlink:href="#NimbusRomNo9L-Regu-70"/>
      <use transform="translate(556.308512 0)scale(0.996264)" xlink:href="#NimbusRomNo9L-Regu-72"/>
      <use transform="translate(589.483741 0)scale(0.996264)" xlink:href="#NimbusRomNo9L-Regu-6f"/>
      <use transform="translate(639.296942 0)scale(0.996264)" xlink:href="#NimbusRomNo9L-Regu-70"/>
      <use transform="translate(689.110142 0)scale(0.996264)" xlink:href="#NimbusRomNo9L-Regu-6f"/>
      <use transform="translate(738.923343 0)scale(0.996264)" xlink:href="#NimbusRomNo9L-Regu-72"/>
      <use transform="translate(772.098573 0)scale(0.996264)" xlink:href="#NimbusRomNo9L-Regu-74"/>
      <use transform="translate(799.793742 0)scale(0.996264)" xlink:href="#NimbusRomNo9L-Regu-69"/>
      <use transform="translate(827.488912 0)scale(0.996264)" xlink:href="#NimbusRomNo9L-Regu-6f"/>
      <use transform="translate(877.302112 0)scale(0.996264)" xlink:href="#NimbusRomNo9L-Regu-6e"/>
      <use transform="translate(952.021913 0)scale(0.996264)" xlink:href="#NimbusRomNo9L-Regu-6f"/>
      <use transform="translate(1001.835114 0)scale(0.996264)" xlink:href="#NimbusRomNo9L-Regu-66"/>
      <use transform="translate(1059.916944 0)scale(0.996264)" xlink:href="#NimbusRomNo9L-Regu-65"/>
      <use transform="translate(1101.659883 0)scale(0.996264)" xlink:href="#NimbusRomNo9L-Regu-76"/>
      <use transform="translate(1148.982453 0)scale(0.996264)" xlink:href="#NimbusRomNo9L-Regu-61"/>
      <use transform="translate(1193.216022 0)scale(0.996264)" xlink:href="#NimbusRomNo9L-Regu-64"/>
      <use transform="translate(1243.029223 0)scale(0.996264)" xlink:href="#NimbusRomNo9L-Regu-65"/>
      <use transform="translate(1287.262791 0)scale(0.996264)" xlink:href="#NimbusRomNo9L-Regu-72"/>
      <use transform="translate(1320.438021 0)scale(0.996264)" xlink:href="#NimbusRomNo9L-Regu-73"/>
     </g>
    </g>
    <g id="line2d_18">
     <path d="M 97.312 136.557513 
L 117.312 136.557513 
" style="fill:none;stroke:#000000;stroke-linecap:square;stroke-width:1.5;"/>
    </g>
    <g id="line2d_19"/>
    <g id="text_14">
     <!-- Equilibrium proportion of optimisers -->
     <g transform="translate(125.312 140.057513)scale(0.1 -0.1)">
      <use transform="scale(0.996264)" xlink:href="#NimbusRomNo9L-Regu-45"/>
      <use transform="translate(60.871631 0)scale(0.996264)" xlink:href="#NimbusRomNo9L-Regu-71"/>
      <use transform="translate(110.684831 0)scale(0.996264)" xlink:href="#NimbusRomNo9L-Regu-75"/>
      <use transform="translate(160.498032 0)scale(0.996264)" xlink:href="#NimbusRomNo9L-Regu-69"/>
      <use transform="translate(188.193201 0)scale(0.996264)" xlink:href="#NimbusRomNo9L-Regu-6c"/>
      <use transform="translate(215.888371 0)scale(0.996264)" xlink:href="#NimbusRomNo9L-Regu-69"/>
      <use transform="translate(243.58354 0)scale(0.996264)" xlink:href="#NimbusRomNo9L-Regu-62"/>
      <use transform="translate(293.396741 0)scale(0.996264)" xlink:href="#NimbusRomNo9L-Regu-72"/>
      <use transform="translate(326.571971 0)scale(0.996264)" xlink:href="#NimbusRomNo9L-Regu-69"/>
      <use transform="translate(354.26714 0)scale(0.996264)" xlink:href="#NimbusRomNo9L-Regu-75"/>
      <use transform="translate(404.080341 0)scale(0.996264)" xlink:href="#NimbusRomNo9L-Regu-6d"/>
      <use transform="translate(506.495311 0)scale(0.996264)" xlink:href="#NimbusRomNo9L-Regu-70"/>
      <use transform="translate(556.308512 0)scale(0.996264)" xlink:href="#NimbusRomNo9L-Regu-72"/>
      <use transform="translate(589.483741 0)scale(0.996264)" xlink:href="#NimbusRomNo9L-Regu-6f"/>
      <use transform="translate(639.296942 0)scale(0.996264)" xlink:href="#NimbusRomNo9L-Regu-70"/>
      <use transform="translate(689.110142 0)scale(0.996264)" xlink:href="#NimbusRomNo9L-Regu-6f"/>
      <use transform="translate(738.923343 0)scale(0.996264)" xlink:href="#NimbusRomNo9L-Regu-72"/>
      <use transform="translate(772.098573 0)scale(0.996264)" xlink:href="#NimbusRomNo9L-Regu-74"/>
      <use transform="translate(799.793742 0)scale(0.996264)" xlink:href="#NimbusRomNo9L-Regu-69"/>
      <use transform="translate(827.488912 0)scale(0.996264)" xlink:href="#NimbusRomNo9L-Regu-6f"/>
      <use transform="translate(877.302112 0)scale(0.996264)" xlink:href="#NimbusRomNo9L-Regu-6e"/>
      <use transform="translate(952.021913 0)scale(0.996264)" xlink:href="#NimbusRomNo9L-Regu-6f"/>
      <use transform="translate(1001.835114 0)scale(0.996264)" xlink:href="#NimbusRomNo9L-Regu-66"/>
      <use transform="translate(1059.916944 0)scale(0.996264)" xlink:href="#NimbusRomNo9L-Regu-6f"/>
      <use transform="translate(1109.730144 0)scale(0.996264)" xlink:href="#NimbusRomNo9L-Regu-70"/>
      <use transform="translate(1159.543345 0)scale(0.996264)" xlink:href="#NimbusRomNo9L-Regu-74"/>
      <use transform="translate(1187.238514 0)scale(0.996264)" xlink:href="#NimbusRomNo9L-Regu-69"/>
      <use transform="translate(1214.933684 0)scale(0.996264)" xlink:href="#NimbusRomNo9L-Regu-6d"/>
      <use transform="translate(1292.442054 0)scale(0.996264)" xlink:href="#NimbusRomNo9L-Regu-69"/>
      <use transform="translate(1320.137223 0)scale(0.996264)" xlink:href="#NimbusRomNo9L-Regu-73"/>
      <use transform="translate(1358.89093 0)scale(0.996264)" xlink:href="#NimbusRomNo9L-Regu-65"/>
      <use transform="translate(1403.124498 0)scale(0.996264)" xlink:href="#NimbusRomNo9L-Regu-72"/>
      <use transform="translate(1436.299728 0)scale(0.996264)" xlink:href="#NimbusRomNo9L-Regu-73"/>
     </g>
    </g>
    <g id="line2d_20">
     <path d="M 97.312 150.714342 
L 117.312 150.714342 
" style="fill:none;stroke:#808080;stroke-dasharray:5.55,2.4;stroke-dashoffset:0;stroke-width:1.5;"/>
    </g>
    <g id="line2d_21"/>
    <g id="text_15">
     <!-- Equilibrium proportion of non-optimisers -->
     <g transform="translate(125.312 154.214342)scale(0.1 -0.1)">
      <defs>
       <path d="M 250 1664 
L 250 1260 
L 1824 1260 
L 1824 1664 
L 250 1664 
z
" id="NimbusRomNo9L-Regu-2d" transform="scale(0.015625)"/>
      </defs>
      <use transform="scale(0.996264)" xlink:href="#NimbusRomNo9L-Regu-45"/>
      <use transform="translate(60.871631 0)scale(0.996264)" xlink:href="#NimbusRomNo9L-Regu-71"/>
      <use transform="translate(110.684831 0)scale(0.996264)" xlink:href="#NimbusRomNo9L-Regu-75"/>
      <use transform="translate(160.498032 0)scale(0.996264)" xlink:href="#NimbusRomNo9L-Regu-69"/>
      <use transform="translate(188.193201 0)scale(0.996264)" xlink:href="#NimbusRomNo9L-Regu-6c"/>
      <use transform="translate(215.888371 0)scale(0.996264)" xlink:href="#NimbusRomNo9L-Regu-69"/>
      <use transform="translate(243.58354 0)scale(0.996264)" xlink:href="#NimbusRomNo9L-Regu-62"/>
      <use transform="translate(293.396741 0)scale(0.996264)" xlink:href="#NimbusRomNo9L-Regu-72"/>
      <use transform="translate(326.571971 0)scale(0.996264)" xlink:href="#NimbusRomNo9L-Regu-69"/>
      <use transform="translate(354.26714 0)scale(0.996264)" xlink:href="#NimbusRomNo9L-Regu-75"/>
      <use transform="translate(404.080341 0)scale(0.996264)" xlink:href="#NimbusRomNo9L-Regu-6d"/>
      <use transform="translate(506.495311 0)scale(0.996264)" xlink:href="#NimbusRomNo9L-Regu-70"/>
      <use transform="translate(556.308512 0)scale(0.996264)" xlink:href="#NimbusRomNo9L-Regu-72"/>
      <use transform="translate(589.483741 0)scale(0.996264)" xlink:href="#NimbusRomNo9L-Regu-6f"/>
      <use transform="translate(639.296942 0)scale(0.996264)" xlink:href="#NimbusRomNo9L-Regu-70"/>
      <use transform="translate(689.110142 0)scale(0.996264)" xlink:href="#NimbusRomNo9L-Regu-6f"/>
      <use transform="translate(738.923343 0)scale(0.996264)" xlink:href="#NimbusRomNo9L-Regu-72"/>
      <use transform="translate(772.098573 0)scale(0.996264)" xlink:href="#NimbusRomNo9L-Regu-74"/>
      <use transform="translate(799.793742 0)scale(0.996264)" xlink:href="#NimbusRomNo9L-Regu-69"/>
      <use transform="translate(827.488912 0)scale(0.996264)" xlink:href="#NimbusRomNo9L-Regu-6f"/>
      <use transform="translate(877.302112 0)scale(0.996264)" xlink:href="#NimbusRomNo9L-Regu-6e"/>
      <use transform="translate(952.021913 0)scale(0.996264)" xlink:href="#NimbusRomNo9L-Regu-6f"/>
      <use transform="translate(1001.835114 0)scale(0.996264)" xlink:href="#NimbusRomNo9L-Regu-66"/>
      <use transform="translate(1059.916944 0)scale(0.996264)" xlink:href="#NimbusRomNo9L-Regu-6e"/>
      <use transform="translate(1109.730144 0)scale(0.996264)" xlink:href="#NimbusRomNo9L-Regu-6f"/>
      <use transform="translate(1159.543345 0)scale(0.996264)" xlink:href="#NimbusRomNo9L-Regu-6e"/>
      <use transform="translate(1209.356545 0)scale(0.996264)" xlink:href="#NimbusRomNo9L-Regu-2d"/>
      <use transform="translate(1242.531775 0)scale(0.996264)" xlink:href="#NimbusRomNo9L-Regu-6f"/>
      <use transform="translate(1292.344975 0)scale(0.996264)" xlink:href="#NimbusRomNo9L-Regu-70"/>
      <use transform="translate(1342.158176 0)scale(0.996264)" xlink:href="#NimbusRomNo9L-Regu-74"/>
      <use transform="translate(1369.853345 0)scale(0.996264)" xlink:href="#NimbusRomNo9L-Regu-69"/>
      <use transform="translate(1397.548515 0)scale(0.996264)" xlink:href="#NimbusRomNo9L-Regu-6d"/>
      <use transform="translate(1475.056885 0)scale(0.996264)" xlink:href="#NimbusRomNo9L-Regu-69"/>
      <use transform="translate(1502.752055 0)scale(0.996264)" xlink:href="#NimbusRomNo9L-Regu-73"/>
      <use transform="translate(1541.505761 0)scale(0.996264)" xlink:href="#NimbusRomNo9L-Regu-65"/>
      <use transform="translate(1585.73933 0)scale(0.996264)" xlink:href="#NimbusRomNo9L-Regu-72"/>
      <use transform="translate(1618.914559 0)scale(0.996264)" xlink:href="#NimbusRomNo9L-Regu-73"/>
     </g>
    </g>
    <g id="line2d_22">
     <path d="M 97.312 164.871171 
L 117.312 164.871171 
" style="fill:none;stroke:#808080;stroke-dasharray:1.5,2.475;stroke-dashoffset:0;stroke-width:1.5;"/>
    </g>
    <g id="line2d_23"/>
    <g id="text_16">
     <!-- Equilibrium effective tax rate -->
     <g transform="translate(125.312 168.371171)scale(0.1 -0.1)">
      <defs>
       <path d="M 2547 998 
C 2240 550 2010 396 1645 396 
C 1062 396 653 908 653 1644 
C 653 2303 1005 2758 1523 2758 
C 1754 2758 1837 2687 1901 2451 
L 1939 2310 
C 1990 2131 2106 2015 2240 2015 
C 2406 2015 2547 2137 2547 2284 
C 2547 2643 2099 2944 1562 2944 
C 1248 2944 922 2815 659 2585 
C 339 2303 160 1868 160 1363 
C 160 531 666 -64 1376 -64 
C 1664 -64 1920 38 2150 236 
C 2323 390 2445 563 2637 940 
L 2547 998 
z
" id="NimbusRomNo9L-Regu-63" transform="scale(0.015625)"/>
       <path d="M 1779 0 
L 3066 0 
L 3066 96 
C 2867 96 2739 198 2541 480 
L 1722 1734 
L 2253 2502 
C 2374 2675 2566 2777 2771 2783 
L 2771 2880 
L 1760 2880 
L 1760 2783 
C 1952 2771 2016 2732 2016 2643 
C 2016 2566 1939 2425 1779 2227 
C 1747 2188 1670 2073 1587 1945 
L 1498 2073 
C 1318 2342 1203 2560 1203 2643 
C 1203 2732 1286 2777 1478 2783 
L 1478 2880 
L 154 2880 
L 154 2783 
L 211 2783 
C 403 2783 506 2700 704 2400 
L 1306 1478 
L 576 422 
C 384 160 320 115 109 96 
L 109 0 
L 1037 0 
L 1037 96 
C 858 96 781 128 781 211 
C 781 249 826 345 909 473 
L 1414 1260 
L 1997 364 
C 2022 326 2035 288 2035 249 
C 2035 134 1990 108 1779 96 
L 1779 0 
z
" id="NimbusRomNo9L-Regu-78" transform="scale(0.015625)"/>
      </defs>
      <use transform="scale(0.996264)" xlink:href="#NimbusRomNo9L-Regu-45"/>
      <use transform="translate(60.871631 0)scale(0.996264)" xlink:href="#NimbusRomNo9L-Regu-71"/>
      <use transform="translate(110.684831 0)scale(0.996264)" xlink:href="#NimbusRomNo9L-Regu-75"/>
      <use transform="translate(160.498032 0)scale(0.996264)" xlink:href="#NimbusRomNo9L-Regu-69"/>
      <use transform="translate(188.193201 0)scale(0.996264)" xlink:href="#NimbusRomNo9L-Regu-6c"/>
      <use transform="translate(215.888371 0)scale(0.996264)" xlink:href="#NimbusRomNo9L-Regu-69"/>
      <use transform="translate(243.58354 0)scale(0.996264)" xlink:href="#NimbusRomNo9L-Regu-62"/>
      <use transform="translate(293.396741 0)scale(0.996264)" xlink:href="#NimbusRomNo9L-Regu-72"/>
      <use transform="translate(326.571971 0)scale(0.996264)" xlink:href="#NimbusRomNo9L-Regu-69"/>
      <use transform="translate(354.26714 0)scale(0.996264)" xlink:href="#NimbusRomNo9L-Regu-75"/>
      <use transform="translate(404.080341 0)scale(0.996264)" xlink:href="#NimbusRomNo9L-Regu-6d"/>
      <use transform="translate(506.495311 0)scale(0.996264)" xlink:href="#NimbusRomNo9L-Regu-65"/>
      <use transform="translate(550.72888 0)scale(0.996264)" xlink:href="#NimbusRomNo9L-Regu-66"/>
      <use transform="translate(581.41348 0)scale(0.996264)" xlink:href="#NimbusRomNo9L-Regu-66"/>
      <use transform="translate(614.588527 0)scale(0.996264)" xlink:href="#NimbusRomNo9L-Regu-65"/>
      <use transform="translate(658.822096 0)scale(0.996264)" xlink:href="#NimbusRomNo9L-Regu-63"/>
      <use transform="translate(703.055665 0)scale(0.996264)" xlink:href="#NimbusRomNo9L-Regu-74"/>
      <use transform="translate(730.750834 0)scale(0.996264)" xlink:href="#NimbusRomNo9L-Regu-69"/>
      <use transform="translate(755.955374 0)scale(0.996264)" xlink:href="#NimbusRomNo9L-Regu-76"/>
      <use transform="translate(804.275182 0)scale(0.996264)" xlink:href="#NimbusRomNo9L-Regu-65"/>
      <use transform="translate(873.415351 0)scale(0.996264)" xlink:href="#NimbusRomNo9L-Regu-74"/>
      <use transform="translate(901.110521 0)scale(0.996264)" xlink:href="#NimbusRomNo9L-Regu-61"/>
      <use transform="translate(945.344089 0)scale(0.996264)" xlink:href="#NimbusRomNo9L-Regu-78"/>
      <use transform="translate(1020.06389 0)scale(0.996264)" xlink:href="#NimbusRomNo9L-Regu-72"/>
      <use transform="translate(1053.23912 0)scale(0.996264)" xlink:href="#NimbusRomNo9L-Regu-61"/>
      <use transform="translate(1097.472688 0)scale(0.996264)" xlink:href="#NimbusRomNo9L-Regu-74"/>
      <use transform="translate(1125.167858 0)scale(0.996264)" xlink:href="#NimbusRomNo9L-Regu-65"/>
     </g>
    </g>
   </g>
  </g>
 </g>
 <defs>
  <clipPath id="p7a8022b599">
   <rect height="266.112" width="357.12" x="57.6" y="41.472"/>
  </clipPath>
 </defs>
</svg>
